%TF.GenerationSoftware,KiCad,Pcbnew,8.0.3-8.0.3-0~ubuntu22.04.1*%
%TF.CreationDate,2024-06-18T13:08:12+03:00*%
%TF.ProjectId,DoserDriver,446f7365-7244-4726-9976-65722e6b6963,rev?*%
%TF.SameCoordinates,Original*%
%TF.FileFunction,Drillmap*%
%TF.FilePolarity,Positive*%
%FSLAX45Y45*%
G04 Gerber Fmt 4.5, Leading zero omitted, Abs format (unit mm)*
G04 Created by KiCad (PCBNEW 8.0.3-8.0.3-0~ubuntu22.04.1) date 2024-06-18 13:08:12*
%MOMM*%
%LPD*%
G01*
G04 APERTURE LIST*
%ADD10C,0.050000*%
%ADD11C,0.200000*%
%ADD12C,0.220000*%
G04 APERTURE END LIST*
D10*
X5200000Y-7075000D02*
G75*
G02*
X4900000Y-6775000I0J300000D01*
G01*
X5200000Y-7075000D02*
X9500000Y-7075000D01*
X4900000Y-3400000D02*
G75*
G02*
X5200000Y-3100000I300000J0D01*
G01*
X9800000Y-6775000D02*
X9800000Y-3400000D01*
X9500000Y-3100000D02*
G75*
G02*
X9800000Y-3400000I0J-300000D01*
G01*
X9800000Y-6775000D02*
G75*
G02*
X9500000Y-7075000I-300000J0D01*
G01*
X4900000Y-3400000D02*
X4900000Y-6775000D01*
X9500000Y-3100000D02*
X5200000Y-3100000D01*
D11*
D12*
X5090000Y-3290000D02*
X5310000Y-3510000D01*
X5310000Y-3290000D02*
X5090000Y-3510000D01*
X5090000Y-6665000D02*
X5310000Y-6885000D01*
X5310000Y-6665000D02*
X5090000Y-6885000D01*
X9390000Y-3290000D02*
X9610000Y-3510000D01*
X9610000Y-3290000D02*
X9390000Y-3510000D01*
X9390000Y-6665000D02*
X9610000Y-6885000D01*
X9610000Y-6665000D02*
X9390000Y-6885000D01*
D11*
X5158277Y-7388984D02*
X5158277Y-7188984D01*
X5158277Y-7188984D02*
X5205896Y-7188984D01*
X5205896Y-7188984D02*
X5234467Y-7198508D01*
X5234467Y-7198508D02*
X5253515Y-7217555D01*
X5253515Y-7217555D02*
X5263039Y-7236603D01*
X5263039Y-7236603D02*
X5272563Y-7274698D01*
X5272563Y-7274698D02*
X5272563Y-7303269D01*
X5272563Y-7303269D02*
X5263039Y-7341365D01*
X5263039Y-7341365D02*
X5253515Y-7360412D01*
X5253515Y-7360412D02*
X5234467Y-7379460D01*
X5234467Y-7379460D02*
X5205896Y-7388984D01*
X5205896Y-7388984D02*
X5158277Y-7388984D01*
X5358277Y-7388984D02*
X5358277Y-7255650D01*
X5358277Y-7293746D02*
X5367801Y-7274698D01*
X5367801Y-7274698D02*
X5377324Y-7265174D01*
X5377324Y-7265174D02*
X5396372Y-7255650D01*
X5396372Y-7255650D02*
X5415420Y-7255650D01*
X5482086Y-7388984D02*
X5482086Y-7255650D01*
X5482086Y-7188984D02*
X5472563Y-7198508D01*
X5472563Y-7198508D02*
X5482086Y-7208031D01*
X5482086Y-7208031D02*
X5491610Y-7198508D01*
X5491610Y-7198508D02*
X5482086Y-7188984D01*
X5482086Y-7188984D02*
X5482086Y-7208031D01*
X5605896Y-7388984D02*
X5586848Y-7379460D01*
X5586848Y-7379460D02*
X5577324Y-7360412D01*
X5577324Y-7360412D02*
X5577324Y-7188984D01*
X5710658Y-7388984D02*
X5691610Y-7379460D01*
X5691610Y-7379460D02*
X5682086Y-7360412D01*
X5682086Y-7360412D02*
X5682086Y-7188984D01*
X5939229Y-7388984D02*
X5939229Y-7188984D01*
X5939229Y-7188984D02*
X6005896Y-7331841D01*
X6005896Y-7331841D02*
X6072562Y-7188984D01*
X6072562Y-7188984D02*
X6072562Y-7388984D01*
X6253515Y-7388984D02*
X6253515Y-7284222D01*
X6253515Y-7284222D02*
X6243991Y-7265174D01*
X6243991Y-7265174D02*
X6224943Y-7255650D01*
X6224943Y-7255650D02*
X6186848Y-7255650D01*
X6186848Y-7255650D02*
X6167801Y-7265174D01*
X6253515Y-7379460D02*
X6234467Y-7388984D01*
X6234467Y-7388984D02*
X6186848Y-7388984D01*
X6186848Y-7388984D02*
X6167801Y-7379460D01*
X6167801Y-7379460D02*
X6158277Y-7360412D01*
X6158277Y-7360412D02*
X6158277Y-7341365D01*
X6158277Y-7341365D02*
X6167801Y-7322317D01*
X6167801Y-7322317D02*
X6186848Y-7312793D01*
X6186848Y-7312793D02*
X6234467Y-7312793D01*
X6234467Y-7312793D02*
X6253515Y-7303269D01*
X6348753Y-7255650D02*
X6348753Y-7455650D01*
X6348753Y-7265174D02*
X6367801Y-7255650D01*
X6367801Y-7255650D02*
X6405896Y-7255650D01*
X6405896Y-7255650D02*
X6424943Y-7265174D01*
X6424943Y-7265174D02*
X6434467Y-7274698D01*
X6434467Y-7274698D02*
X6443991Y-7293746D01*
X6443991Y-7293746D02*
X6443991Y-7350888D01*
X6443991Y-7350888D02*
X6434467Y-7369936D01*
X6434467Y-7369936D02*
X6424943Y-7379460D01*
X6424943Y-7379460D02*
X6405896Y-7388984D01*
X6405896Y-7388984D02*
X6367801Y-7388984D01*
X6367801Y-7388984D02*
X6348753Y-7379460D01*
X6529705Y-7369936D02*
X6539229Y-7379460D01*
X6539229Y-7379460D02*
X6529705Y-7388984D01*
X6529705Y-7388984D02*
X6520182Y-7379460D01*
X6520182Y-7379460D02*
X6529705Y-7369936D01*
X6529705Y-7369936D02*
X6529705Y-7388984D01*
X6529705Y-7265174D02*
X6539229Y-7274698D01*
X6539229Y-7274698D02*
X6529705Y-7284222D01*
X6529705Y-7284222D02*
X6520182Y-7274698D01*
X6520182Y-7274698D02*
X6529705Y-7265174D01*
X6529705Y-7265174D02*
X6529705Y-7284222D01*
X4697500Y-7617500D02*
X4897500Y-7817500D01*
X4897500Y-7617500D02*
X4697500Y-7817500D01*
X5148753Y-7628031D02*
X5158277Y-7618508D01*
X5158277Y-7618508D02*
X5177324Y-7608984D01*
X5177324Y-7608984D02*
X5224944Y-7608984D01*
X5224944Y-7608984D02*
X5243991Y-7618508D01*
X5243991Y-7618508D02*
X5253515Y-7628031D01*
X5253515Y-7628031D02*
X5263039Y-7647079D01*
X5263039Y-7647079D02*
X5263039Y-7666127D01*
X5263039Y-7666127D02*
X5253515Y-7694698D01*
X5253515Y-7694698D02*
X5139229Y-7808984D01*
X5139229Y-7808984D02*
X5263039Y-7808984D01*
X5348753Y-7789936D02*
X5358277Y-7799460D01*
X5358277Y-7799460D02*
X5348753Y-7808984D01*
X5348753Y-7808984D02*
X5339229Y-7799460D01*
X5339229Y-7799460D02*
X5348753Y-7789936D01*
X5348753Y-7789936D02*
X5348753Y-7808984D01*
X5434467Y-7628031D02*
X5443991Y-7618508D01*
X5443991Y-7618508D02*
X5463039Y-7608984D01*
X5463039Y-7608984D02*
X5510658Y-7608984D01*
X5510658Y-7608984D02*
X5529705Y-7618508D01*
X5529705Y-7618508D02*
X5539229Y-7628031D01*
X5539229Y-7628031D02*
X5548753Y-7647079D01*
X5548753Y-7647079D02*
X5548753Y-7666127D01*
X5548753Y-7666127D02*
X5539229Y-7694698D01*
X5539229Y-7694698D02*
X5424944Y-7808984D01*
X5424944Y-7808984D02*
X5548753Y-7808984D01*
X5672562Y-7608984D02*
X5691610Y-7608984D01*
X5691610Y-7608984D02*
X5710658Y-7618508D01*
X5710658Y-7618508D02*
X5720182Y-7628031D01*
X5720182Y-7628031D02*
X5729705Y-7647079D01*
X5729705Y-7647079D02*
X5739229Y-7685174D01*
X5739229Y-7685174D02*
X5739229Y-7732793D01*
X5739229Y-7732793D02*
X5729705Y-7770888D01*
X5729705Y-7770888D02*
X5720182Y-7789936D01*
X5720182Y-7789936D02*
X5710658Y-7799460D01*
X5710658Y-7799460D02*
X5691610Y-7808984D01*
X5691610Y-7808984D02*
X5672562Y-7808984D01*
X5672562Y-7808984D02*
X5653515Y-7799460D01*
X5653515Y-7799460D02*
X5643991Y-7789936D01*
X5643991Y-7789936D02*
X5634467Y-7770888D01*
X5634467Y-7770888D02*
X5624943Y-7732793D01*
X5624943Y-7732793D02*
X5624943Y-7685174D01*
X5624943Y-7685174D02*
X5634467Y-7647079D01*
X5634467Y-7647079D02*
X5643991Y-7628031D01*
X5643991Y-7628031D02*
X5653515Y-7618508D01*
X5653515Y-7618508D02*
X5672562Y-7608984D01*
X5863039Y-7608984D02*
X5882086Y-7608984D01*
X5882086Y-7608984D02*
X5901134Y-7618508D01*
X5901134Y-7618508D02*
X5910658Y-7628031D01*
X5910658Y-7628031D02*
X5920182Y-7647079D01*
X5920182Y-7647079D02*
X5929705Y-7685174D01*
X5929705Y-7685174D02*
X5929705Y-7732793D01*
X5929705Y-7732793D02*
X5920182Y-7770888D01*
X5920182Y-7770888D02*
X5910658Y-7789936D01*
X5910658Y-7789936D02*
X5901134Y-7799460D01*
X5901134Y-7799460D02*
X5882086Y-7808984D01*
X5882086Y-7808984D02*
X5863039Y-7808984D01*
X5863039Y-7808984D02*
X5843991Y-7799460D01*
X5843991Y-7799460D02*
X5834467Y-7789936D01*
X5834467Y-7789936D02*
X5824943Y-7770888D01*
X5824943Y-7770888D02*
X5815420Y-7732793D01*
X5815420Y-7732793D02*
X5815420Y-7685174D01*
X5815420Y-7685174D02*
X5824943Y-7647079D01*
X5824943Y-7647079D02*
X5834467Y-7628031D01*
X5834467Y-7628031D02*
X5843991Y-7618508D01*
X5843991Y-7618508D02*
X5863039Y-7608984D01*
X6015420Y-7808984D02*
X6015420Y-7675650D01*
X6015420Y-7694698D02*
X6024943Y-7685174D01*
X6024943Y-7685174D02*
X6043991Y-7675650D01*
X6043991Y-7675650D02*
X6072563Y-7675650D01*
X6072563Y-7675650D02*
X6091610Y-7685174D01*
X6091610Y-7685174D02*
X6101134Y-7704222D01*
X6101134Y-7704222D02*
X6101134Y-7808984D01*
X6101134Y-7704222D02*
X6110658Y-7685174D01*
X6110658Y-7685174D02*
X6129705Y-7675650D01*
X6129705Y-7675650D02*
X6158277Y-7675650D01*
X6158277Y-7675650D02*
X6177324Y-7685174D01*
X6177324Y-7685174D02*
X6186848Y-7704222D01*
X6186848Y-7704222D02*
X6186848Y-7808984D01*
X6282086Y-7808984D02*
X6282086Y-7675650D01*
X6282086Y-7694698D02*
X6291610Y-7685174D01*
X6291610Y-7685174D02*
X6310658Y-7675650D01*
X6310658Y-7675650D02*
X6339229Y-7675650D01*
X6339229Y-7675650D02*
X6358277Y-7685174D01*
X6358277Y-7685174D02*
X6367801Y-7704222D01*
X6367801Y-7704222D02*
X6367801Y-7808984D01*
X6367801Y-7704222D02*
X6377324Y-7685174D01*
X6377324Y-7685174D02*
X6396372Y-7675650D01*
X6396372Y-7675650D02*
X6424943Y-7675650D01*
X6424943Y-7675650D02*
X6443991Y-7685174D01*
X6443991Y-7685174D02*
X6453515Y-7704222D01*
X6453515Y-7704222D02*
X6453515Y-7808984D01*
X6843991Y-7599460D02*
X6672563Y-7856603D01*
X7101134Y-7608984D02*
X7120182Y-7608984D01*
X7120182Y-7608984D02*
X7139229Y-7618508D01*
X7139229Y-7618508D02*
X7148753Y-7628031D01*
X7148753Y-7628031D02*
X7158277Y-7647079D01*
X7158277Y-7647079D02*
X7167801Y-7685174D01*
X7167801Y-7685174D02*
X7167801Y-7732793D01*
X7167801Y-7732793D02*
X7158277Y-7770888D01*
X7158277Y-7770888D02*
X7148753Y-7789936D01*
X7148753Y-7789936D02*
X7139229Y-7799460D01*
X7139229Y-7799460D02*
X7120182Y-7808984D01*
X7120182Y-7808984D02*
X7101134Y-7808984D01*
X7101134Y-7808984D02*
X7082086Y-7799460D01*
X7082086Y-7799460D02*
X7072563Y-7789936D01*
X7072563Y-7789936D02*
X7063039Y-7770888D01*
X7063039Y-7770888D02*
X7053515Y-7732793D01*
X7053515Y-7732793D02*
X7053515Y-7685174D01*
X7053515Y-7685174D02*
X7063039Y-7647079D01*
X7063039Y-7647079D02*
X7072563Y-7628031D01*
X7072563Y-7628031D02*
X7082086Y-7618508D01*
X7082086Y-7618508D02*
X7101134Y-7608984D01*
X7253515Y-7789936D02*
X7263039Y-7799460D01*
X7263039Y-7799460D02*
X7253515Y-7808984D01*
X7253515Y-7808984D02*
X7243991Y-7799460D01*
X7243991Y-7799460D02*
X7253515Y-7789936D01*
X7253515Y-7789936D02*
X7253515Y-7808984D01*
X7386848Y-7608984D02*
X7405896Y-7608984D01*
X7405896Y-7608984D02*
X7424944Y-7618508D01*
X7424944Y-7618508D02*
X7434467Y-7628031D01*
X7434467Y-7628031D02*
X7443991Y-7647079D01*
X7443991Y-7647079D02*
X7453515Y-7685174D01*
X7453515Y-7685174D02*
X7453515Y-7732793D01*
X7453515Y-7732793D02*
X7443991Y-7770888D01*
X7443991Y-7770888D02*
X7434467Y-7789936D01*
X7434467Y-7789936D02*
X7424944Y-7799460D01*
X7424944Y-7799460D02*
X7405896Y-7808984D01*
X7405896Y-7808984D02*
X7386848Y-7808984D01*
X7386848Y-7808984D02*
X7367801Y-7799460D01*
X7367801Y-7799460D02*
X7358277Y-7789936D01*
X7358277Y-7789936D02*
X7348753Y-7770888D01*
X7348753Y-7770888D02*
X7339229Y-7732793D01*
X7339229Y-7732793D02*
X7339229Y-7685174D01*
X7339229Y-7685174D02*
X7348753Y-7647079D01*
X7348753Y-7647079D02*
X7358277Y-7628031D01*
X7358277Y-7628031D02*
X7367801Y-7618508D01*
X7367801Y-7618508D02*
X7386848Y-7608984D01*
X7567801Y-7694698D02*
X7548753Y-7685174D01*
X7548753Y-7685174D02*
X7539229Y-7675650D01*
X7539229Y-7675650D02*
X7529706Y-7656603D01*
X7529706Y-7656603D02*
X7529706Y-7647079D01*
X7529706Y-7647079D02*
X7539229Y-7628031D01*
X7539229Y-7628031D02*
X7548753Y-7618508D01*
X7548753Y-7618508D02*
X7567801Y-7608984D01*
X7567801Y-7608984D02*
X7605896Y-7608984D01*
X7605896Y-7608984D02*
X7624944Y-7618508D01*
X7624944Y-7618508D02*
X7634467Y-7628031D01*
X7634467Y-7628031D02*
X7643991Y-7647079D01*
X7643991Y-7647079D02*
X7643991Y-7656603D01*
X7643991Y-7656603D02*
X7634467Y-7675650D01*
X7634467Y-7675650D02*
X7624944Y-7685174D01*
X7624944Y-7685174D02*
X7605896Y-7694698D01*
X7605896Y-7694698D02*
X7567801Y-7694698D01*
X7567801Y-7694698D02*
X7548753Y-7704222D01*
X7548753Y-7704222D02*
X7539229Y-7713746D01*
X7539229Y-7713746D02*
X7529706Y-7732793D01*
X7529706Y-7732793D02*
X7529706Y-7770888D01*
X7529706Y-7770888D02*
X7539229Y-7789936D01*
X7539229Y-7789936D02*
X7548753Y-7799460D01*
X7548753Y-7799460D02*
X7567801Y-7808984D01*
X7567801Y-7808984D02*
X7605896Y-7808984D01*
X7605896Y-7808984D02*
X7624944Y-7799460D01*
X7624944Y-7799460D02*
X7634467Y-7789936D01*
X7634467Y-7789936D02*
X7643991Y-7770888D01*
X7643991Y-7770888D02*
X7643991Y-7732793D01*
X7643991Y-7732793D02*
X7634467Y-7713746D01*
X7634467Y-7713746D02*
X7624944Y-7704222D01*
X7624944Y-7704222D02*
X7605896Y-7694698D01*
X7815420Y-7608984D02*
X7777325Y-7608984D01*
X7777325Y-7608984D02*
X7758277Y-7618508D01*
X7758277Y-7618508D02*
X7748753Y-7628031D01*
X7748753Y-7628031D02*
X7729706Y-7656603D01*
X7729706Y-7656603D02*
X7720182Y-7694698D01*
X7720182Y-7694698D02*
X7720182Y-7770888D01*
X7720182Y-7770888D02*
X7729706Y-7789936D01*
X7729706Y-7789936D02*
X7739229Y-7799460D01*
X7739229Y-7799460D02*
X7758277Y-7808984D01*
X7758277Y-7808984D02*
X7796372Y-7808984D01*
X7796372Y-7808984D02*
X7815420Y-7799460D01*
X7815420Y-7799460D02*
X7824944Y-7789936D01*
X7824944Y-7789936D02*
X7834467Y-7770888D01*
X7834467Y-7770888D02*
X7834467Y-7723269D01*
X7834467Y-7723269D02*
X7824944Y-7704222D01*
X7824944Y-7704222D02*
X7815420Y-7694698D01*
X7815420Y-7694698D02*
X7796372Y-7685174D01*
X7796372Y-7685174D02*
X7758277Y-7685174D01*
X7758277Y-7685174D02*
X7739229Y-7694698D01*
X7739229Y-7694698D02*
X7729706Y-7704222D01*
X7729706Y-7704222D02*
X7720182Y-7723269D01*
X8005896Y-7608984D02*
X7967801Y-7608984D01*
X7967801Y-7608984D02*
X7948753Y-7618508D01*
X7948753Y-7618508D02*
X7939229Y-7628031D01*
X7939229Y-7628031D02*
X7920182Y-7656603D01*
X7920182Y-7656603D02*
X7910658Y-7694698D01*
X7910658Y-7694698D02*
X7910658Y-7770888D01*
X7910658Y-7770888D02*
X7920182Y-7789936D01*
X7920182Y-7789936D02*
X7929706Y-7799460D01*
X7929706Y-7799460D02*
X7948753Y-7808984D01*
X7948753Y-7808984D02*
X7986848Y-7808984D01*
X7986848Y-7808984D02*
X8005896Y-7799460D01*
X8005896Y-7799460D02*
X8015420Y-7789936D01*
X8015420Y-7789936D02*
X8024944Y-7770888D01*
X8024944Y-7770888D02*
X8024944Y-7723269D01*
X8024944Y-7723269D02*
X8015420Y-7704222D01*
X8015420Y-7704222D02*
X8005896Y-7694698D01*
X8005896Y-7694698D02*
X7986848Y-7685174D01*
X7986848Y-7685174D02*
X7948753Y-7685174D01*
X7948753Y-7685174D02*
X7929706Y-7694698D01*
X7929706Y-7694698D02*
X7920182Y-7704222D01*
X7920182Y-7704222D02*
X7910658Y-7723269D01*
X8101134Y-7608984D02*
X8101134Y-7647079D01*
X8177325Y-7608984D02*
X8177325Y-7647079D01*
X8472563Y-7885174D02*
X8463039Y-7875650D01*
X8463039Y-7875650D02*
X8443991Y-7847079D01*
X8443991Y-7847079D02*
X8434468Y-7828031D01*
X8434468Y-7828031D02*
X8424944Y-7799460D01*
X8424944Y-7799460D02*
X8415420Y-7751841D01*
X8415420Y-7751841D02*
X8415420Y-7713746D01*
X8415420Y-7713746D02*
X8424944Y-7666127D01*
X8424944Y-7666127D02*
X8434468Y-7637555D01*
X8434468Y-7637555D02*
X8443991Y-7618508D01*
X8443991Y-7618508D02*
X8463039Y-7589936D01*
X8463039Y-7589936D02*
X8472563Y-7580412D01*
X8634468Y-7675650D02*
X8634468Y-7808984D01*
X8586849Y-7599460D02*
X8539230Y-7742317D01*
X8539230Y-7742317D02*
X8663039Y-7742317D01*
X8891611Y-7808984D02*
X8891611Y-7608984D01*
X8977325Y-7808984D02*
X8977325Y-7704222D01*
X8977325Y-7704222D02*
X8967801Y-7685174D01*
X8967801Y-7685174D02*
X8948753Y-7675650D01*
X8948753Y-7675650D02*
X8920182Y-7675650D01*
X8920182Y-7675650D02*
X8901134Y-7685174D01*
X8901134Y-7685174D02*
X8891611Y-7694698D01*
X9101134Y-7808984D02*
X9082087Y-7799460D01*
X9082087Y-7799460D02*
X9072563Y-7789936D01*
X9072563Y-7789936D02*
X9063039Y-7770888D01*
X9063039Y-7770888D02*
X9063039Y-7713746D01*
X9063039Y-7713746D02*
X9072563Y-7694698D01*
X9072563Y-7694698D02*
X9082087Y-7685174D01*
X9082087Y-7685174D02*
X9101134Y-7675650D01*
X9101134Y-7675650D02*
X9129706Y-7675650D01*
X9129706Y-7675650D02*
X9148753Y-7685174D01*
X9148753Y-7685174D02*
X9158277Y-7694698D01*
X9158277Y-7694698D02*
X9167801Y-7713746D01*
X9167801Y-7713746D02*
X9167801Y-7770888D01*
X9167801Y-7770888D02*
X9158277Y-7789936D01*
X9158277Y-7789936D02*
X9148753Y-7799460D01*
X9148753Y-7799460D02*
X9129706Y-7808984D01*
X9129706Y-7808984D02*
X9101134Y-7808984D01*
X9282087Y-7808984D02*
X9263039Y-7799460D01*
X9263039Y-7799460D02*
X9253515Y-7780412D01*
X9253515Y-7780412D02*
X9253515Y-7608984D01*
X9434468Y-7799460D02*
X9415420Y-7808984D01*
X9415420Y-7808984D02*
X9377325Y-7808984D01*
X9377325Y-7808984D02*
X9358277Y-7799460D01*
X9358277Y-7799460D02*
X9348753Y-7780412D01*
X9348753Y-7780412D02*
X9348753Y-7704222D01*
X9348753Y-7704222D02*
X9358277Y-7685174D01*
X9358277Y-7685174D02*
X9377325Y-7675650D01*
X9377325Y-7675650D02*
X9415420Y-7675650D01*
X9415420Y-7675650D02*
X9434468Y-7685174D01*
X9434468Y-7685174D02*
X9443992Y-7704222D01*
X9443992Y-7704222D02*
X9443992Y-7723269D01*
X9443992Y-7723269D02*
X9348753Y-7742317D01*
X9520182Y-7799460D02*
X9539230Y-7808984D01*
X9539230Y-7808984D02*
X9577325Y-7808984D01*
X9577325Y-7808984D02*
X9596373Y-7799460D01*
X9596373Y-7799460D02*
X9605896Y-7780412D01*
X9605896Y-7780412D02*
X9605896Y-7770888D01*
X9605896Y-7770888D02*
X9596373Y-7751841D01*
X9596373Y-7751841D02*
X9577325Y-7742317D01*
X9577325Y-7742317D02*
X9548753Y-7742317D01*
X9548753Y-7742317D02*
X9529706Y-7732793D01*
X9529706Y-7732793D02*
X9520182Y-7713746D01*
X9520182Y-7713746D02*
X9520182Y-7704222D01*
X9520182Y-7704222D02*
X9529706Y-7685174D01*
X9529706Y-7685174D02*
X9548753Y-7675650D01*
X9548753Y-7675650D02*
X9577325Y-7675650D01*
X9577325Y-7675650D02*
X9596373Y-7685174D01*
X9672563Y-7885174D02*
X9682087Y-7875650D01*
X9682087Y-7875650D02*
X9701134Y-7847079D01*
X9701134Y-7847079D02*
X9710658Y-7828031D01*
X9710658Y-7828031D02*
X9720182Y-7799460D01*
X9720182Y-7799460D02*
X9729706Y-7751841D01*
X9729706Y-7751841D02*
X9729706Y-7713746D01*
X9729706Y-7713746D02*
X9720182Y-7666127D01*
X9720182Y-7666127D02*
X9710658Y-7637555D01*
X9710658Y-7637555D02*
X9701134Y-7618508D01*
X9701134Y-7618508D02*
X9682087Y-7589936D01*
X9682087Y-7589936D02*
X9672563Y-7580412D01*
X10034468Y-7885174D02*
X10024944Y-7875650D01*
X10024944Y-7875650D02*
X10005896Y-7847079D01*
X10005896Y-7847079D02*
X9996373Y-7828031D01*
X9996373Y-7828031D02*
X9986849Y-7799460D01*
X9986849Y-7799460D02*
X9977325Y-7751841D01*
X9977325Y-7751841D02*
X9977325Y-7713746D01*
X9977325Y-7713746D02*
X9986849Y-7666127D01*
X9986849Y-7666127D02*
X9996373Y-7637555D01*
X9996373Y-7637555D02*
X10005896Y-7618508D01*
X10005896Y-7618508D02*
X10024944Y-7589936D01*
X10024944Y-7589936D02*
X10034468Y-7580412D01*
X10110658Y-7675650D02*
X10110658Y-7808984D01*
X10110658Y-7694698D02*
X10120182Y-7685174D01*
X10120182Y-7685174D02*
X10139230Y-7675650D01*
X10139230Y-7675650D02*
X10167801Y-7675650D01*
X10167801Y-7675650D02*
X10186849Y-7685174D01*
X10186849Y-7685174D02*
X10196373Y-7704222D01*
X10196373Y-7704222D02*
X10196373Y-7808984D01*
X10320182Y-7808984D02*
X10301134Y-7799460D01*
X10301134Y-7799460D02*
X10291611Y-7789936D01*
X10291611Y-7789936D02*
X10282087Y-7770888D01*
X10282087Y-7770888D02*
X10282087Y-7713746D01*
X10282087Y-7713746D02*
X10291611Y-7694698D01*
X10291611Y-7694698D02*
X10301134Y-7685174D01*
X10301134Y-7685174D02*
X10320182Y-7675650D01*
X10320182Y-7675650D02*
X10348754Y-7675650D01*
X10348754Y-7675650D02*
X10367801Y-7685174D01*
X10367801Y-7685174D02*
X10377325Y-7694698D01*
X10377325Y-7694698D02*
X10386849Y-7713746D01*
X10386849Y-7713746D02*
X10386849Y-7770888D01*
X10386849Y-7770888D02*
X10377325Y-7789936D01*
X10377325Y-7789936D02*
X10367801Y-7799460D01*
X10367801Y-7799460D02*
X10348754Y-7808984D01*
X10348754Y-7808984D02*
X10320182Y-7808984D01*
X10443992Y-7675650D02*
X10520182Y-7675650D01*
X10472563Y-7608984D02*
X10472563Y-7780412D01*
X10472563Y-7780412D02*
X10482087Y-7799460D01*
X10482087Y-7799460D02*
X10501134Y-7808984D01*
X10501134Y-7808984D02*
X10520182Y-7808984D01*
X10739230Y-7675650D02*
X10739230Y-7875650D01*
X10739230Y-7685174D02*
X10758277Y-7675650D01*
X10758277Y-7675650D02*
X10796373Y-7675650D01*
X10796373Y-7675650D02*
X10815420Y-7685174D01*
X10815420Y-7685174D02*
X10824944Y-7694698D01*
X10824944Y-7694698D02*
X10834468Y-7713746D01*
X10834468Y-7713746D02*
X10834468Y-7770888D01*
X10834468Y-7770888D02*
X10824944Y-7789936D01*
X10824944Y-7789936D02*
X10815420Y-7799460D01*
X10815420Y-7799460D02*
X10796373Y-7808984D01*
X10796373Y-7808984D02*
X10758277Y-7808984D01*
X10758277Y-7808984D02*
X10739230Y-7799460D01*
X10948754Y-7808984D02*
X10929706Y-7799460D01*
X10929706Y-7799460D02*
X10920182Y-7780412D01*
X10920182Y-7780412D02*
X10920182Y-7608984D01*
X11110658Y-7808984D02*
X11110658Y-7704222D01*
X11110658Y-7704222D02*
X11101135Y-7685174D01*
X11101135Y-7685174D02*
X11082087Y-7675650D01*
X11082087Y-7675650D02*
X11043992Y-7675650D01*
X11043992Y-7675650D02*
X11024944Y-7685174D01*
X11110658Y-7799460D02*
X11091611Y-7808984D01*
X11091611Y-7808984D02*
X11043992Y-7808984D01*
X11043992Y-7808984D02*
X11024944Y-7799460D01*
X11024944Y-7799460D02*
X11015420Y-7780412D01*
X11015420Y-7780412D02*
X11015420Y-7761365D01*
X11015420Y-7761365D02*
X11024944Y-7742317D01*
X11024944Y-7742317D02*
X11043992Y-7732793D01*
X11043992Y-7732793D02*
X11091611Y-7732793D01*
X11091611Y-7732793D02*
X11110658Y-7723269D01*
X11177325Y-7675650D02*
X11253515Y-7675650D01*
X11205896Y-7608984D02*
X11205896Y-7780412D01*
X11205896Y-7780412D02*
X11215420Y-7799460D01*
X11215420Y-7799460D02*
X11234468Y-7808984D01*
X11234468Y-7808984D02*
X11253515Y-7808984D01*
X11396373Y-7799460D02*
X11377325Y-7808984D01*
X11377325Y-7808984D02*
X11339230Y-7808984D01*
X11339230Y-7808984D02*
X11320182Y-7799460D01*
X11320182Y-7799460D02*
X11310658Y-7780412D01*
X11310658Y-7780412D02*
X11310658Y-7704222D01*
X11310658Y-7704222D02*
X11320182Y-7685174D01*
X11320182Y-7685174D02*
X11339230Y-7675650D01*
X11339230Y-7675650D02*
X11377325Y-7675650D01*
X11377325Y-7675650D02*
X11396373Y-7685174D01*
X11396373Y-7685174D02*
X11405896Y-7704222D01*
X11405896Y-7704222D02*
X11405896Y-7723269D01*
X11405896Y-7723269D02*
X11310658Y-7742317D01*
X11577325Y-7808984D02*
X11577325Y-7608984D01*
X11577325Y-7799460D02*
X11558277Y-7808984D01*
X11558277Y-7808984D02*
X11520182Y-7808984D01*
X11520182Y-7808984D02*
X11501134Y-7799460D01*
X11501134Y-7799460D02*
X11491611Y-7789936D01*
X11491611Y-7789936D02*
X11482087Y-7770888D01*
X11482087Y-7770888D02*
X11482087Y-7713746D01*
X11482087Y-7713746D02*
X11491611Y-7694698D01*
X11491611Y-7694698D02*
X11501134Y-7685174D01*
X11501134Y-7685174D02*
X11520182Y-7675650D01*
X11520182Y-7675650D02*
X11558277Y-7675650D01*
X11558277Y-7675650D02*
X11577325Y-7685174D01*
X11653515Y-7885174D02*
X11663039Y-7875650D01*
X11663039Y-7875650D02*
X11682087Y-7847079D01*
X11682087Y-7847079D02*
X11691611Y-7828031D01*
X11691611Y-7828031D02*
X11701134Y-7799460D01*
X11701134Y-7799460D02*
X11710658Y-7751841D01*
X11710658Y-7751841D02*
X11710658Y-7713746D01*
X11710658Y-7713746D02*
X11701134Y-7666127D01*
X11701134Y-7666127D02*
X11691611Y-7637555D01*
X11691611Y-7637555D02*
X11682087Y-7618508D01*
X11682087Y-7618508D02*
X11663039Y-7589936D01*
X11663039Y-7589936D02*
X11653515Y-7580412D01*
M02*
