%TF.GenerationSoftware,KiCad,Pcbnew,8.0.3-8.0.3-0~ubuntu22.04.1*%
%TF.CreationDate,2024-06-18T13:07:19+03:00*%
%TF.ProjectId,DoserDriver,446f7365-7244-4726-9976-65722e6b6963,rev?*%
%TF.SameCoordinates,Original*%
%TF.FileFunction,Copper,L1,Top*%
%TF.FilePolarity,Positive*%
%FSLAX46Y46*%
G04 Gerber Fmt 4.6, Leading zero omitted, Abs format (unit mm)*
G04 Created by KiCad (PCBNEW 8.0.3-8.0.3-0~ubuntu22.04.1) date 2024-06-18 13:07:19*
%MOMM*%
%LPD*%
G01*
G04 APERTURE LIST*
G04 Aperture macros list*
%AMRoundRect*
0 Rectangle with rounded corners*
0 $1 Rounding radius*
0 $2 $3 $4 $5 $6 $7 $8 $9 X,Y pos of 4 corners*
0 Add a 4 corners polygon primitive as box body*
4,1,4,$2,$3,$4,$5,$6,$7,$8,$9,$2,$3,0*
0 Add four circle primitives for the rounded corners*
1,1,$1+$1,$2,$3*
1,1,$1+$1,$4,$5*
1,1,$1+$1,$6,$7*
1,1,$1+$1,$8,$9*
0 Add four rect primitives between the rounded corners*
20,1,$1+$1,$2,$3,$4,$5,0*
20,1,$1+$1,$4,$5,$6,$7,0*
20,1,$1+$1,$6,$7,$8,$9,0*
20,1,$1+$1,$8,$9,$2,$3,0*%
G04 Aperture macros list end*
%TA.AperFunction,SMDPad,CuDef*%
%ADD10RoundRect,0.250000X-0.312500X-0.625000X0.312500X-0.625000X0.312500X0.625000X-0.312500X0.625000X0*%
%TD*%
%TA.AperFunction,SMDPad,CuDef*%
%ADD11RoundRect,0.135000X0.185000X-0.135000X0.185000X0.135000X-0.185000X0.135000X-0.185000X-0.135000X0*%
%TD*%
%TA.AperFunction,SMDPad,CuDef*%
%ADD12RoundRect,0.140000X-0.170000X0.140000X-0.170000X-0.140000X0.170000X-0.140000X0.170000X0.140000X0*%
%TD*%
%TA.AperFunction,SMDPad,CuDef*%
%ADD13RoundRect,0.250000X0.475000X-0.250000X0.475000X0.250000X-0.475000X0.250000X-0.475000X-0.250000X0*%
%TD*%
%TA.AperFunction,SMDPad,CuDef*%
%ADD14RoundRect,0.135000X-0.135000X-0.185000X0.135000X-0.185000X0.135000X0.185000X-0.135000X0.185000X0*%
%TD*%
%TA.AperFunction,SMDPad,CuDef*%
%ADD15RoundRect,0.140000X-0.140000X-0.170000X0.140000X-0.170000X0.140000X0.170000X-0.140000X0.170000X0*%
%TD*%
%TA.AperFunction,SMDPad,CuDef*%
%ADD16RoundRect,0.135000X-0.185000X0.135000X-0.185000X-0.135000X0.185000X-0.135000X0.185000X0.135000X0*%
%TD*%
%TA.AperFunction,SMDPad,CuDef*%
%ADD17RoundRect,0.140000X0.170000X-0.140000X0.170000X0.140000X-0.170000X0.140000X-0.170000X-0.140000X0*%
%TD*%
%TA.AperFunction,SMDPad,CuDef*%
%ADD18RoundRect,0.250000X-0.250000X-0.475000X0.250000X-0.475000X0.250000X0.475000X-0.250000X0.475000X0*%
%TD*%
%TA.AperFunction,SMDPad,CuDef*%
%ADD19RoundRect,0.225000X0.250000X-0.225000X0.250000X0.225000X-0.250000X0.225000X-0.250000X-0.225000X0*%
%TD*%
%TA.AperFunction,SMDPad,CuDef*%
%ADD20RoundRect,0.225000X-0.250000X0.225000X-0.250000X-0.225000X0.250000X-0.225000X0.250000X0.225000X0*%
%TD*%
%TA.AperFunction,ComponentPad*%
%ADD21R,2.000000X2.000000*%
%TD*%
%TA.AperFunction,ComponentPad*%
%ADD22C,2.000000*%
%TD*%
%TA.AperFunction,SMDPad,CuDef*%
%ADD23R,1.200000X0.800000*%
%TD*%
%TA.AperFunction,SMDPad,CuDef*%
%ADD24RoundRect,0.140000X0.140000X0.170000X-0.140000X0.170000X-0.140000X-0.170000X0.140000X-0.170000X0*%
%TD*%
%TA.AperFunction,SMDPad,CuDef*%
%ADD25RoundRect,0.218750X0.218750X0.256250X-0.218750X0.256250X-0.218750X-0.256250X0.218750X-0.256250X0*%
%TD*%
%TA.AperFunction,SMDPad,CuDef*%
%ADD26RoundRect,0.150000X-0.512500X-0.150000X0.512500X-0.150000X0.512500X0.150000X-0.512500X0.150000X0*%
%TD*%
%TA.AperFunction,SMDPad,CuDef*%
%ADD27R,1.000000X0.750000*%
%TD*%
%TA.AperFunction,SMDPad,CuDef*%
%ADD28RoundRect,0.150000X-0.825000X-0.150000X0.825000X-0.150000X0.825000X0.150000X-0.825000X0.150000X0*%
%TD*%
%TA.AperFunction,SMDPad,CuDef*%
%ADD29RoundRect,0.100000X-0.687500X-0.100000X0.687500X-0.100000X0.687500X0.100000X-0.687500X0.100000X0*%
%TD*%
%TA.AperFunction,HeatsinkPad*%
%ADD30R,3.400000X5.000000*%
%TD*%
%TA.AperFunction,SMDPad,CuDef*%
%ADD31RoundRect,0.135000X0.135000X0.185000X-0.135000X0.185000X-0.135000X-0.185000X0.135000X-0.185000X0*%
%TD*%
%TA.AperFunction,ComponentPad*%
%ADD32R,1.700000X1.700000*%
%TD*%
%TA.AperFunction,ComponentPad*%
%ADD33O,1.700000X1.700000*%
%TD*%
%TA.AperFunction,SMDPad,CuDef*%
%ADD34RoundRect,0.075000X-0.662500X-0.075000X0.662500X-0.075000X0.662500X0.075000X-0.662500X0.075000X0*%
%TD*%
%TA.AperFunction,SMDPad,CuDef*%
%ADD35RoundRect,0.075000X-0.075000X-0.662500X0.075000X-0.662500X0.075000X0.662500X-0.075000X0.662500X0*%
%TD*%
%TA.AperFunction,SMDPad,CuDef*%
%ADD36R,2.500000X1.500000*%
%TD*%
%TA.AperFunction,SMDPad,CuDef*%
%ADD37RoundRect,0.225000X-0.225000X-0.250000X0.225000X-0.250000X0.225000X0.250000X-0.225000X0.250000X0*%
%TD*%
%TA.AperFunction,SMDPad,CuDef*%
%ADD38RoundRect,0.150000X-0.587500X-0.150000X0.587500X-0.150000X0.587500X0.150000X-0.587500X0.150000X0*%
%TD*%
%TA.AperFunction,SMDPad,CuDef*%
%ADD39R,2.400000X2.000000*%
%TD*%
%TA.AperFunction,ViaPad*%
%ADD40C,0.700000*%
%TD*%
%TA.AperFunction,ViaPad*%
%ADD41C,0.600000*%
%TD*%
%TA.AperFunction,Conductor*%
%ADD42C,0.300000*%
%TD*%
%TA.AperFunction,Conductor*%
%ADD43C,0.500000*%
%TD*%
%TA.AperFunction,Conductor*%
%ADD44C,0.800000*%
%TD*%
G04 APERTURE END LIST*
D10*
X84537500Y-57980000D03*
X87462500Y-57980000D03*
D11*
X71750000Y-38760000D03*
X71750000Y-37740000D03*
D12*
X73250000Y-37770000D03*
X73250000Y-38730000D03*
D13*
X74900000Y-59950000D03*
X74900000Y-58050000D03*
D14*
X58990000Y-64660000D03*
X60010000Y-64660000D03*
D15*
X67750000Y-42250000D03*
X68710000Y-42250000D03*
D16*
X68100000Y-34580000D03*
X68100000Y-35600000D03*
D17*
X81025000Y-48230000D03*
X81025000Y-47270000D03*
D18*
X61368750Y-32650000D03*
X63268750Y-32650000D03*
D19*
X71750000Y-66800000D03*
X71750000Y-65250000D03*
D11*
X83562500Y-53450000D03*
X83562500Y-52430000D03*
D20*
X61400000Y-38250000D03*
X61400000Y-39800000D03*
D13*
X75500000Y-66950000D03*
X75500000Y-65050000D03*
D17*
X63300000Y-45500000D03*
X63300000Y-44540000D03*
D12*
X78000000Y-44980000D03*
X78000000Y-45940000D03*
D21*
X93850000Y-47810000D03*
D22*
X93850000Y-45270000D03*
X93850000Y-42730000D03*
X93850000Y-40190000D03*
D12*
X76750000Y-45000000D03*
X76750000Y-45960000D03*
D19*
X71250000Y-59800000D03*
X71250000Y-58250000D03*
D16*
X59750000Y-66070000D03*
X59750000Y-67090000D03*
D19*
X73000000Y-59800000D03*
X73000000Y-58250000D03*
D23*
X81100000Y-60480000D03*
X81100000Y-63020000D03*
X87400000Y-63020000D03*
X87400000Y-60480000D03*
D14*
X70980000Y-35500000D03*
X72000000Y-35500000D03*
D21*
X93850000Y-61790000D03*
D22*
X93850000Y-59250000D03*
X93850000Y-56710000D03*
X93850000Y-54170000D03*
D24*
X74000000Y-54250000D03*
X73040000Y-54250000D03*
X74000000Y-55500000D03*
X73040000Y-55500000D03*
D25*
X72075000Y-34000000D03*
X70500000Y-34000000D03*
D21*
X53000000Y-54460000D03*
D22*
X53000000Y-57000000D03*
X53000000Y-59540000D03*
X53000000Y-62080000D03*
D20*
X59650000Y-38250000D03*
X59650000Y-39800000D03*
D26*
X63481250Y-34600000D03*
X63481250Y-35550000D03*
X63481250Y-36500000D03*
X65756250Y-36500000D03*
X65756250Y-35550000D03*
X65756250Y-34600000D03*
D14*
X58990000Y-58000000D03*
X60010000Y-58000000D03*
D27*
X80750000Y-40125000D03*
X74750000Y-40125000D03*
X80750000Y-36375000D03*
X74750000Y-36375000D03*
D17*
X69500000Y-64640000D03*
X69500000Y-63680000D03*
D28*
X83025000Y-45845000D03*
X83025000Y-47115000D03*
X83025000Y-48385000D03*
X83025000Y-49655000D03*
X87975000Y-49655000D03*
X87975000Y-48385000D03*
X87975000Y-47115000D03*
X87975000Y-45845000D03*
D20*
X63250000Y-38225000D03*
X63250000Y-39775000D03*
D29*
X61887500Y-62805000D03*
X61887500Y-63455000D03*
X61887500Y-64105000D03*
X61887500Y-64755000D03*
X61887500Y-65405000D03*
X61887500Y-66055000D03*
X61887500Y-66705000D03*
X61887500Y-67355000D03*
X67612500Y-67355000D03*
X67612500Y-66705000D03*
X67612500Y-66055000D03*
X67612500Y-65405000D03*
X67612500Y-64755000D03*
X67612500Y-64105000D03*
X67612500Y-63455000D03*
X67612500Y-62805000D03*
D30*
X64750000Y-65080000D03*
D17*
X69500000Y-57790000D03*
X69500000Y-56830000D03*
D31*
X89260000Y-41750000D03*
X88240000Y-41750000D03*
D12*
X63300000Y-47620000D03*
X63300000Y-48580000D03*
D29*
X61887500Y-55975000D03*
X61887500Y-56625000D03*
X61887500Y-57275000D03*
X61887500Y-57925000D03*
X61887500Y-58575000D03*
X61887500Y-59225000D03*
X61887500Y-59875000D03*
X61887500Y-60525000D03*
X67612500Y-60525000D03*
X67612500Y-59875000D03*
X67612500Y-59225000D03*
X67612500Y-58575000D03*
X67612500Y-57925000D03*
X67612500Y-57275000D03*
X67612500Y-56625000D03*
X67612500Y-55975000D03*
D30*
X64750000Y-58250000D03*
D32*
X79450000Y-67500000D03*
D33*
X81990000Y-67500000D03*
X84530000Y-67500000D03*
X87070000Y-67500000D03*
D17*
X64500000Y-49730000D03*
X64500000Y-48770000D03*
D34*
X66587500Y-45500000D03*
X66587500Y-46000000D03*
X66587500Y-46500000D03*
X66587500Y-47000000D03*
X66587500Y-47500000D03*
X66587500Y-48000000D03*
X66587500Y-48500000D03*
X66587500Y-49000000D03*
X66587500Y-49500000D03*
X66587500Y-50000000D03*
X66587500Y-50500000D03*
X66587500Y-51000000D03*
D35*
X68000000Y-52412500D03*
X68500000Y-52412500D03*
X69000000Y-52412500D03*
X69500000Y-52412500D03*
X70000000Y-52412500D03*
X70500000Y-52412500D03*
X71000000Y-52412500D03*
X71500000Y-52412500D03*
X72000000Y-52412500D03*
X72500000Y-52412500D03*
X73000000Y-52412500D03*
X73500000Y-52412500D03*
D34*
X74912500Y-51000000D03*
X74912500Y-50500000D03*
X74912500Y-50000000D03*
X74912500Y-49500000D03*
X74912500Y-49000000D03*
X74912500Y-48500000D03*
X74912500Y-48000000D03*
X74912500Y-47500000D03*
X74912500Y-47000000D03*
X74912500Y-46500000D03*
X74912500Y-46000000D03*
X74912500Y-45500000D03*
D35*
X73500000Y-44087500D03*
X73000000Y-44087500D03*
X72500000Y-44087500D03*
X72000000Y-44087500D03*
X71500000Y-44087500D03*
X71000000Y-44087500D03*
X70500000Y-44087500D03*
X70000000Y-44087500D03*
X69500000Y-44087500D03*
X69000000Y-44087500D03*
X68500000Y-44087500D03*
X68000000Y-44087500D03*
D19*
X73500000Y-66800000D03*
X73500000Y-65250000D03*
D36*
X57918750Y-36350000D03*
X57918750Y-32650000D03*
D21*
X53000000Y-40440000D03*
D22*
X53000000Y-42980000D03*
X53000000Y-45520000D03*
X53000000Y-48060000D03*
D31*
X83010000Y-41700000D03*
X81990000Y-41700000D03*
D14*
X86965000Y-44385000D03*
X87985000Y-44385000D03*
D27*
X83000000Y-36375000D03*
X89000000Y-36375000D03*
X83000000Y-40125000D03*
X89000000Y-40125000D03*
D15*
X67750000Y-41000000D03*
X68710000Y-41000000D03*
D37*
X64868750Y-32850000D03*
X66418750Y-32850000D03*
D16*
X59500000Y-59490000D03*
X59500000Y-60510000D03*
D38*
X85312500Y-53050000D03*
X85312500Y-54950000D03*
X87187500Y-54000000D03*
D32*
X79420000Y-33250000D03*
D33*
X81960000Y-33250000D03*
X84500000Y-33250000D03*
X87040000Y-33250000D03*
D16*
X68100000Y-36690000D03*
X68100000Y-37710000D03*
D11*
X81000000Y-59010000D03*
X81000000Y-57990000D03*
D16*
X83562500Y-54430000D03*
X83562500Y-55450000D03*
D39*
X60750000Y-44650000D03*
X60750000Y-48350000D03*
D40*
X59950000Y-41100000D03*
X82750000Y-62750000D03*
X61450000Y-41100000D03*
X82500000Y-55500000D03*
X76000000Y-36500000D03*
X74500000Y-63250000D03*
X77250000Y-33250000D03*
X68750000Y-48750000D03*
X92100000Y-42200000D03*
X87000000Y-41750000D03*
X73400000Y-57100000D03*
X69300000Y-67800000D03*
X73750000Y-64000000D03*
X69250000Y-62500000D03*
X69200000Y-60900000D03*
X85500000Y-56000000D03*
X75250000Y-56750000D03*
X91000000Y-43300000D03*
X61200000Y-35100000D03*
X62000000Y-34400000D03*
X69500000Y-55700000D03*
X58579949Y-60150000D03*
X69250000Y-37790000D03*
X62950000Y-41100000D03*
X85000000Y-46750000D03*
X69787500Y-35500000D03*
X58750000Y-67000000D03*
X84500000Y-56000000D03*
X79100000Y-45900000D03*
X91000000Y-42200000D03*
X85900000Y-44300000D03*
X80750000Y-37750000D03*
X75500000Y-63750000D03*
X72000000Y-50750000D03*
X63700000Y-43600000D03*
X83000000Y-56250000D03*
X68900000Y-40000000D03*
X92100000Y-43300000D03*
X58100000Y-57600000D03*
X56468750Y-34100000D03*
X68750000Y-50000000D03*
X69200000Y-34000000D03*
X57868750Y-34100000D03*
X78900000Y-44500000D03*
X73250000Y-50000000D03*
X67600000Y-40000000D03*
X85000000Y-48750000D03*
X59268750Y-34100000D03*
X70600000Y-37900000D03*
X65250000Y-45000000D03*
X68150000Y-33490000D03*
X57910000Y-64660000D03*
X60500000Y-61250000D03*
D41*
X54725000Y-41025000D03*
D40*
X88750000Y-56000000D03*
X88750000Y-52750000D03*
X89750000Y-59500000D03*
X89750000Y-53250000D03*
D41*
X54900000Y-46100000D03*
D40*
X62250000Y-61750000D03*
X80000000Y-39000000D03*
X77250000Y-39000000D03*
X63000000Y-54500000D03*
X59200000Y-54500000D03*
X71200000Y-54500000D03*
X58000000Y-59125000D03*
X70975000Y-55725000D03*
X59131715Y-63631716D03*
X58500000Y-65750000D03*
X71400000Y-56700000D03*
X63950000Y-53600000D03*
X60650000Y-53550000D03*
X64768415Y-52468415D03*
X61983578Y-52483578D03*
X57800000Y-63000000D03*
X68900000Y-54900000D03*
X79500000Y-41750000D03*
X75500000Y-41750000D03*
X62733578Y-51733578D03*
X65500000Y-51750000D03*
D42*
X68500000Y-49000000D02*
X66587500Y-49000000D01*
D43*
X64310000Y-48580000D02*
X64500000Y-48770000D01*
D42*
X68750000Y-42290000D02*
X68710000Y-42250000D01*
X68500000Y-44087500D02*
X68500000Y-43246880D01*
X74912500Y-46000000D02*
X76710000Y-46000000D01*
D43*
X82480000Y-63020000D02*
X82750000Y-62750000D01*
X67612500Y-60525000D02*
X68825000Y-60525000D01*
X68855000Y-67355000D02*
X69300000Y-67800000D01*
X79060000Y-45940000D02*
X79100000Y-45900000D01*
D42*
X60795000Y-66705000D02*
X60410000Y-67090000D01*
X61887500Y-59875000D02*
X60625000Y-59875000D01*
D43*
X68530588Y-56625000D02*
X67612500Y-56625000D01*
X59675000Y-39775000D02*
X59650000Y-39800000D01*
X70980000Y-35500000D02*
X69787500Y-35500000D01*
X63300000Y-48580000D02*
X64310000Y-48580000D01*
X81100000Y-63020000D02*
X82480000Y-63020000D01*
X68825000Y-60525000D02*
X69200000Y-60900000D01*
X69170000Y-37710000D02*
X69250000Y-37790000D01*
D42*
X73000000Y-52412500D02*
X73000000Y-54210000D01*
D43*
X78000000Y-45940000D02*
X76770000Y-45940000D01*
D42*
X73000000Y-51571880D02*
X73000000Y-52412500D01*
D43*
X73040000Y-55500000D02*
X73040000Y-54250000D01*
D42*
X65000000Y-48750000D02*
X64980000Y-48770000D01*
X69250000Y-62604999D02*
X69250000Y-62500000D01*
X76710000Y-46000000D02*
X76750000Y-45960000D01*
X72000000Y-50750000D02*
X72178120Y-50750000D01*
D43*
X68710000Y-41000000D02*
X68710000Y-42250000D01*
X86965000Y-44385000D02*
X85985000Y-44385000D01*
D42*
X58750000Y-67000000D02*
X58840000Y-67090000D01*
D43*
X84635000Y-47115000D02*
X85000000Y-46750000D01*
D42*
X63300000Y-44000000D02*
X63700000Y-43600000D01*
X68500000Y-43246880D02*
X68746880Y-43000000D01*
D43*
X67612500Y-67355000D02*
X68855000Y-67355000D01*
D42*
X74750000Y-36375000D02*
X74750000Y-37000000D01*
X59990000Y-60510000D02*
X59500000Y-60510000D01*
X68750000Y-48750000D02*
X68500000Y-49000000D01*
X60410000Y-67090000D02*
X59750000Y-67090000D01*
D43*
X78000000Y-45940000D02*
X79060000Y-45940000D01*
D42*
X60625000Y-59875000D02*
X59990000Y-60510000D01*
X72178120Y-50750000D02*
X73000000Y-51571880D01*
X68399999Y-63455000D02*
X69250000Y-62604999D01*
D43*
X81180000Y-47115000D02*
X81025000Y-47270000D01*
D42*
X63300000Y-44540000D02*
X63300000Y-44000000D01*
X68746880Y-43000000D02*
X68750000Y-43000000D01*
X73000000Y-54210000D02*
X73040000Y-54250000D01*
X64980000Y-48770000D02*
X64500000Y-48770000D01*
D43*
X85985000Y-44385000D02*
X85900000Y-44300000D01*
X83025000Y-47115000D02*
X84635000Y-47115000D01*
D42*
X58840000Y-67090000D02*
X59750000Y-67090000D01*
D43*
X68100000Y-37710000D02*
X69170000Y-37710000D01*
D42*
X75875000Y-36375000D02*
X76000000Y-36500000D01*
X67612500Y-63455000D02*
X68399999Y-63455000D01*
X61887500Y-66705000D02*
X60795000Y-66705000D01*
D43*
X68710000Y-40190000D02*
X68900000Y-40000000D01*
D42*
X74750000Y-37000000D02*
X73980000Y-37770000D01*
X80750000Y-36375000D02*
X80750000Y-37750000D01*
X66587500Y-49000000D02*
X65250000Y-49000000D01*
D43*
X69455588Y-55700000D02*
X68530588Y-56625000D01*
D42*
X68750000Y-43000000D02*
X68750000Y-42290000D01*
D43*
X83025000Y-47115000D02*
X81180000Y-47115000D01*
D42*
X58939949Y-60510000D02*
X59500000Y-60510000D01*
D43*
X68710000Y-41000000D02*
X68710000Y-40190000D01*
D42*
X58579949Y-60150000D02*
X58939949Y-60510000D01*
X74750000Y-36375000D02*
X75875000Y-36375000D01*
X88240000Y-41750000D02*
X87000000Y-41750000D01*
D43*
X63481250Y-32862500D02*
X63268750Y-32650000D01*
D42*
X73980000Y-37770000D02*
X73250000Y-37770000D01*
D43*
X76770000Y-45940000D02*
X76750000Y-45960000D01*
D42*
X65250000Y-49000000D02*
X65000000Y-48750000D01*
D43*
X79420000Y-33250000D02*
X77250000Y-33250000D01*
X69500000Y-55700000D02*
X69455588Y-55700000D01*
X51880000Y-42980000D02*
X53000000Y-42980000D01*
X69975000Y-59225000D02*
X70550000Y-59800000D01*
X53000000Y-62080000D02*
X52180000Y-62080000D01*
X51000000Y-49000000D02*
X51940000Y-48060000D01*
X53000000Y-48060000D02*
X50900000Y-45960000D01*
X51000000Y-56414213D02*
X51000000Y-49000000D01*
X71250000Y-59800000D02*
X74750000Y-59800000D01*
X50900000Y-44000000D02*
X51920000Y-42980000D01*
X77000000Y-62050000D02*
X77000000Y-69500000D01*
X65756250Y-35550000D02*
X65133699Y-35550000D01*
X53000000Y-57000000D02*
X51585787Y-57000000D01*
D44*
X93850000Y-40190000D02*
X95190000Y-40190000D01*
D43*
X93850000Y-54170000D02*
X94870000Y-54170000D01*
X73500000Y-69500000D02*
X71750000Y-69500000D01*
X96100000Y-63200000D02*
X89800000Y-69500000D01*
D44*
X52750000Y-57000000D02*
X53000000Y-57000000D01*
X96400000Y-41400000D02*
X96400000Y-53200000D01*
D43*
X54220000Y-42980000D02*
X58950000Y-38250000D01*
X52200000Y-57000000D02*
X53000000Y-57000000D01*
X67612500Y-59225000D02*
X69975000Y-59225000D01*
X50900000Y-45960000D02*
X50900000Y-44000000D01*
X75350000Y-66800000D02*
X75500000Y-66950000D01*
X51920000Y-42980000D02*
X53000000Y-42980000D01*
X52180000Y-62080000D02*
X51000000Y-60900000D01*
X74750000Y-59800000D02*
X74900000Y-59950000D01*
D44*
X96400000Y-53200000D02*
X95430000Y-54170000D01*
D43*
X65133699Y-35550000D02*
X64183699Y-36500000D01*
X58950000Y-38250000D02*
X59650000Y-38250000D01*
X71050000Y-66800000D02*
X71750000Y-66800000D01*
X67612500Y-66055000D02*
X70305000Y-66055000D01*
D44*
X95190000Y-40190000D02*
X96400000Y-41400000D01*
D43*
X51940000Y-48060000D02*
X53000000Y-48060000D01*
X51000000Y-60900000D02*
X51000000Y-58200000D01*
X51585787Y-57000000D02*
X51000000Y-56414213D01*
D44*
X95430000Y-54170000D02*
X93850000Y-54170000D01*
D43*
X89800000Y-69500000D02*
X77000000Y-69500000D01*
X96100000Y-55400000D02*
X96100000Y-63200000D01*
X74900000Y-59950000D02*
X77000000Y-62050000D01*
X53000000Y-42980000D02*
X54220000Y-42980000D01*
X63462500Y-38012500D02*
X63250000Y-38225000D01*
X75250000Y-69500000D02*
X73500000Y-69500000D01*
X70550000Y-59800000D02*
X71250000Y-59800000D01*
X53000000Y-64750000D02*
X53000000Y-62080000D01*
X64183699Y-36500000D02*
X63481250Y-36500000D01*
X71750000Y-69500000D02*
X57750000Y-69500000D01*
X51000000Y-58200000D02*
X52200000Y-57000000D01*
X77000000Y-69500000D02*
X75250000Y-69500000D01*
X57750000Y-69500000D02*
X53000000Y-64750000D01*
X94870000Y-54170000D02*
X96100000Y-55400000D01*
X70305000Y-66055000D02*
X71050000Y-66800000D01*
X63225000Y-38250000D02*
X63250000Y-38225000D01*
X76770000Y-44980000D02*
X76750000Y-45000000D01*
D42*
X74000000Y-53750000D02*
X74000000Y-54250000D01*
X65000000Y-49750000D02*
X64980000Y-49730000D01*
X76250000Y-45000000D02*
X76750000Y-45000000D01*
X73500000Y-52412500D02*
X73500000Y-53250000D01*
X68250000Y-49500000D02*
X66587500Y-49500000D01*
X60950001Y-58725000D02*
X59715000Y-58725000D01*
X66587500Y-45500000D02*
X65750000Y-45500000D01*
X73500000Y-53250000D02*
X74000000Y-53750000D01*
X59735000Y-65405000D02*
X58990000Y-64660000D01*
D43*
X83025000Y-48385000D02*
X84635000Y-48385000D01*
D42*
X73500000Y-50250000D02*
X73250000Y-50000000D01*
X58500000Y-58000000D02*
X58100000Y-57600000D01*
X59715000Y-58725000D02*
X58990000Y-58000000D01*
X61887500Y-65405000D02*
X59735000Y-65405000D01*
X89000000Y-35210000D02*
X87040000Y-33250000D01*
D43*
X78420000Y-44980000D02*
X78900000Y-44500000D01*
X71750000Y-37740000D02*
X70760000Y-37740000D01*
X68100000Y-34580000D02*
X68100000Y-33540000D01*
D42*
X73500000Y-52412500D02*
X73500000Y-50250000D01*
X75750000Y-45500000D02*
X76250000Y-45000000D01*
X68750000Y-50000000D02*
X68250000Y-49500000D01*
X67750000Y-43000000D02*
X67750000Y-42250000D01*
D43*
X74000000Y-55500000D02*
X74000000Y-54250000D01*
D42*
X65750000Y-45500000D02*
X65250000Y-45000000D01*
D43*
X67750000Y-40150000D02*
X67600000Y-40000000D01*
X78000000Y-44980000D02*
X76770000Y-44980000D01*
D42*
X64980000Y-49730000D02*
X64500000Y-49730000D01*
D43*
X67750000Y-41000000D02*
X67750000Y-42250000D01*
X68100000Y-33540000D02*
X68150000Y-33490000D01*
X83025000Y-48385000D02*
X81180000Y-48385000D01*
D42*
X83000000Y-36375000D02*
X83915000Y-36375000D01*
X66587500Y-49500000D02*
X65250000Y-49500000D01*
X83915000Y-36375000D02*
X87040000Y-33250000D01*
X65250000Y-49500000D02*
X65000000Y-49750000D01*
D43*
X67750000Y-41000000D02*
X67750000Y-40150000D01*
D42*
X57910000Y-64660000D02*
X58990000Y-64660000D01*
D43*
X70500000Y-34000000D02*
X69200000Y-34000000D01*
D42*
X74912500Y-45500000D02*
X75750000Y-45500000D01*
D43*
X84635000Y-48385000D02*
X85000000Y-48750000D01*
X81180000Y-48385000D02*
X81025000Y-48230000D01*
X70760000Y-37740000D02*
X70600000Y-37900000D01*
D42*
X61887500Y-58575000D02*
X61100001Y-58575000D01*
X58990000Y-58000000D02*
X58500000Y-58000000D01*
X68000000Y-44087500D02*
X68000000Y-43250000D01*
X68000000Y-43250000D02*
X67750000Y-43000000D01*
X89000000Y-36375000D02*
X89000000Y-35210000D01*
D43*
X78000000Y-44980000D02*
X78420000Y-44980000D01*
D42*
X61100001Y-58575000D02*
X60950001Y-58725000D01*
X61600000Y-45500000D02*
X60750000Y-44650000D01*
X66587500Y-47500000D02*
X65507106Y-47500000D01*
X63300000Y-45500000D02*
X61600000Y-45500000D01*
X63507106Y-45500000D02*
X63300000Y-45500000D01*
X65507106Y-47500000D02*
X63507106Y-45500000D01*
X64800000Y-48000000D02*
X64420000Y-47620000D01*
X63300000Y-47620000D02*
X61480000Y-47620000D01*
X66587500Y-48000000D02*
X64800000Y-48000000D01*
X61480000Y-47620000D02*
X60750000Y-48350000D01*
X64420000Y-47620000D02*
X63300000Y-47620000D01*
D43*
X61918750Y-36350000D02*
X57918750Y-36350000D01*
X64143749Y-35550000D02*
X63481250Y-35550000D01*
X62718750Y-35550000D02*
X61918750Y-36350000D01*
X64643750Y-33075000D02*
X64643750Y-35049999D01*
X64868750Y-32850000D02*
X64643750Y-33075000D01*
X63481250Y-35550000D02*
X62718750Y-35550000D01*
X64643750Y-35049999D02*
X64143749Y-35550000D01*
X66418750Y-33937500D02*
X66418750Y-32850000D01*
X65756250Y-34600000D02*
X66418750Y-33937500D01*
D42*
X68895000Y-64105000D02*
X69320000Y-63680000D01*
X67612500Y-64105000D02*
X68895000Y-64105000D01*
X69320000Y-63680000D02*
X69500000Y-63680000D01*
X69385000Y-64755000D02*
X69500000Y-64640000D01*
X67612500Y-64755000D02*
X69385000Y-64755000D01*
X70500000Y-65250000D02*
X71750000Y-65250000D01*
X67612500Y-65405000D02*
X70345000Y-65405000D01*
X70345000Y-65405000D02*
X70500000Y-65250000D01*
X78250000Y-36000000D02*
X79750000Y-34500000D01*
X81500000Y-34500000D02*
X81960000Y-34040000D01*
X75750000Y-43000000D02*
X78250000Y-40500000D01*
X81960000Y-34040000D02*
X81960000Y-33250000D01*
X79750000Y-34500000D02*
X81500000Y-34500000D01*
X73500000Y-44087500D02*
X74587500Y-43000000D01*
X74587500Y-43000000D02*
X75750000Y-43000000D01*
X78250000Y-40500000D02*
X78250000Y-36000000D01*
X80000000Y-35250000D02*
X82500000Y-35250000D01*
X74912500Y-46500000D02*
X74071880Y-46500000D01*
X76000000Y-44000000D02*
X79000000Y-41000000D01*
X79000000Y-41000000D02*
X79000000Y-36250000D01*
X82500000Y-35250000D02*
X84500000Y-33250000D01*
X73825000Y-45210940D02*
X75035940Y-44000000D01*
X79000000Y-36250000D02*
X80000000Y-35250000D01*
X74071880Y-46500000D02*
X73825000Y-46253120D01*
X73825000Y-46253120D02*
X73825000Y-45210940D01*
X75035940Y-44000000D02*
X76000000Y-44000000D01*
X54725000Y-41025000D02*
X54140000Y-40440000D01*
X60500000Y-61250000D02*
X61225000Y-60525000D01*
X61225000Y-60525000D02*
X61887500Y-60525000D01*
X54140000Y-40440000D02*
X53000000Y-40440000D01*
D43*
X93330000Y-58730000D02*
X93850000Y-59250000D01*
X88750000Y-56692500D02*
X87462500Y-57980000D01*
X88250000Y-51750000D02*
X88750000Y-52250000D01*
X88750000Y-52250000D02*
X88750000Y-52750000D01*
X86885000Y-47115000D02*
X86250000Y-47750000D01*
X87975000Y-47115000D02*
X86885000Y-47115000D01*
X87975000Y-47115000D02*
X90135000Y-47115000D01*
X87250000Y-51500000D02*
X87500000Y-51750000D01*
X88750000Y-56000000D02*
X88750000Y-56692500D01*
X88750000Y-56692500D02*
X91307500Y-59250000D01*
X86250000Y-47750000D02*
X86250000Y-50500000D01*
X87500000Y-51750000D02*
X88250000Y-51750000D01*
X86250000Y-50500000D02*
X87250000Y-51500000D01*
X90135000Y-47115000D02*
X91980000Y-45270000D01*
X91307500Y-59250000D02*
X93850000Y-59250000D01*
X91980000Y-45270000D02*
X93850000Y-45270000D01*
X89750000Y-60500000D02*
X89750000Y-60670000D01*
X89750000Y-60670000D02*
X87400000Y-63020000D01*
X89750000Y-59500000D02*
X89750000Y-60500000D01*
X93810000Y-61750000D02*
X93850000Y-61790000D01*
X89750000Y-49250000D02*
X89750000Y-53250000D01*
X93275000Y-48385000D02*
X93850000Y-47810000D01*
X91040000Y-61790000D02*
X93850000Y-61790000D01*
X88885000Y-48385000D02*
X89750000Y-49250000D01*
X87975000Y-48385000D02*
X88885000Y-48385000D01*
X89750000Y-60500000D02*
X91040000Y-61790000D01*
X87975000Y-48385000D02*
X93275000Y-48385000D01*
D42*
X53020000Y-45500000D02*
X53000000Y-45520000D01*
X54900000Y-46100000D02*
X54320000Y-45520000D01*
X70250000Y-60500000D02*
X69625000Y-59875000D01*
X70250000Y-61750000D02*
X70250000Y-60500000D01*
X62250000Y-61750000D02*
X70250000Y-61750000D01*
X53000000Y-45739950D02*
X53000000Y-45520000D01*
X69625000Y-59875000D02*
X67612500Y-59875000D01*
X54320000Y-45520000D02*
X53000000Y-45520000D01*
X55250000Y-64750000D02*
X55250000Y-55150000D01*
X58500000Y-68000000D02*
X55250000Y-64750000D01*
X61242500Y-68000000D02*
X58500000Y-68000000D01*
X55250000Y-55150000D02*
X54560000Y-54460000D01*
X54560000Y-54460000D02*
X53000000Y-54460000D01*
X61887500Y-67355000D02*
X61242500Y-68000000D01*
X70500000Y-67500000D02*
X70500000Y-68250000D01*
X70050000Y-68700000D02*
X58200000Y-68700000D01*
X58200000Y-68700000D02*
X54530025Y-65030025D01*
X69705000Y-66705000D02*
X70500000Y-67500000D01*
X67612500Y-66705000D02*
X69705000Y-66705000D01*
X54530025Y-60530025D02*
X53540000Y-59540000D01*
X53540000Y-59540000D02*
X53000000Y-59540000D01*
X70500000Y-68250000D02*
X70050000Y-68700000D01*
X54530025Y-65030025D02*
X54530025Y-60530025D01*
X74750000Y-40125000D02*
X74750000Y-39500000D01*
X67750000Y-48178120D02*
X67750000Y-45250000D01*
X66587500Y-48500000D02*
X67428120Y-48500000D01*
X80750000Y-40125000D02*
X80750000Y-39750000D01*
X67000000Y-39100000D02*
X69600000Y-39100000D01*
X69600000Y-39100000D02*
X70625000Y-40125000D01*
X77250000Y-39000000D02*
X75875000Y-39000000D01*
X74010000Y-38760000D02*
X71750000Y-38760000D01*
X75875000Y-39000000D02*
X74750000Y-40125000D01*
X66400000Y-39700000D02*
X67000000Y-39100000D01*
X74750000Y-39500000D02*
X74010000Y-38760000D01*
X70625000Y-40125000D02*
X74750000Y-40125000D01*
X80750000Y-39750000D02*
X80000000Y-39000000D01*
X66400000Y-43900000D02*
X66400000Y-39700000D01*
X67428120Y-48500000D02*
X67750000Y-48178120D01*
X67750000Y-45250000D02*
X66400000Y-43900000D01*
D43*
X81100000Y-59110000D02*
X81000000Y-59010000D01*
X81100000Y-60480000D02*
X81100000Y-59110000D01*
D42*
X67612500Y-57925000D02*
X69365000Y-57925000D01*
X69365000Y-57925000D02*
X69500000Y-57790000D01*
D43*
X84537500Y-57980000D02*
X84537500Y-59037500D01*
X84537500Y-59037500D02*
X85980000Y-60480000D01*
X85980000Y-60480000D02*
X87400000Y-60480000D01*
D42*
X76407106Y-49000000D02*
X81000000Y-53592894D01*
X81000000Y-53592894D02*
X81000000Y-57990000D01*
X74912500Y-49000000D02*
X76407106Y-49000000D01*
X69000000Y-53460227D02*
X69000000Y-52412500D01*
X60085000Y-57925000D02*
X60010000Y-58000000D01*
X63000000Y-54500000D02*
X67960227Y-54500000D01*
X59200000Y-56450000D02*
X60010000Y-57260000D01*
X60010000Y-57260000D02*
X60010000Y-58000000D01*
X67960227Y-54500000D02*
X69000000Y-53460227D01*
X61887500Y-57925000D02*
X60085000Y-57925000D01*
X59200000Y-54500000D02*
X59200000Y-56450000D01*
X61887500Y-59225000D02*
X59765000Y-59225000D01*
X59765000Y-59225000D02*
X59500000Y-59490000D01*
X59500000Y-59490000D02*
X59260000Y-59250000D01*
X70500000Y-53800000D02*
X70500000Y-52412500D01*
X58125000Y-59250000D02*
X58000000Y-59125000D01*
X59260000Y-59250000D02*
X58125000Y-59250000D01*
X71200000Y-54500000D02*
X70500000Y-53800000D01*
X70975000Y-55725000D02*
X70000000Y-54750000D01*
X59131716Y-63631716D02*
X60010000Y-64510000D01*
X59131715Y-63631716D02*
X59131716Y-63631716D01*
X60010000Y-64510000D02*
X60010000Y-64660000D01*
X61887500Y-64755000D02*
X60105000Y-64755000D01*
X60105000Y-64755000D02*
X60010000Y-64660000D01*
X70000000Y-54750000D02*
X70000000Y-52412500D01*
X71400000Y-56700000D02*
X72000000Y-56100000D01*
X71246880Y-53500000D02*
X71000000Y-53253120D01*
X72000000Y-56100000D02*
X72000000Y-54000000D01*
X72000000Y-54000000D02*
X71500000Y-53500000D01*
X59765000Y-66055000D02*
X59750000Y-66070000D01*
X71500000Y-53500000D02*
X71246880Y-53500000D01*
X61887500Y-66055000D02*
X59765000Y-66055000D01*
X58500000Y-65750000D02*
X58820000Y-66070000D01*
X71000000Y-53253120D02*
X71000000Y-52412500D01*
X58820000Y-66070000D02*
X59750000Y-66070000D01*
X76614212Y-48500000D02*
X81564212Y-53450000D01*
D43*
X83562500Y-54430000D02*
X83562500Y-53450000D01*
D42*
X74912500Y-48500000D02*
X76614212Y-48500000D01*
X81564212Y-53450000D02*
X83562500Y-53450000D01*
X61887500Y-54359380D02*
X61887500Y-55975000D01*
X65746880Y-50500000D02*
X61887500Y-54359380D01*
X66587500Y-50500000D02*
X65746880Y-50500000D01*
D43*
X87975000Y-45845000D02*
X87975000Y-44395000D01*
X87975000Y-44395000D02*
X87985000Y-44385000D01*
D42*
X83000000Y-40125000D02*
X89000000Y-40125000D01*
X83000000Y-41690000D02*
X83010000Y-41700000D01*
X89260000Y-41750000D02*
X89260000Y-40385000D01*
X89260000Y-40385000D02*
X89000000Y-40125000D01*
X83000000Y-40125000D02*
X83000000Y-41690000D01*
X63950000Y-53600000D02*
X68153120Y-53600000D01*
X61042894Y-57275000D02*
X61887500Y-57275000D01*
X68153120Y-53600000D02*
X68500000Y-53253120D01*
X60650000Y-53550000D02*
X60250000Y-53950000D01*
X60250000Y-53950000D02*
X60250000Y-56482106D01*
X60250000Y-56482106D02*
X61042894Y-57275000D01*
X68500000Y-53253120D02*
X68500000Y-52412500D01*
X64768415Y-52468415D02*
X64800000Y-52500000D01*
X61983578Y-52483578D02*
X59016422Y-52483578D01*
X56750000Y-54750000D02*
X56750000Y-59850000D01*
X59662938Y-61500000D02*
X60967938Y-62805000D01*
X67912500Y-52500000D02*
X68000000Y-52412500D01*
X58400000Y-61500000D02*
X59662938Y-61500000D01*
X56750000Y-59850000D02*
X58400000Y-61500000D01*
X59016422Y-52483578D02*
X56750000Y-54750000D01*
X60967938Y-62805000D02*
X61887500Y-62805000D01*
X64800000Y-52500000D02*
X67912500Y-52500000D01*
X80905000Y-49655000D02*
X83025000Y-49655000D01*
X74912500Y-47500000D02*
X78750000Y-47500000D01*
X78750000Y-47500000D02*
X80905000Y-49655000D01*
X60853726Y-64105000D02*
X61887500Y-64105000D01*
X57800000Y-63000000D02*
X57868284Y-62931716D01*
X69500000Y-54300000D02*
X69500000Y-52412500D01*
X68900000Y-54900000D02*
X69500000Y-54300000D01*
X59680442Y-62931716D02*
X60853726Y-64105000D01*
X57868284Y-62931716D02*
X59680442Y-62931716D01*
X79550000Y-41700000D02*
X79500000Y-41750000D01*
X70000000Y-43246880D02*
X70000000Y-44087500D01*
X75500000Y-41750000D02*
X71496880Y-41750000D01*
X81990000Y-41700000D02*
X79550000Y-41700000D01*
X71496880Y-41750000D02*
X70000000Y-43246880D01*
X65457106Y-50000000D02*
X60750000Y-54707106D01*
X66587500Y-50000000D02*
X65457106Y-50000000D01*
X61100001Y-56625000D02*
X61887500Y-56625000D01*
X60750000Y-56274999D02*
X61100001Y-56625000D01*
X60750000Y-54707106D02*
X60750000Y-56274999D01*
X77700000Y-65500000D02*
X79450000Y-67250000D01*
X75544454Y-51000000D02*
X77700000Y-53155546D01*
X77700000Y-53155546D02*
X77700000Y-65500000D01*
X74912500Y-51000000D02*
X75544454Y-51000000D01*
X79450000Y-67250000D02*
X79450000Y-67500000D01*
X79000000Y-66000000D02*
X80500000Y-66000000D01*
X75753120Y-50500000D02*
X76000000Y-50746880D01*
X81990000Y-67490000D02*
X81990000Y-67500000D01*
X80500000Y-66000000D02*
X81990000Y-67490000D01*
X78250000Y-65250000D02*
X79000000Y-66000000D01*
X76000000Y-50748440D02*
X78250000Y-52998440D01*
X78250000Y-52998440D02*
X78250000Y-65250000D01*
X74912500Y-50500000D02*
X75753120Y-50500000D01*
X76000000Y-50746880D02*
X76000000Y-50748440D01*
X74912500Y-47000000D02*
X79500000Y-47000000D01*
X80655000Y-45845000D02*
X83025000Y-45845000D01*
X79500000Y-47000000D02*
X80655000Y-45845000D01*
X66250000Y-51000000D02*
X66587500Y-51000000D01*
X56250000Y-54500000D02*
X56250000Y-60250000D01*
X65500000Y-51750000D02*
X66250000Y-51000000D01*
X62733578Y-51733578D02*
X59016422Y-51733578D01*
X58200000Y-62200000D02*
X59655832Y-62200000D01*
X59016422Y-51733578D02*
X56250000Y-54500000D01*
X56250000Y-60250000D02*
X58200000Y-62200000D01*
X60910832Y-63455000D02*
X61887500Y-63455000D01*
X59655832Y-62200000D02*
X60910832Y-63455000D01*
X84535000Y-65000000D02*
X87035000Y-67500000D01*
X79250000Y-52550000D02*
X79250000Y-64750000D01*
X79250000Y-64750000D02*
X79500000Y-65000000D01*
X76200000Y-49500000D02*
X79250000Y-52550000D01*
X74912500Y-49500000D02*
X76200000Y-49500000D01*
X87035000Y-67500000D02*
X87070000Y-67500000D01*
X79500000Y-65000000D02*
X84535000Y-65000000D01*
X75960226Y-50000000D02*
X78750000Y-52789774D01*
X78750000Y-52789774D02*
X78750000Y-65000000D01*
X78750000Y-65000000D02*
X79250000Y-65500000D01*
X84390000Y-67500000D02*
X84530000Y-67500000D01*
X79250000Y-65500000D02*
X82390000Y-65500000D01*
X82390000Y-65500000D02*
X84390000Y-67500000D01*
X74912500Y-50000000D02*
X75960226Y-50000000D01*
D43*
X72075000Y-34000000D02*
X72075000Y-35425000D01*
X72075000Y-35425000D02*
X72000000Y-35500000D01*
D42*
X69453154Y-56830000D02*
X69500000Y-56830000D01*
X69008154Y-57275000D02*
X69453154Y-56830000D01*
X67612500Y-57275000D02*
X69008154Y-57275000D01*
X70175000Y-58575000D02*
X70500000Y-58250000D01*
X70500000Y-58250000D02*
X71250000Y-58250000D01*
X67612500Y-58575000D02*
X70175000Y-58575000D01*
D43*
X67390000Y-36690000D02*
X68100000Y-36690000D01*
X68100000Y-36690000D02*
X68100000Y-35600000D01*
X67200000Y-36500000D02*
X67390000Y-36690000D01*
X65756250Y-36500000D02*
X67200000Y-36500000D01*
%TA.AperFunction,Conductor*%
G36*
X63665677Y-39219685D02*
G01*
X63686319Y-39236319D01*
X64113681Y-39663681D01*
X64147166Y-39725004D01*
X64150000Y-39751362D01*
X64150000Y-41336187D01*
X64130315Y-41403226D01*
X64098074Y-41437090D01*
X63482336Y-41876903D01*
X63416342Y-41899851D01*
X63410262Y-41900000D01*
X59401362Y-41900000D01*
X59334323Y-41880315D01*
X59313681Y-41863681D01*
X58886319Y-41436319D01*
X58852834Y-41374996D01*
X58850000Y-41348638D01*
X58850000Y-39751362D01*
X58869685Y-39684323D01*
X58886319Y-39663681D01*
X59313681Y-39236319D01*
X59375004Y-39202834D01*
X59401362Y-39200000D01*
X63598638Y-39200000D01*
X63665677Y-39219685D01*
G37*
%TD.AperFunction*%
%TA.AperFunction,Conductor*%
G36*
X85815677Y-51619685D02*
G01*
X85836319Y-51636319D01*
X86063681Y-51863681D01*
X86097166Y-51925004D01*
X86100000Y-51951362D01*
X86100000Y-53476000D01*
X86080315Y-53543039D01*
X86027511Y-53588794D01*
X85976000Y-53600000D01*
X84476636Y-53600000D01*
X84409597Y-53580315D01*
X84365727Y-53531454D01*
X84000001Y-52800001D01*
X84000000Y-52800000D01*
X83999999Y-52800000D01*
X83151362Y-52800000D01*
X83084323Y-52780315D01*
X83063681Y-52763681D01*
X82836319Y-52536319D01*
X82802834Y-52474996D01*
X82800000Y-52448638D01*
X82800000Y-51951362D01*
X82819685Y-51884323D01*
X82836319Y-51863681D01*
X83063681Y-51636319D01*
X83125004Y-51602834D01*
X83151362Y-51600000D01*
X85748638Y-51600000D01*
X85815677Y-51619685D01*
G37*
%TD.AperFunction*%
%TA.AperFunction,Conductor*%
G36*
X61784427Y-31919685D02*
G01*
X61805069Y-31936319D01*
X62032431Y-32163681D01*
X62065916Y-32225004D01*
X62068750Y-32251362D01*
X62068750Y-33048638D01*
X62049065Y-33115677D01*
X62032431Y-33136319D01*
X61805069Y-33363681D01*
X61743746Y-33397166D01*
X61717388Y-33400000D01*
X60868750Y-33400000D01*
X60868749Y-33400000D01*
X60868749Y-33400001D01*
X59905175Y-34941720D01*
X59852951Y-34988136D01*
X59800023Y-35000000D01*
X56025782Y-35000000D01*
X55958743Y-34980315D01*
X55931634Y-34956698D01*
X55398602Y-34334827D01*
X55369919Y-34271116D01*
X55368750Y-34254129D01*
X55368750Y-32656268D01*
X55388435Y-32589229D01*
X55411095Y-32562948D01*
X56127243Y-31936319D01*
X56133687Y-31930679D01*
X56197102Y-31901349D01*
X56215342Y-31900000D01*
X61717388Y-31900000D01*
X61784427Y-31919685D01*
G37*
%TD.AperFunction*%
%TA.AperFunction,Conductor*%
G36*
X94329495Y-41619685D02*
G01*
X94331239Y-41620826D01*
X94844784Y-41963189D01*
X94889644Y-42016753D01*
X94900000Y-42066362D01*
X94900000Y-43341921D01*
X94880315Y-43408960D01*
X94855383Y-43437180D01*
X94334489Y-43871259D01*
X94270386Y-43899055D01*
X94255106Y-43900000D01*
X90651362Y-43900000D01*
X90584323Y-43880315D01*
X90563681Y-43863681D01*
X90136319Y-43436319D01*
X90102834Y-43374996D01*
X90100000Y-43348638D01*
X90100000Y-42151362D01*
X90119685Y-42084323D01*
X90136319Y-42063681D01*
X90563681Y-41636319D01*
X90625004Y-41602834D01*
X90651362Y-41600000D01*
X94262456Y-41600000D01*
X94329495Y-41619685D01*
G37*
%TD.AperFunction*%
%TA.AperFunction,Conductor*%
G36*
X75765677Y-66269685D02*
G01*
X75786319Y-66286319D01*
X76213681Y-66713681D01*
X76247166Y-66775004D01*
X76250000Y-66801362D01*
X76250000Y-69626000D01*
X76230315Y-69693039D01*
X76177511Y-69738794D01*
X76126000Y-69750000D01*
X71374000Y-69750000D01*
X71306961Y-69730315D01*
X71261206Y-69677511D01*
X71250000Y-69626000D01*
X71250000Y-66374000D01*
X71269685Y-66306961D01*
X71322489Y-66261206D01*
X71374000Y-66250000D01*
X75698638Y-66250000D01*
X75765677Y-66269685D01*
G37*
%TD.AperFunction*%
%TA.AperFunction,Conductor*%
G36*
X87943039Y-52719685D02*
G01*
X87988794Y-52772489D01*
X88000000Y-52824000D01*
X88000000Y-53200000D01*
X89314759Y-53742599D01*
X89349671Y-53764398D01*
X89377760Y-53789283D01*
X89377762Y-53789284D01*
X89377766Y-53789287D01*
X89517634Y-53862696D01*
X89671014Y-53900500D01*
X89672785Y-53900500D01*
X89675583Y-53901054D01*
X89678460Y-53901404D01*
X89678433Y-53901619D01*
X89720089Y-53909878D01*
X94252574Y-55780427D01*
X94307035Y-55824197D01*
X94319732Y-55847357D01*
X94758275Y-56899861D01*
X94765889Y-56969314D01*
X94734744Y-57031859D01*
X94706293Y-57054662D01*
X93660434Y-57664746D01*
X93592608Y-57681522D01*
X93538576Y-57666496D01*
X92375075Y-57031859D01*
X89200000Y-55300000D01*
X89199999Y-55300000D01*
X86924000Y-55300000D01*
X86856961Y-55280315D01*
X86811206Y-55227511D01*
X86800000Y-55176000D01*
X86800000Y-54600000D01*
X86436319Y-54236319D01*
X86402834Y-54174996D01*
X86400000Y-54148638D01*
X86400000Y-53523121D01*
X86401262Y-53505474D01*
X86405500Y-53476000D01*
X86405500Y-52824000D01*
X86425185Y-52756961D01*
X86477989Y-52711206D01*
X86529500Y-52700000D01*
X87876000Y-52700000D01*
X87943039Y-52719685D01*
G37*
%TD.AperFunction*%
%TA.AperFunction,Conductor*%
G36*
X75525706Y-55919685D02*
G01*
X75533062Y-55924796D01*
X76033333Y-56300000D01*
X76250400Y-56462800D01*
X76292221Y-56518771D01*
X76300000Y-56562000D01*
X76300000Y-58181273D01*
X76280315Y-58248312D01*
X76241720Y-58286425D01*
X75615983Y-58677511D01*
X75530157Y-58731152D01*
X75464437Y-58750000D01*
X72624000Y-58750000D01*
X72556961Y-58730315D01*
X72511206Y-58677511D01*
X72500000Y-58626000D01*
X72500000Y-57051362D01*
X72519685Y-56984323D01*
X72536319Y-56963681D01*
X73163681Y-56336319D01*
X73225004Y-56302834D01*
X73251362Y-56300000D01*
X74400000Y-56300000D01*
X74866035Y-55927172D01*
X74930681Y-55900664D01*
X74943497Y-55900000D01*
X75458667Y-55900000D01*
X75525706Y-55919685D01*
G37*
%TD.AperFunction*%
%TA.AperFunction,Conductor*%
G36*
X75750676Y-62519685D02*
G01*
X75786811Y-62555217D01*
X76229174Y-63218761D01*
X76249982Y-63285460D01*
X76250000Y-63287544D01*
X76250000Y-65198638D01*
X76230315Y-65265677D01*
X76213681Y-65286319D01*
X75786319Y-65713681D01*
X75724996Y-65747166D01*
X75698638Y-65750000D01*
X73124000Y-65750000D01*
X73056961Y-65730315D01*
X73011206Y-65677511D01*
X73000000Y-65626000D01*
X73000000Y-63051362D01*
X73019685Y-62984323D01*
X73036319Y-62963681D01*
X73463681Y-62536319D01*
X73525004Y-62502834D01*
X73551362Y-62500000D01*
X75683637Y-62500000D01*
X75750676Y-62519685D01*
G37*
%TD.AperFunction*%
%TA.AperFunction,Conductor*%
G36*
X64065677Y-36219685D02*
G01*
X64086319Y-36236319D01*
X64413681Y-36563681D01*
X64447166Y-36625004D01*
X64450000Y-36651362D01*
X64450000Y-38231273D01*
X64430315Y-38298312D01*
X64391720Y-38336425D01*
X63708111Y-38763681D01*
X63680157Y-38781152D01*
X63614437Y-38800000D01*
X59401362Y-38800000D01*
X59334323Y-38780315D01*
X59313681Y-38763681D01*
X59086319Y-38536319D01*
X59052834Y-38474996D01*
X59050000Y-38448638D01*
X59050000Y-38041333D01*
X59069685Y-37974294D01*
X59074800Y-37966933D01*
X59312800Y-37649600D01*
X59368771Y-37607779D01*
X59412000Y-37600000D01*
X61749999Y-37600000D01*
X61750000Y-37600000D01*
X62912884Y-36243302D01*
X62971459Y-36205212D01*
X63007032Y-36200000D01*
X63998638Y-36200000D01*
X64065677Y-36219685D01*
G37*
%TD.AperFunction*%
%TA.AperFunction,Conductor*%
G36*
X85769100Y-54269685D02*
G01*
X85785470Y-54282245D01*
X86259412Y-54713102D01*
X86295775Y-54772761D01*
X86300000Y-54804853D01*
X86300000Y-55972765D01*
X86288587Y-56024728D01*
X86033248Y-56577963D01*
X85987282Y-56630583D01*
X85920661Y-56650000D01*
X83650000Y-56650000D01*
X83166997Y-56957366D01*
X83130464Y-56980614D01*
X83063891Y-57000000D01*
X82706498Y-57000000D01*
X82639459Y-56980315D01*
X82612927Y-56957366D01*
X81688350Y-55894102D01*
X81659214Y-55830597D01*
X81659608Y-55792351D01*
X81743467Y-55289196D01*
X81773905Y-55226304D01*
X81778079Y-55221920D01*
X81963681Y-55036319D01*
X82025004Y-55002834D01*
X82051362Y-55000000D01*
X83313911Y-55000000D01*
X83322146Y-55000385D01*
X83322147Y-55000365D01*
X83325032Y-55000499D01*
X83325043Y-55000500D01*
X83799956Y-55000499D01*
X83799962Y-55000499D01*
X83802847Y-55000364D01*
X83802847Y-55000384D01*
X83811078Y-55000000D01*
X84000000Y-55000000D01*
X84713681Y-54286319D01*
X84775004Y-54252834D01*
X84801362Y-54250000D01*
X85702061Y-54250000D01*
X85769100Y-54269685D01*
G37*
%TD.AperFunction*%
%TA.AperFunction,Conductor*%
G36*
X63629452Y-31817671D02*
G01*
X64039797Y-32063878D01*
X64087156Y-32115249D01*
X64100000Y-32170207D01*
X64100000Y-32961008D01*
X64095776Y-32993098D01*
X64093250Y-33002525D01*
X64093250Y-34555388D01*
X64073565Y-34622427D01*
X64056931Y-34643069D01*
X63836319Y-34863681D01*
X63774996Y-34897166D01*
X63748638Y-34900000D01*
X62399999Y-34900000D01*
X61636319Y-35663681D01*
X61574996Y-35697166D01*
X61548638Y-35700000D01*
X60670207Y-35700000D01*
X60603168Y-35680315D01*
X60563878Y-35639797D01*
X60339632Y-35266053D01*
X60322020Y-35198440D01*
X60341654Y-35135204D01*
X61163392Y-33856946D01*
X61216202Y-33811198D01*
X61267698Y-33800000D01*
X62100000Y-33800000D01*
X62500000Y-33300000D01*
X62500000Y-32251362D01*
X62519685Y-32184323D01*
X62536319Y-32163681D01*
X62863681Y-31836319D01*
X62925004Y-31802834D01*
X62951362Y-31800000D01*
X63565655Y-31800000D01*
X63629452Y-31817671D01*
G37*
%TD.AperFunction*%
M02*
