%TF.GenerationSoftware,KiCad,Pcbnew,8.0.3-8.0.3-0~ubuntu22.04.1*%
%TF.CreationDate,2024-06-18T13:07:19+03:00*%
%TF.ProjectId,DoserDriver,446f7365-7244-4726-9976-65722e6b6963,rev?*%
%TF.SameCoordinates,Original*%
%TF.FileFunction,Copper,L4,Bot*%
%TF.FilePolarity,Positive*%
%FSLAX46Y46*%
G04 Gerber Fmt 4.6, Leading zero omitted, Abs format (unit mm)*
G04 Created by KiCad (PCBNEW 8.0.3-8.0.3-0~ubuntu22.04.1) date 2024-06-18 13:07:19*
%MOMM*%
%LPD*%
G01*
G04 APERTURE LIST*
%TA.AperFunction,ComponentPad*%
%ADD10R,2.000000X2.000000*%
%TD*%
%TA.AperFunction,ComponentPad*%
%ADD11C,2.000000*%
%TD*%
%TA.AperFunction,ComponentPad*%
%ADD12R,1.700000X1.700000*%
%TD*%
%TA.AperFunction,ComponentPad*%
%ADD13O,1.700000X1.700000*%
%TD*%
%TA.AperFunction,ViaPad*%
%ADD14C,0.700000*%
%TD*%
%TA.AperFunction,ViaPad*%
%ADD15C,0.600000*%
%TD*%
%TA.AperFunction,Conductor*%
%ADD16C,0.300000*%
%TD*%
%TA.AperFunction,Conductor*%
%ADD17C,0.500000*%
%TD*%
G04 APERTURE END LIST*
D10*
X93850000Y-47810000D03*
D11*
X93850000Y-45270000D03*
X93850000Y-42730000D03*
X93850000Y-40190000D03*
D10*
X93850000Y-61790000D03*
D11*
X93850000Y-59250000D03*
X93850000Y-56710000D03*
X93850000Y-54170000D03*
D10*
X53000000Y-54460000D03*
D11*
X53000000Y-57000000D03*
X53000000Y-59540000D03*
X53000000Y-62080000D03*
D12*
X79450000Y-67500000D03*
D13*
X81990000Y-67500000D03*
X84530000Y-67500000D03*
X87070000Y-67500000D03*
D10*
X53000000Y-40440000D03*
D11*
X53000000Y-42980000D03*
X53000000Y-45520000D03*
X53000000Y-48060000D03*
D12*
X79420000Y-33250000D03*
D13*
X81960000Y-33250000D03*
X84500000Y-33250000D03*
X87040000Y-33250000D03*
D14*
X59950000Y-41100000D03*
X82750000Y-62750000D03*
X61450000Y-41100000D03*
X82500000Y-55500000D03*
X76000000Y-36500000D03*
X74500000Y-63250000D03*
X77250000Y-33250000D03*
X68750000Y-48750000D03*
X92100000Y-42200000D03*
X87000000Y-41750000D03*
X73400000Y-57100000D03*
X69300000Y-67800000D03*
X73750000Y-64000000D03*
X69250000Y-62500000D03*
X69200000Y-60900000D03*
X85500000Y-56000000D03*
X75250000Y-56750000D03*
X91000000Y-43300000D03*
X61200000Y-35100000D03*
X62000000Y-34400000D03*
X69500000Y-55700000D03*
X58579949Y-60150000D03*
X69250000Y-37790000D03*
X62950000Y-41100000D03*
X85000000Y-46750000D03*
X69787500Y-35500000D03*
X58750000Y-67000000D03*
X84500000Y-56000000D03*
X79100000Y-45900000D03*
X91000000Y-42200000D03*
X85900000Y-44300000D03*
X80750000Y-37750000D03*
X75500000Y-63750000D03*
X72000000Y-50750000D03*
X63700000Y-43600000D03*
X83000000Y-56250000D03*
X68900000Y-40000000D03*
X92100000Y-43300000D03*
X58100000Y-57600000D03*
X56468750Y-34100000D03*
X68750000Y-50000000D03*
X69200000Y-34000000D03*
X57868750Y-34100000D03*
X78900000Y-44500000D03*
X73250000Y-50000000D03*
X67600000Y-40000000D03*
X85000000Y-48750000D03*
X59268750Y-34100000D03*
X70600000Y-37900000D03*
X65250000Y-45000000D03*
X68150000Y-33490000D03*
X57910000Y-64660000D03*
X60500000Y-61250000D03*
D15*
X54725000Y-41025000D03*
D14*
X88750000Y-56000000D03*
X88750000Y-52750000D03*
X89750000Y-59500000D03*
X89750000Y-53250000D03*
D15*
X54900000Y-46100000D03*
D14*
X62250000Y-61750000D03*
X80000000Y-39000000D03*
X77250000Y-39000000D03*
X63000000Y-54500000D03*
X59200000Y-54500000D03*
X71200000Y-54500000D03*
X58000000Y-59125000D03*
X70975000Y-55725000D03*
X59131715Y-63631716D03*
X58500000Y-65750000D03*
X71400000Y-56700000D03*
X63950000Y-53600000D03*
X60650000Y-53550000D03*
X64768415Y-52468415D03*
X61983578Y-52483578D03*
X57800000Y-63000000D03*
X68900000Y-54900000D03*
X79500000Y-41750000D03*
X75500000Y-41750000D03*
X62733578Y-51733578D03*
X65500000Y-51750000D03*
D16*
X56200000Y-42500000D02*
X56200000Y-60000000D01*
X56200000Y-60000000D02*
X57450000Y-61250000D01*
X57450000Y-61250000D02*
X60500000Y-61250000D01*
X54725000Y-41025000D02*
X56200000Y-42500000D01*
D17*
X88750000Y-52750000D02*
X88750000Y-56000000D01*
X89750000Y-53250000D02*
X89750000Y-59500000D01*
D16*
X57250000Y-61950000D02*
X62050000Y-61950000D01*
X55600000Y-46800000D02*
X55600000Y-60300000D01*
X54900000Y-46100000D02*
X55600000Y-46800000D01*
X62050000Y-61950000D02*
X62250000Y-61750000D01*
X55600000Y-60300000D02*
X57250000Y-61950000D01*
X80000000Y-39000000D02*
X77250000Y-39000000D01*
X63000000Y-54500000D02*
X59200000Y-54500000D01*
X62350000Y-55400000D02*
X59000000Y-58750000D01*
X67060227Y-55400000D02*
X62350000Y-55400000D01*
X71200000Y-54500000D02*
X70824479Y-54124479D01*
X58375000Y-58750000D02*
X58000000Y-59125000D01*
X59000000Y-58750000D02*
X58375000Y-58750000D01*
X68335748Y-54124479D02*
X67060227Y-55400000D01*
X70824479Y-54124479D02*
X68335748Y-54124479D01*
X59263431Y-63500000D02*
X59131715Y-63631716D01*
X63250000Y-63500000D02*
X59263431Y-63500000D01*
X69500000Y-57200000D02*
X69500000Y-57250000D01*
X69500000Y-57250000D02*
X63250000Y-63500000D01*
X70975000Y-55725000D02*
X69500000Y-57200000D01*
X62250000Y-65250000D02*
X58750000Y-65250000D01*
X58500000Y-65500000D02*
X58500000Y-65750000D01*
X58750000Y-65250000D02*
X58500000Y-65500000D01*
X71400000Y-56700000D02*
X70800000Y-56700000D01*
X70800000Y-56700000D02*
X62250000Y-65250000D01*
X60650000Y-53550000D02*
X60700000Y-53600000D01*
X60700000Y-53600000D02*
X63950000Y-53600000D01*
X64753252Y-52483578D02*
X64768415Y-52468415D01*
X61983578Y-52483578D02*
X64753252Y-52483578D01*
X68900000Y-54900000D02*
X68800000Y-55000000D01*
X68800000Y-57200000D02*
X63300000Y-62700000D01*
X58100000Y-62700000D02*
X57800000Y-63000000D01*
X68800000Y-55000000D02*
X68800000Y-57200000D01*
X63300000Y-62700000D02*
X58100000Y-62700000D01*
X75500000Y-41750000D02*
X79500000Y-41750000D01*
X62750000Y-51750000D02*
X65500000Y-51750000D01*
X62733578Y-51733578D02*
X62750000Y-51750000D01*
M02*
