%TF.GenerationSoftware,KiCad,Pcbnew,8.0.3-8.0.3-0~ubuntu22.04.1*%
%TF.CreationDate,2024-06-18T13:07:19+03:00*%
%TF.ProjectId,DoserDriver,446f7365-7244-4726-9976-65722e6b6963,rev?*%
%TF.SameCoordinates,Original*%
%TF.FileFunction,Copper,L2,Inr*%
%TF.FilePolarity,Positive*%
%FSLAX46Y46*%
G04 Gerber Fmt 4.6, Leading zero omitted, Abs format (unit mm)*
G04 Created by KiCad (PCBNEW 8.0.3-8.0.3-0~ubuntu22.04.1) date 2024-06-18 13:07:19*
%MOMM*%
%LPD*%
G01*
G04 APERTURE LIST*
%TA.AperFunction,ComponentPad*%
%ADD10R,2.000000X2.000000*%
%TD*%
%TA.AperFunction,ComponentPad*%
%ADD11C,2.000000*%
%TD*%
%TA.AperFunction,ComponentPad*%
%ADD12R,1.700000X1.700000*%
%TD*%
%TA.AperFunction,ComponentPad*%
%ADD13O,1.700000X1.700000*%
%TD*%
%TA.AperFunction,ViaPad*%
%ADD14C,0.700000*%
%TD*%
%TA.AperFunction,ViaPad*%
%ADD15C,0.600000*%
%TD*%
G04 APERTURE END LIST*
D10*
X93850000Y-47810000D03*
D11*
X93850000Y-45270000D03*
X93850000Y-42730000D03*
X93850000Y-40190000D03*
D10*
X93850000Y-61790000D03*
D11*
X93850000Y-59250000D03*
X93850000Y-56710000D03*
X93850000Y-54170000D03*
D10*
X53000000Y-54460000D03*
D11*
X53000000Y-57000000D03*
X53000000Y-59540000D03*
X53000000Y-62080000D03*
D12*
X79450000Y-67500000D03*
D13*
X81990000Y-67500000D03*
X84530000Y-67500000D03*
X87070000Y-67500000D03*
D10*
X53000000Y-40440000D03*
D11*
X53000000Y-42980000D03*
X53000000Y-45520000D03*
X53000000Y-48060000D03*
D12*
X79420000Y-33250000D03*
D13*
X81960000Y-33250000D03*
X84500000Y-33250000D03*
X87040000Y-33250000D03*
D14*
X59950000Y-41100000D03*
X82750000Y-62750000D03*
X61450000Y-41100000D03*
X82500000Y-55500000D03*
X76000000Y-36500000D03*
X74500000Y-63250000D03*
X77250000Y-33250000D03*
X68750000Y-48750000D03*
X92100000Y-42200000D03*
X87000000Y-41750000D03*
X73400000Y-57100000D03*
X69300000Y-67800000D03*
X73750000Y-64000000D03*
X69250000Y-62500000D03*
X69200000Y-60900000D03*
X85500000Y-56000000D03*
X75250000Y-56750000D03*
X91000000Y-43300000D03*
X61200000Y-35100000D03*
X62000000Y-34400000D03*
X69500000Y-55700000D03*
X58579949Y-60150000D03*
X69250000Y-37790000D03*
X62950000Y-41100000D03*
X85000000Y-46750000D03*
X69787500Y-35500000D03*
X58750000Y-67000000D03*
X84500000Y-56000000D03*
X79100000Y-45900000D03*
X91000000Y-42200000D03*
X85900000Y-44300000D03*
X80750000Y-37750000D03*
X75500000Y-63750000D03*
X72000000Y-50750000D03*
X63700000Y-43600000D03*
X83000000Y-56250000D03*
X68900000Y-40000000D03*
X92100000Y-43300000D03*
X58100000Y-57600000D03*
X56468750Y-34100000D03*
X68750000Y-50000000D03*
X69200000Y-34000000D03*
X57868750Y-34100000D03*
X78900000Y-44500000D03*
X73250000Y-50000000D03*
X67600000Y-40000000D03*
X85000000Y-48750000D03*
X59268750Y-34100000D03*
X70600000Y-37900000D03*
X65250000Y-45000000D03*
X68150000Y-33490000D03*
X57910000Y-64660000D03*
X60500000Y-61250000D03*
D15*
X54725000Y-41025000D03*
D14*
X88750000Y-56000000D03*
X88750000Y-52750000D03*
X89750000Y-59500000D03*
X89750000Y-53250000D03*
D15*
X54900000Y-46100000D03*
D14*
X62250000Y-61750000D03*
X80000000Y-39000000D03*
X77250000Y-39000000D03*
X63000000Y-54500000D03*
X59200000Y-54500000D03*
X71200000Y-54500000D03*
X58000000Y-59125000D03*
X70975000Y-55725000D03*
X59131715Y-63631716D03*
X58500000Y-65750000D03*
X71400000Y-56700000D03*
X63950000Y-53600000D03*
X60650000Y-53550000D03*
X64768415Y-52468415D03*
X61983578Y-52483578D03*
X57800000Y-63000000D03*
X68900000Y-54900000D03*
X79500000Y-41750000D03*
X75500000Y-41750000D03*
X62733578Y-51733578D03*
X65500000Y-51750000D03*
%TA.AperFunction,Conductor*%
G36*
X95003736Y-31500726D02*
G01*
X95293796Y-31518271D01*
X95308659Y-31520076D01*
X95590798Y-31571780D01*
X95605335Y-31575363D01*
X95879172Y-31660695D01*
X95893163Y-31666000D01*
X96154743Y-31783727D01*
X96167989Y-31790680D01*
X96413465Y-31939075D01*
X96425776Y-31947573D01*
X96547340Y-32042812D01*
X96651573Y-32124473D01*
X96662781Y-32134403D01*
X96865596Y-32337218D01*
X96875526Y-32348426D01*
X96878461Y-32352172D01*
X97051138Y-32572579D01*
X97052422Y-32574217D01*
X97060926Y-32586537D01*
X97094301Y-32641746D01*
X97209316Y-32832004D01*
X97216275Y-32845263D01*
X97333997Y-33106831D01*
X97339306Y-33120832D01*
X97424635Y-33394663D01*
X97428219Y-33409201D01*
X97479923Y-33691340D01*
X97481728Y-33706205D01*
X97499274Y-33996263D01*
X97499500Y-34003750D01*
X97499500Y-67746249D01*
X97499274Y-67753736D01*
X97481728Y-68043794D01*
X97479923Y-68058659D01*
X97428219Y-68340798D01*
X97424635Y-68355336D01*
X97339306Y-68629167D01*
X97333997Y-68643168D01*
X97216275Y-68904736D01*
X97209316Y-68917995D01*
X97060928Y-69163459D01*
X97052422Y-69175782D01*
X96875526Y-69401573D01*
X96865596Y-69412781D01*
X96662781Y-69615596D01*
X96651573Y-69625526D01*
X96425782Y-69802422D01*
X96413459Y-69810928D01*
X96167995Y-69959316D01*
X96154736Y-69966275D01*
X95893168Y-70083997D01*
X95879167Y-70089306D01*
X95605336Y-70174635D01*
X95590798Y-70178219D01*
X95308659Y-70229923D01*
X95293794Y-70231728D01*
X95003736Y-70249274D01*
X94996249Y-70249500D01*
X52003751Y-70249500D01*
X51996264Y-70249274D01*
X51706205Y-70231728D01*
X51691340Y-70229923D01*
X51409201Y-70178219D01*
X51394663Y-70174635D01*
X51120832Y-70089306D01*
X51106831Y-70083997D01*
X50845263Y-69966275D01*
X50832004Y-69959316D01*
X50586540Y-69810928D01*
X50574217Y-69802422D01*
X50348426Y-69625526D01*
X50337218Y-69615596D01*
X50134403Y-69412781D01*
X50124473Y-69401573D01*
X49947573Y-69175776D01*
X49939075Y-69163465D01*
X49790680Y-68917989D01*
X49783727Y-68904743D01*
X49666000Y-68643163D01*
X49660693Y-68629167D01*
X49655131Y-68611319D01*
X49575363Y-68355335D01*
X49571780Y-68340798D01*
X49529165Y-68108255D01*
X49520075Y-68058657D01*
X49518271Y-68043794D01*
X49500726Y-67753736D01*
X49500500Y-67746249D01*
X49500500Y-67639778D01*
X50599500Y-67639778D01*
X50599500Y-67860221D01*
X50633985Y-68077952D01*
X50702103Y-68287603D01*
X50702104Y-68287606D01*
X50802187Y-68484025D01*
X50931752Y-68662358D01*
X50931756Y-68662363D01*
X51087636Y-68818243D01*
X51087641Y-68818247D01*
X51206684Y-68904736D01*
X51265978Y-68947815D01*
X51394375Y-69013237D01*
X51462393Y-69047895D01*
X51462396Y-69047896D01*
X51567221Y-69081955D01*
X51672049Y-69116015D01*
X51889778Y-69150500D01*
X51889779Y-69150500D01*
X52110221Y-69150500D01*
X52110222Y-69150500D01*
X52327951Y-69116015D01*
X52537606Y-69047895D01*
X52734022Y-68947815D01*
X52912365Y-68818242D01*
X53068242Y-68662365D01*
X53197815Y-68484022D01*
X53297895Y-68287606D01*
X53366015Y-68077951D01*
X53400500Y-67860222D01*
X53400500Y-67639778D01*
X53366015Y-67422049D01*
X53322360Y-67287690D01*
X53297896Y-67212396D01*
X53297895Y-67212393D01*
X53263237Y-67144375D01*
X53197815Y-67015978D01*
X53107555Y-66891745D01*
X53068247Y-66837641D01*
X53068243Y-66837636D01*
X52912363Y-66681756D01*
X52912358Y-66681752D01*
X52806897Y-66605131D01*
X78299500Y-66605131D01*
X78299500Y-68394856D01*
X78299502Y-68394882D01*
X78302413Y-68419987D01*
X78302415Y-68419991D01*
X78347793Y-68522764D01*
X78347794Y-68522765D01*
X78427235Y-68602206D01*
X78530009Y-68647585D01*
X78555135Y-68650500D01*
X80344864Y-68650499D01*
X80344879Y-68650497D01*
X80344882Y-68650497D01*
X80369987Y-68647586D01*
X80369988Y-68647585D01*
X80369991Y-68647585D01*
X80472765Y-68602206D01*
X80552206Y-68522765D01*
X80597585Y-68419991D01*
X80600500Y-68394865D01*
X80600499Y-67656046D01*
X80620183Y-67589009D01*
X80672987Y-67543254D01*
X80742146Y-67533310D01*
X80805702Y-67562335D01*
X80843476Y-67621113D01*
X80847970Y-67644606D01*
X80854244Y-67712310D01*
X80912596Y-67917392D01*
X80912596Y-67917394D01*
X81007632Y-68108253D01*
X81007634Y-68108255D01*
X81136128Y-68278407D01*
X81293698Y-68422052D01*
X81474981Y-68534298D01*
X81673802Y-68611321D01*
X81883390Y-68650500D01*
X81883392Y-68650500D01*
X82096608Y-68650500D01*
X82096610Y-68650500D01*
X82306198Y-68611321D01*
X82505019Y-68534298D01*
X82686302Y-68422052D01*
X82843872Y-68278407D01*
X82972366Y-68108255D01*
X82987455Y-68077952D01*
X83067403Y-67917394D01*
X83067403Y-67917393D01*
X83067405Y-67917389D01*
X83125756Y-67712310D01*
X83136529Y-67596047D01*
X83162315Y-67531111D01*
X83204622Y-67500804D01*
X83313130Y-67500804D01*
X83349503Y-67521668D01*
X83381693Y-67583681D01*
X83383471Y-67596048D01*
X83394244Y-67712310D01*
X83452596Y-67917392D01*
X83452596Y-67917394D01*
X83547632Y-68108253D01*
X83547634Y-68108255D01*
X83676128Y-68278407D01*
X83833698Y-68422052D01*
X84014981Y-68534298D01*
X84213802Y-68611321D01*
X84423390Y-68650500D01*
X84423392Y-68650500D01*
X84636608Y-68650500D01*
X84636610Y-68650500D01*
X84846198Y-68611321D01*
X85045019Y-68534298D01*
X85226302Y-68422052D01*
X85383872Y-68278407D01*
X85512366Y-68108255D01*
X85527455Y-68077952D01*
X85607403Y-67917394D01*
X85607403Y-67917393D01*
X85607405Y-67917389D01*
X85665756Y-67712310D01*
X85676529Y-67596047D01*
X85702315Y-67531111D01*
X85744622Y-67500804D01*
X85853130Y-67500804D01*
X85889503Y-67521668D01*
X85921693Y-67583681D01*
X85923471Y-67596048D01*
X85934244Y-67712310D01*
X85992596Y-67917392D01*
X85992596Y-67917394D01*
X86087632Y-68108253D01*
X86087634Y-68108255D01*
X86216128Y-68278407D01*
X86373698Y-68422052D01*
X86554981Y-68534298D01*
X86753802Y-68611321D01*
X86963390Y-68650500D01*
X86963392Y-68650500D01*
X87176608Y-68650500D01*
X87176610Y-68650500D01*
X87386198Y-68611321D01*
X87585019Y-68534298D01*
X87766302Y-68422052D01*
X87923872Y-68278407D01*
X88052366Y-68108255D01*
X88067455Y-68077952D01*
X88147403Y-67917394D01*
X88147403Y-67917393D01*
X88147405Y-67917389D01*
X88205756Y-67712310D01*
X88212477Y-67639778D01*
X93599500Y-67639778D01*
X93599500Y-67860221D01*
X93633985Y-68077952D01*
X93702103Y-68287603D01*
X93702104Y-68287606D01*
X93802187Y-68484025D01*
X93931752Y-68662358D01*
X93931756Y-68662363D01*
X94087636Y-68818243D01*
X94087641Y-68818247D01*
X94206684Y-68904736D01*
X94265978Y-68947815D01*
X94394375Y-69013237D01*
X94462393Y-69047895D01*
X94462396Y-69047896D01*
X94567221Y-69081955D01*
X94672049Y-69116015D01*
X94889778Y-69150500D01*
X94889779Y-69150500D01*
X95110221Y-69150500D01*
X95110222Y-69150500D01*
X95327951Y-69116015D01*
X95537606Y-69047895D01*
X95734022Y-68947815D01*
X95912365Y-68818242D01*
X96068242Y-68662365D01*
X96197815Y-68484022D01*
X96297895Y-68287606D01*
X96366015Y-68077951D01*
X96400500Y-67860222D01*
X96400500Y-67639778D01*
X96366015Y-67422049D01*
X96322360Y-67287690D01*
X96297896Y-67212396D01*
X96297895Y-67212393D01*
X96263237Y-67144375D01*
X96197815Y-67015978D01*
X96107555Y-66891745D01*
X96068247Y-66837641D01*
X96068243Y-66837636D01*
X95912363Y-66681756D01*
X95912358Y-66681752D01*
X95734025Y-66552187D01*
X95734024Y-66552186D01*
X95734022Y-66552185D01*
X95671096Y-66520122D01*
X95537606Y-66452104D01*
X95537603Y-66452103D01*
X95327952Y-66383985D01*
X95193538Y-66362696D01*
X95110222Y-66349500D01*
X94889778Y-66349500D01*
X94817201Y-66360995D01*
X94672047Y-66383985D01*
X94462396Y-66452103D01*
X94462393Y-66452104D01*
X94265974Y-66552187D01*
X94087641Y-66681752D01*
X94087636Y-66681756D01*
X93931756Y-66837636D01*
X93931752Y-66837641D01*
X93802187Y-67015974D01*
X93702104Y-67212393D01*
X93702103Y-67212396D01*
X93633985Y-67422047D01*
X93599500Y-67639778D01*
X88212477Y-67639778D01*
X88225429Y-67500000D01*
X88205756Y-67287690D01*
X88147405Y-67082611D01*
X88147403Y-67082606D01*
X88147403Y-67082605D01*
X88052367Y-66891746D01*
X87923872Y-66721593D01*
X87796133Y-66605143D01*
X87766302Y-66577948D01*
X87585019Y-66465702D01*
X87585017Y-66465701D01*
X87485608Y-66427190D01*
X87386198Y-66388679D01*
X87176610Y-66349500D01*
X86963390Y-66349500D01*
X86753802Y-66388679D01*
X86753799Y-66388679D01*
X86753799Y-66388680D01*
X86554982Y-66465701D01*
X86554980Y-66465702D01*
X86373699Y-66577947D01*
X86216127Y-66721593D01*
X86087632Y-66891746D01*
X85992596Y-67082605D01*
X85992596Y-67082607D01*
X85934244Y-67287689D01*
X85923471Y-67403951D01*
X85897685Y-67468888D01*
X85853130Y-67500804D01*
X85744622Y-67500804D01*
X85746869Y-67499194D01*
X85710497Y-67478331D01*
X85678307Y-67416318D01*
X85676529Y-67403951D01*
X85673175Y-67367759D01*
X85665756Y-67287690D01*
X85607405Y-67082611D01*
X85607403Y-67082606D01*
X85607403Y-67082605D01*
X85512367Y-66891746D01*
X85383872Y-66721593D01*
X85256133Y-66605143D01*
X85226302Y-66577948D01*
X85045019Y-66465702D01*
X85045017Y-66465701D01*
X84945608Y-66427190D01*
X84846198Y-66388679D01*
X84636610Y-66349500D01*
X84423390Y-66349500D01*
X84213802Y-66388679D01*
X84213799Y-66388679D01*
X84213799Y-66388680D01*
X84014982Y-66465701D01*
X84014980Y-66465702D01*
X83833699Y-66577947D01*
X83676127Y-66721593D01*
X83547632Y-66891746D01*
X83452596Y-67082605D01*
X83452596Y-67082607D01*
X83394244Y-67287689D01*
X83383471Y-67403951D01*
X83357685Y-67468888D01*
X83313130Y-67500804D01*
X83204622Y-67500804D01*
X83206869Y-67499194D01*
X83170497Y-67478331D01*
X83138307Y-67416318D01*
X83136529Y-67403951D01*
X83133175Y-67367759D01*
X83125756Y-67287690D01*
X83067405Y-67082611D01*
X83067403Y-67082606D01*
X83067403Y-67082605D01*
X82972367Y-66891746D01*
X82843872Y-66721593D01*
X82716133Y-66605143D01*
X82686302Y-66577948D01*
X82505019Y-66465702D01*
X82505017Y-66465701D01*
X82405608Y-66427190D01*
X82306198Y-66388679D01*
X82096610Y-66349500D01*
X81883390Y-66349500D01*
X81673802Y-66388679D01*
X81673799Y-66388679D01*
X81673799Y-66388680D01*
X81474982Y-66465701D01*
X81474980Y-66465702D01*
X81293699Y-66577947D01*
X81136127Y-66721593D01*
X81007632Y-66891746D01*
X80912596Y-67082605D01*
X80912596Y-67082607D01*
X80854244Y-67287689D01*
X80847970Y-67355394D01*
X80822183Y-67420331D01*
X80765383Y-67461018D01*
X80695602Y-67464538D01*
X80634995Y-67429772D01*
X80602806Y-67367759D01*
X80600499Y-67343952D01*
X80600499Y-66605143D01*
X80600499Y-66605136D01*
X80600497Y-66605117D01*
X80597586Y-66580012D01*
X80597585Y-66580010D01*
X80597585Y-66580009D01*
X80552206Y-66477235D01*
X80472765Y-66397794D01*
X80452124Y-66388680D01*
X80369992Y-66352415D01*
X80344865Y-66349500D01*
X78555143Y-66349500D01*
X78555117Y-66349502D01*
X78530012Y-66352413D01*
X78530008Y-66352415D01*
X78427235Y-66397793D01*
X78347794Y-66477234D01*
X78302415Y-66580006D01*
X78302415Y-66580008D01*
X78299500Y-66605131D01*
X52806897Y-66605131D01*
X52734025Y-66552187D01*
X52734024Y-66552186D01*
X52734022Y-66552185D01*
X52671096Y-66520122D01*
X52537606Y-66452104D01*
X52537603Y-66452103D01*
X52327952Y-66383985D01*
X52193538Y-66362696D01*
X52110222Y-66349500D01*
X51889778Y-66349500D01*
X51817201Y-66360995D01*
X51672047Y-66383985D01*
X51462396Y-66452103D01*
X51462393Y-66452104D01*
X51265974Y-66552187D01*
X51087641Y-66681752D01*
X51087636Y-66681756D01*
X50931756Y-66837636D01*
X50931752Y-66837641D01*
X50802187Y-67015974D01*
X50702104Y-67212393D01*
X50702103Y-67212396D01*
X50633985Y-67422047D01*
X50599500Y-67639778D01*
X49500500Y-67639778D01*
X49500500Y-64659999D01*
X57254722Y-64659999D01*
X57254722Y-64660000D01*
X57273762Y-64816818D01*
X57329780Y-64964523D01*
X57419517Y-65094530D01*
X57537760Y-65199283D01*
X57537762Y-65199284D01*
X57677634Y-65272696D01*
X57677633Y-65272696D01*
X57788547Y-65300033D01*
X57823104Y-65308550D01*
X57883485Y-65343706D01*
X57915274Y-65405925D01*
X57909372Y-65472917D01*
X57863763Y-65593178D01*
X57863763Y-65593180D01*
X57844722Y-65749999D01*
X57844722Y-65750000D01*
X57863762Y-65906818D01*
X57919780Y-66054523D01*
X58009517Y-66184530D01*
X58127760Y-66289283D01*
X58127762Y-66289284D01*
X58267634Y-66362696D01*
X58421014Y-66400500D01*
X58421015Y-66400500D01*
X58578985Y-66400500D01*
X58732365Y-66362696D01*
X58872240Y-66289283D01*
X58990483Y-66184530D01*
X59080220Y-66054523D01*
X59136237Y-65906818D01*
X59155278Y-65750000D01*
X59136237Y-65593182D01*
X59136236Y-65593180D01*
X59114992Y-65537164D01*
X59080220Y-65445477D01*
X58990483Y-65315470D01*
X58872240Y-65210717D01*
X58872238Y-65210716D01*
X58872237Y-65210715D01*
X58732366Y-65137304D01*
X58586894Y-65101449D01*
X58526514Y-65066293D01*
X58494725Y-65004074D01*
X58500627Y-64937081D01*
X58546237Y-64816818D01*
X58565278Y-64660000D01*
X58565278Y-64659999D01*
X58546237Y-64503181D01*
X58524992Y-64447164D01*
X58490220Y-64355477D01*
X58400483Y-64225470D01*
X58282240Y-64120717D01*
X58282238Y-64120716D01*
X58282237Y-64120715D01*
X58142365Y-64047303D01*
X57988986Y-64009500D01*
X57988985Y-64009500D01*
X57831015Y-64009500D01*
X57831014Y-64009500D01*
X57677634Y-64047303D01*
X57537762Y-64120715D01*
X57419516Y-64225471D01*
X57329781Y-64355475D01*
X57329780Y-64355476D01*
X57273762Y-64503181D01*
X57254722Y-64659999D01*
X49500500Y-64659999D01*
X49500500Y-56999998D01*
X51694532Y-56999998D01*
X51694532Y-57000001D01*
X51714364Y-57226686D01*
X51714366Y-57226697D01*
X51773258Y-57446488D01*
X51773261Y-57446497D01*
X51869431Y-57652732D01*
X51869432Y-57652734D01*
X51999954Y-57839141D01*
X52160858Y-58000045D01*
X52160861Y-58000047D01*
X52347266Y-58130568D01*
X52405275Y-58157618D01*
X52457714Y-58203791D01*
X52476866Y-58270984D01*
X52456650Y-58337865D01*
X52405275Y-58382382D01*
X52347267Y-58409431D01*
X52347265Y-58409432D01*
X52160858Y-58539954D01*
X51999954Y-58700858D01*
X51869432Y-58887265D01*
X51869431Y-58887267D01*
X51773261Y-59093502D01*
X51773258Y-59093511D01*
X51714366Y-59313302D01*
X51714364Y-59313313D01*
X51694532Y-59539998D01*
X51694532Y-59540001D01*
X51714364Y-59766686D01*
X51714366Y-59766697D01*
X51773258Y-59986488D01*
X51773261Y-59986497D01*
X51869431Y-60192732D01*
X51869432Y-60192734D01*
X51999954Y-60379141D01*
X52160858Y-60540045D01*
X52160861Y-60540047D01*
X52347266Y-60670568D01*
X52405275Y-60697618D01*
X52457714Y-60743791D01*
X52476866Y-60810984D01*
X52456650Y-60877865D01*
X52405275Y-60922382D01*
X52347267Y-60949431D01*
X52347265Y-60949432D01*
X52160858Y-61079954D01*
X51999954Y-61240858D01*
X51869432Y-61427265D01*
X51869431Y-61427267D01*
X51773261Y-61633502D01*
X51773258Y-61633511D01*
X51714366Y-61853302D01*
X51714364Y-61853313D01*
X51694532Y-62079998D01*
X51694532Y-62080001D01*
X51714364Y-62306686D01*
X51714366Y-62306697D01*
X51773258Y-62526488D01*
X51773261Y-62526497D01*
X51869431Y-62732732D01*
X51869432Y-62732734D01*
X51999954Y-62919141D01*
X52160858Y-63080045D01*
X52178547Y-63092431D01*
X52347266Y-63210568D01*
X52553504Y-63306739D01*
X52773308Y-63365635D01*
X52935230Y-63379801D01*
X52999998Y-63385468D01*
X53000000Y-63385468D01*
X53000002Y-63385468D01*
X53056673Y-63380509D01*
X53226692Y-63365635D01*
X53446496Y-63306739D01*
X53652734Y-63210568D01*
X53839139Y-63080047D01*
X53919187Y-62999999D01*
X57144722Y-62999999D01*
X57144722Y-63000000D01*
X57163762Y-63156818D01*
X57219780Y-63304523D01*
X57309517Y-63434530D01*
X57427760Y-63539283D01*
X57427762Y-63539284D01*
X57567634Y-63612696D01*
X57721014Y-63650500D01*
X57721015Y-63650500D01*
X57878985Y-63650500D01*
X58032365Y-63612696D01*
X58172237Y-63539285D01*
X58172238Y-63539283D01*
X58172240Y-63539283D01*
X58280948Y-63442976D01*
X58344179Y-63413257D01*
X58413443Y-63422441D01*
X58466746Y-63467613D01*
X58487166Y-63534432D01*
X58486269Y-63550740D01*
X58476437Y-63631715D01*
X58476437Y-63631716D01*
X58495477Y-63788534D01*
X58551495Y-63936239D01*
X58641232Y-64066246D01*
X58759475Y-64170999D01*
X58759477Y-64171000D01*
X58899349Y-64244412D01*
X59052729Y-64282216D01*
X59052730Y-64282216D01*
X59210700Y-64282216D01*
X59364080Y-64244412D01*
X59503955Y-64170999D01*
X59622198Y-64066246D01*
X59711935Y-63936239D01*
X59767952Y-63788534D01*
X59786993Y-63631716D01*
X59767952Y-63474898D01*
X59755846Y-63442978D01*
X59726513Y-63365633D01*
X59711935Y-63327193D01*
X59622198Y-63197186D01*
X59503955Y-63092433D01*
X59503953Y-63092432D01*
X59503952Y-63092431D01*
X59364080Y-63019019D01*
X59210701Y-62981216D01*
X59210700Y-62981216D01*
X59052730Y-62981216D01*
X59052729Y-62981216D01*
X58899349Y-63019019D01*
X58759476Y-63092431D01*
X58759474Y-63092433D01*
X58650767Y-63188737D01*
X58587534Y-63218458D01*
X58518270Y-63209274D01*
X58464967Y-63164101D01*
X58444548Y-63097282D01*
X58445444Y-63080990D01*
X58455278Y-63000000D01*
X58438278Y-62859991D01*
X58436237Y-62843181D01*
X58414992Y-62787164D01*
X58380220Y-62695477D01*
X58290483Y-62565470D01*
X58172240Y-62460717D01*
X58172238Y-62460716D01*
X58172237Y-62460715D01*
X58032365Y-62387303D01*
X57878986Y-62349500D01*
X57878985Y-62349500D01*
X57721015Y-62349500D01*
X57721014Y-62349500D01*
X57567634Y-62387303D01*
X57427762Y-62460715D01*
X57309516Y-62565471D01*
X57219781Y-62695475D01*
X57219780Y-62695476D01*
X57163762Y-62843181D01*
X57144722Y-62999999D01*
X53919187Y-62999999D01*
X54000047Y-62919139D01*
X54130568Y-62732734D01*
X54226739Y-62526496D01*
X54285635Y-62306692D01*
X54305468Y-62080000D01*
X54285635Y-61853308D01*
X54226739Y-61633504D01*
X54130568Y-61427266D01*
X54006446Y-61250000D01*
X54006445Y-61249999D01*
X59844722Y-61249999D01*
X59844722Y-61250000D01*
X59863762Y-61406818D01*
X59878424Y-61445477D01*
X59919780Y-61554523D01*
X60009517Y-61684530D01*
X60127760Y-61789283D01*
X60127762Y-61789284D01*
X60267634Y-61862696D01*
X60421014Y-61900500D01*
X60421015Y-61900500D01*
X60578985Y-61900500D01*
X60732365Y-61862696D01*
X60872240Y-61789283D01*
X60916583Y-61749999D01*
X61594722Y-61749999D01*
X61594722Y-61750000D01*
X61613762Y-61906818D01*
X61669780Y-62054523D01*
X61759517Y-62184530D01*
X61877760Y-62289283D01*
X61877762Y-62289284D01*
X62017634Y-62362696D01*
X62171014Y-62400500D01*
X62171015Y-62400500D01*
X62328985Y-62400500D01*
X62482365Y-62362696D01*
X62622240Y-62289283D01*
X62740483Y-62184530D01*
X62830220Y-62054523D01*
X62886237Y-61906818D01*
X62905278Y-61750000D01*
X62886237Y-61593182D01*
X62830220Y-61445477D01*
X62740483Y-61315470D01*
X62622240Y-61210717D01*
X62622238Y-61210716D01*
X62622237Y-61210715D01*
X62482365Y-61137303D01*
X62328986Y-61099500D01*
X62328985Y-61099500D01*
X62171015Y-61099500D01*
X62171014Y-61099500D01*
X62017634Y-61137303D01*
X61877762Y-61210715D01*
X61759516Y-61315471D01*
X61669781Y-61445475D01*
X61669780Y-61445476D01*
X61613762Y-61593181D01*
X61594722Y-61749999D01*
X60916583Y-61749999D01*
X60990483Y-61684530D01*
X61080220Y-61554523D01*
X61136237Y-61406818D01*
X61155278Y-61250000D01*
X61136237Y-61093182D01*
X61131220Y-61079954D01*
X61114992Y-61037164D01*
X61080220Y-60945477D01*
X60990483Y-60815470D01*
X60872240Y-60710717D01*
X60872238Y-60710716D01*
X60872237Y-60710715D01*
X60732365Y-60637303D01*
X60578986Y-60599500D01*
X60578985Y-60599500D01*
X60421015Y-60599500D01*
X60421014Y-60599500D01*
X60267634Y-60637303D01*
X60127762Y-60710715D01*
X60048931Y-60780552D01*
X60015692Y-60810000D01*
X60009516Y-60815471D01*
X59919781Y-60945475D01*
X59919780Y-60945476D01*
X59863762Y-61093181D01*
X59844722Y-61249999D01*
X54006445Y-61249999D01*
X54000045Y-61240858D01*
X53839141Y-61079954D01*
X53652734Y-60949432D01*
X53652728Y-60949429D01*
X53594725Y-60922382D01*
X53542285Y-60876210D01*
X53523133Y-60809017D01*
X53543348Y-60742135D01*
X53594725Y-60697618D01*
X53652734Y-60670568D01*
X53839139Y-60540047D01*
X54000047Y-60379139D01*
X54130568Y-60192734D01*
X54226739Y-59986496D01*
X54285635Y-59766692D01*
X54305468Y-59540000D01*
X54301968Y-59500000D01*
X54299801Y-59475230D01*
X54285635Y-59313308D01*
X54235178Y-59124999D01*
X57344722Y-59124999D01*
X57344722Y-59125000D01*
X57363762Y-59281818D01*
X57387035Y-59343182D01*
X57419780Y-59429523D01*
X57509517Y-59559530D01*
X57627760Y-59664283D01*
X57627762Y-59664284D01*
X57767634Y-59737696D01*
X57921014Y-59775500D01*
X57921015Y-59775500D01*
X58078985Y-59775500D01*
X58232365Y-59737696D01*
X58310862Y-59696497D01*
X58372240Y-59664283D01*
X58490483Y-59559530D01*
X58531574Y-59499999D01*
X89094722Y-59499999D01*
X89094722Y-59500000D01*
X89113762Y-59656818D01*
X89158773Y-59775500D01*
X89169780Y-59804523D01*
X89259517Y-59934530D01*
X89377760Y-60039283D01*
X89377762Y-60039284D01*
X89517634Y-60112696D01*
X89671014Y-60150500D01*
X89671015Y-60150500D01*
X89828985Y-60150500D01*
X89982365Y-60112696D01*
X90122240Y-60039283D01*
X90240483Y-59934530D01*
X90330220Y-59804523D01*
X90386237Y-59656818D01*
X90405278Y-59500000D01*
X90386237Y-59343182D01*
X90330220Y-59195477D01*
X90240483Y-59065470D01*
X90122240Y-58960717D01*
X90122238Y-58960716D01*
X90122237Y-58960715D01*
X89982365Y-58887303D01*
X89828986Y-58849500D01*
X89828985Y-58849500D01*
X89671015Y-58849500D01*
X89671014Y-58849500D01*
X89517634Y-58887303D01*
X89377762Y-58960715D01*
X89259516Y-59065471D01*
X89169781Y-59195475D01*
X89169780Y-59195476D01*
X89113762Y-59343181D01*
X89094722Y-59499999D01*
X58531574Y-59499999D01*
X58580220Y-59429523D01*
X58636237Y-59281818D01*
X58655278Y-59125000D01*
X58651454Y-59093502D01*
X58636237Y-58968181D01*
X58591227Y-58849500D01*
X58580220Y-58820477D01*
X58490483Y-58690470D01*
X58372240Y-58585717D01*
X58372238Y-58585716D01*
X58372237Y-58585715D01*
X58232367Y-58512304D01*
X58160112Y-58494495D01*
X58099732Y-58459338D01*
X58067944Y-58397119D01*
X58074840Y-58327590D01*
X58118232Y-58272828D01*
X58174854Y-58251001D01*
X58178979Y-58250500D01*
X58178985Y-58250500D01*
X58332365Y-58212696D01*
X58472240Y-58139283D01*
X58590483Y-58034530D01*
X58680220Y-57904523D01*
X58736237Y-57756818D01*
X58755278Y-57600000D01*
X58749103Y-57549139D01*
X58736237Y-57443181D01*
X58686750Y-57312696D01*
X58680220Y-57295477D01*
X58590483Y-57165470D01*
X58472240Y-57060717D01*
X58472238Y-57060716D01*
X58472237Y-57060715D01*
X58332365Y-56987303D01*
X58178986Y-56949500D01*
X58178985Y-56949500D01*
X58021015Y-56949500D01*
X58021014Y-56949500D01*
X57867634Y-56987303D01*
X57727762Y-57060715D01*
X57609516Y-57165471D01*
X57519781Y-57295475D01*
X57519780Y-57295476D01*
X57463762Y-57443181D01*
X57444722Y-57599999D01*
X57444722Y-57600000D01*
X57463762Y-57756818D01*
X57505784Y-57867618D01*
X57519780Y-57904523D01*
X57609517Y-58034530D01*
X57727760Y-58139283D01*
X57867635Y-58212696D01*
X57924611Y-58226739D01*
X57939886Y-58230504D01*
X58000266Y-58265660D01*
X58032055Y-58327879D01*
X58025159Y-58397408D01*
X57981768Y-58452171D01*
X57925157Y-58473997D01*
X57921014Y-58474500D01*
X57767634Y-58512303D01*
X57627762Y-58585715D01*
X57509516Y-58690471D01*
X57419781Y-58820475D01*
X57419780Y-58820476D01*
X57363762Y-58968181D01*
X57344722Y-59124999D01*
X54235178Y-59124999D01*
X54226739Y-59093504D01*
X54130568Y-58887266D01*
X54000047Y-58700861D01*
X54000045Y-58700858D01*
X53839141Y-58539954D01*
X53652734Y-58409432D01*
X53652728Y-58409429D01*
X53594725Y-58382382D01*
X53542285Y-58336210D01*
X53523133Y-58269017D01*
X53543348Y-58202135D01*
X53594725Y-58157618D01*
X53652734Y-58130568D01*
X53839139Y-58000047D01*
X54000047Y-57839139D01*
X54130568Y-57652734D01*
X54226739Y-57446496D01*
X54285635Y-57226692D01*
X54305468Y-57000000D01*
X54285635Y-56773308D01*
X54226739Y-56553504D01*
X54130568Y-56347266D01*
X54000047Y-56160861D01*
X54000045Y-56160858D01*
X53839141Y-55999954D01*
X53819318Y-55986074D01*
X53775693Y-55931498D01*
X53768499Y-55861999D01*
X53800021Y-55799644D01*
X53860251Y-55764230D01*
X53890441Y-55760499D01*
X54044856Y-55760499D01*
X54044864Y-55760499D01*
X54044879Y-55760497D01*
X54044882Y-55760497D01*
X54069987Y-55757586D01*
X54069988Y-55757585D01*
X54069991Y-55757585D01*
X54143792Y-55724999D01*
X70319722Y-55724999D01*
X70319722Y-55725000D01*
X70338762Y-55881818D01*
X70383566Y-55999954D01*
X70394780Y-56029523D01*
X70484517Y-56159530D01*
X70602760Y-56264283D01*
X70727980Y-56330004D01*
X70778190Y-56378587D01*
X70794165Y-56446606D01*
X70786294Y-56483769D01*
X70763763Y-56543178D01*
X70763763Y-56543180D01*
X70744722Y-56699999D01*
X70744722Y-56700000D01*
X70763762Y-56856818D01*
X70813249Y-56987303D01*
X70819780Y-57004523D01*
X70909517Y-57134530D01*
X71027760Y-57239283D01*
X71027762Y-57239284D01*
X71167634Y-57312696D01*
X71321014Y-57350500D01*
X71321015Y-57350500D01*
X71478985Y-57350500D01*
X71632365Y-57312696D01*
X71772240Y-57239283D01*
X71890483Y-57134530D01*
X71980220Y-57004523D01*
X72036237Y-56856818D01*
X72055278Y-56700000D01*
X72044678Y-56612696D01*
X72036237Y-56543181D01*
X72013528Y-56483302D01*
X71980220Y-56395477D01*
X71890483Y-56265470D01*
X71772240Y-56160717D01*
X71772238Y-56160716D01*
X71772237Y-56160715D01*
X71647021Y-56094996D01*
X71596809Y-56046412D01*
X71585908Y-55999999D01*
X88094722Y-55999999D01*
X88094722Y-56000000D01*
X88113762Y-56156818D01*
X88169780Y-56304523D01*
X88259517Y-56434530D01*
X88377760Y-56539283D01*
X88377762Y-56539284D01*
X88517634Y-56612696D01*
X88671014Y-56650500D01*
X88671015Y-56650500D01*
X88828985Y-56650500D01*
X88982365Y-56612696D01*
X89122240Y-56539283D01*
X89240483Y-56434530D01*
X89330220Y-56304523D01*
X89386237Y-56156818D01*
X89405278Y-56000000D01*
X89405273Y-55999954D01*
X89386237Y-55843181D01*
X89362345Y-55780183D01*
X89330220Y-55695477D01*
X89240483Y-55565470D01*
X89122240Y-55460717D01*
X89122238Y-55460716D01*
X89122237Y-55460715D01*
X88982365Y-55387303D01*
X88828986Y-55349500D01*
X88828985Y-55349500D01*
X88671015Y-55349500D01*
X88671014Y-55349500D01*
X88517634Y-55387303D01*
X88377762Y-55460715D01*
X88377760Y-55460717D01*
X88274291Y-55552382D01*
X88259516Y-55565471D01*
X88169781Y-55695475D01*
X88169780Y-55695476D01*
X88113762Y-55843181D01*
X88094722Y-55999999D01*
X71585908Y-55999999D01*
X71580834Y-55978393D01*
X71588703Y-55941232D01*
X71611237Y-55881818D01*
X71630278Y-55725000D01*
X71628725Y-55712205D01*
X71611237Y-55568181D01*
X71587734Y-55506210D01*
X71555220Y-55420477D01*
X71465483Y-55290470D01*
X71461617Y-55287045D01*
X71424489Y-55227856D01*
X71425255Y-55157991D01*
X71463672Y-55099630D01*
X71486210Y-55084435D01*
X71572240Y-55039283D01*
X71690483Y-54934530D01*
X71780220Y-54804523D01*
X71836237Y-54656818D01*
X71855278Y-54500000D01*
X71851086Y-54465471D01*
X71836237Y-54343181D01*
X71786750Y-54212696D01*
X71780220Y-54195477D01*
X71762633Y-54169998D01*
X92544532Y-54169998D01*
X92544532Y-54170001D01*
X92564364Y-54396686D01*
X92564366Y-54396697D01*
X92623258Y-54616488D01*
X92623261Y-54616497D01*
X92719431Y-54822732D01*
X92719432Y-54822734D01*
X92849954Y-55009141D01*
X93010858Y-55170045D01*
X93010861Y-55170047D01*
X93197266Y-55300568D01*
X93255275Y-55327618D01*
X93307714Y-55373791D01*
X93326866Y-55440984D01*
X93306650Y-55507865D01*
X93255275Y-55552382D01*
X93197267Y-55579431D01*
X93197265Y-55579432D01*
X93010858Y-55709954D01*
X92849954Y-55870858D01*
X92719432Y-56057265D01*
X92719431Y-56057267D01*
X92623261Y-56263502D01*
X92623258Y-56263511D01*
X92564366Y-56483302D01*
X92564364Y-56483313D01*
X92544532Y-56709998D01*
X92544532Y-56710001D01*
X92564364Y-56936686D01*
X92564366Y-56936697D01*
X92623258Y-57156488D01*
X92623261Y-57156497D01*
X92719431Y-57362732D01*
X92719432Y-57362734D01*
X92849954Y-57549141D01*
X93010858Y-57710045D01*
X93010861Y-57710047D01*
X93197266Y-57840568D01*
X93255275Y-57867618D01*
X93307714Y-57913791D01*
X93326866Y-57980984D01*
X93306650Y-58047865D01*
X93255275Y-58092382D01*
X93197267Y-58119431D01*
X93197265Y-58119432D01*
X93010858Y-58249954D01*
X92849954Y-58410858D01*
X92719432Y-58597265D01*
X92719431Y-58597267D01*
X92623261Y-58803502D01*
X92623258Y-58803511D01*
X92564366Y-59023302D01*
X92564364Y-59023313D01*
X92544532Y-59249998D01*
X92544532Y-59250001D01*
X92564364Y-59476686D01*
X92564366Y-59476697D01*
X92623258Y-59696488D01*
X92623261Y-59696497D01*
X92719431Y-59902732D01*
X92719432Y-59902734D01*
X92849954Y-60089141D01*
X93010857Y-60250044D01*
X93030680Y-60263924D01*
X93074306Y-60318500D01*
X93081500Y-60387999D01*
X93049978Y-60450354D01*
X92989749Y-60485768D01*
X92959559Y-60489500D01*
X92805144Y-60489500D01*
X92805117Y-60489502D01*
X92780012Y-60492413D01*
X92780008Y-60492415D01*
X92677235Y-60537793D01*
X92597794Y-60617234D01*
X92552415Y-60720006D01*
X92552415Y-60720008D01*
X92549500Y-60745131D01*
X92549500Y-62834856D01*
X92549502Y-62834882D01*
X92552413Y-62859987D01*
X92552415Y-62859991D01*
X92597793Y-62962764D01*
X92597794Y-62962765D01*
X92677235Y-63042206D01*
X92780009Y-63087585D01*
X92805135Y-63090500D01*
X94894864Y-63090499D01*
X94894879Y-63090497D01*
X94894882Y-63090497D01*
X94919987Y-63087586D01*
X94919988Y-63087585D01*
X94919991Y-63087585D01*
X95022765Y-63042206D01*
X95102206Y-62962765D01*
X95147585Y-62859991D01*
X95150500Y-62834865D01*
X95150499Y-60745136D01*
X95150151Y-60742135D01*
X95147586Y-60720012D01*
X95147585Y-60720010D01*
X95147585Y-60720009D01*
X95102206Y-60617235D01*
X95022765Y-60537794D01*
X95022763Y-60537793D01*
X94919992Y-60492415D01*
X94894868Y-60489500D01*
X94894865Y-60489500D01*
X94740442Y-60489500D01*
X94673403Y-60469815D01*
X94627648Y-60417011D01*
X94617704Y-60347853D01*
X94646729Y-60284297D01*
X94669320Y-60263924D01*
X94689139Y-60250047D01*
X94850047Y-60089139D01*
X94980568Y-59902734D01*
X95076739Y-59696496D01*
X95135635Y-59476692D01*
X95155468Y-59250000D01*
X95135635Y-59023308D01*
X95076739Y-58803504D01*
X94980568Y-58597266D01*
X94850047Y-58410861D01*
X94850045Y-58410858D01*
X94689141Y-58249954D01*
X94502734Y-58119432D01*
X94502728Y-58119429D01*
X94444725Y-58092382D01*
X94392285Y-58046210D01*
X94373133Y-57979017D01*
X94393348Y-57912135D01*
X94444725Y-57867618D01*
X94502734Y-57840568D01*
X94689139Y-57710047D01*
X94850047Y-57549139D01*
X94980568Y-57362734D01*
X95076739Y-57156496D01*
X95135635Y-56936692D01*
X95155468Y-56710000D01*
X95135635Y-56483308D01*
X95076948Y-56264283D01*
X95076741Y-56263511D01*
X95076738Y-56263502D01*
X94980568Y-56057267D01*
X94980567Y-56057265D01*
X94940469Y-55999999D01*
X94850047Y-55870861D01*
X94850045Y-55870858D01*
X94689141Y-55709954D01*
X94502734Y-55579432D01*
X94502728Y-55579429D01*
X94444725Y-55552382D01*
X94392285Y-55506210D01*
X94373133Y-55439017D01*
X94393348Y-55372135D01*
X94444725Y-55327618D01*
X94502734Y-55300568D01*
X94689139Y-55170047D01*
X94850047Y-55009139D01*
X94980568Y-54822734D01*
X95076739Y-54616496D01*
X95135635Y-54396692D01*
X95155468Y-54170000D01*
X95135635Y-53943308D01*
X95076739Y-53723504D01*
X94980568Y-53517266D01*
X94850047Y-53330861D01*
X94850045Y-53330858D01*
X94689141Y-53169954D01*
X94502734Y-53039432D01*
X94502732Y-53039431D01*
X94296497Y-52943261D01*
X94296488Y-52943258D01*
X94076697Y-52884366D01*
X94076693Y-52884365D01*
X94076692Y-52884365D01*
X94076691Y-52884364D01*
X94076686Y-52884364D01*
X93850002Y-52864532D01*
X93849998Y-52864532D01*
X93623313Y-52884364D01*
X93623302Y-52884366D01*
X93403511Y-52943258D01*
X93403502Y-52943261D01*
X93197267Y-53039431D01*
X93197265Y-53039432D01*
X93010858Y-53169954D01*
X92849954Y-53330858D01*
X92719432Y-53517265D01*
X92719431Y-53517267D01*
X92623261Y-53723502D01*
X92623258Y-53723511D01*
X92564366Y-53943302D01*
X92564364Y-53943313D01*
X92544532Y-54169998D01*
X71762633Y-54169998D01*
X71690483Y-54065470D01*
X71572240Y-53960717D01*
X71572238Y-53960716D01*
X71572237Y-53960715D01*
X71432365Y-53887303D01*
X71278986Y-53849500D01*
X71278985Y-53849500D01*
X71121015Y-53849500D01*
X71121014Y-53849500D01*
X70967634Y-53887303D01*
X70827762Y-53960715D01*
X70709516Y-54065471D01*
X70619781Y-54195475D01*
X70619780Y-54195476D01*
X70563762Y-54343181D01*
X70544722Y-54499999D01*
X70544722Y-54500000D01*
X70563762Y-54656818D01*
X70619780Y-54804523D01*
X70619781Y-54804524D01*
X70709517Y-54934530D01*
X70713382Y-54937954D01*
X70750510Y-54997142D01*
X70749744Y-55067008D01*
X70711328Y-55125368D01*
X70688784Y-55140567D01*
X70602761Y-55185716D01*
X70484516Y-55290471D01*
X70394781Y-55420475D01*
X70394780Y-55420476D01*
X70338762Y-55568181D01*
X70319722Y-55724999D01*
X54143792Y-55724999D01*
X54172765Y-55712206D01*
X54252206Y-55632765D01*
X54297585Y-55529991D01*
X54300500Y-55504865D01*
X54300500Y-54499999D01*
X58544722Y-54499999D01*
X58544722Y-54500000D01*
X58563762Y-54656818D01*
X58596516Y-54743181D01*
X58619780Y-54804523D01*
X58709517Y-54934530D01*
X58827760Y-55039283D01*
X58827762Y-55039284D01*
X58967634Y-55112696D01*
X59121014Y-55150500D01*
X59121015Y-55150500D01*
X59278985Y-55150500D01*
X59432365Y-55112696D01*
X59457260Y-55099630D01*
X59572240Y-55039283D01*
X59690483Y-54934530D01*
X59780220Y-54804523D01*
X59836237Y-54656818D01*
X59855278Y-54500000D01*
X59855278Y-54499999D01*
X62344722Y-54499999D01*
X62344722Y-54500000D01*
X62363762Y-54656818D01*
X62396516Y-54743181D01*
X62419780Y-54804523D01*
X62509517Y-54934530D01*
X62627760Y-55039283D01*
X62627762Y-55039284D01*
X62767634Y-55112696D01*
X62921014Y-55150500D01*
X62921015Y-55150500D01*
X63078985Y-55150500D01*
X63232365Y-55112696D01*
X63257260Y-55099630D01*
X63372240Y-55039283D01*
X63490483Y-54934530D01*
X63514318Y-54899999D01*
X68244722Y-54899999D01*
X68244722Y-54900000D01*
X68263762Y-55056818D01*
X68306704Y-55170045D01*
X68319780Y-55204523D01*
X68409517Y-55334530D01*
X68527760Y-55439283D01*
X68527762Y-55439284D01*
X68667634Y-55512696D01*
X68821014Y-55550500D01*
X68821015Y-55550500D01*
X68978985Y-55550500D01*
X69132365Y-55512696D01*
X69147280Y-55504868D01*
X69272240Y-55439283D01*
X69390483Y-55334530D01*
X69480220Y-55204523D01*
X69536237Y-55056818D01*
X69555278Y-54900000D01*
X69536237Y-54743182D01*
X69480220Y-54595477D01*
X69390483Y-54465470D01*
X69272240Y-54360717D01*
X69272238Y-54360716D01*
X69272237Y-54360715D01*
X69132365Y-54287303D01*
X68978986Y-54249500D01*
X68978985Y-54249500D01*
X68821015Y-54249500D01*
X68821014Y-54249500D01*
X68667634Y-54287303D01*
X68527762Y-54360715D01*
X68409516Y-54465471D01*
X68319781Y-54595475D01*
X68319780Y-54595476D01*
X68263762Y-54743181D01*
X68244722Y-54899999D01*
X63514318Y-54899999D01*
X63580220Y-54804523D01*
X63636237Y-54656818D01*
X63655278Y-54500000D01*
X63639046Y-54366320D01*
X63650506Y-54297401D01*
X63697410Y-54245614D01*
X63764865Y-54227407D01*
X63791816Y-54230980D01*
X63871014Y-54250500D01*
X63871015Y-54250500D01*
X64028985Y-54250500D01*
X64182365Y-54212696D01*
X64205602Y-54200500D01*
X64322240Y-54139283D01*
X64440483Y-54034530D01*
X64530220Y-53904523D01*
X64586237Y-53756818D01*
X64605278Y-53600000D01*
X64595233Y-53517267D01*
X64586237Y-53443181D01*
X64570050Y-53400500D01*
X64530220Y-53295477D01*
X64530215Y-53295470D01*
X64528167Y-53291566D01*
X64514443Y-53223057D01*
X64539935Y-53158004D01*
X64596552Y-53117061D01*
X64666316Y-53113226D01*
X64667620Y-53113539D01*
X64689430Y-53118915D01*
X64847400Y-53118915D01*
X65000780Y-53081111D01*
X65039641Y-53060715D01*
X65140655Y-53007698D01*
X65258898Y-52902945D01*
X65348635Y-52772938D01*
X65357335Y-52749999D01*
X88094722Y-52749999D01*
X88094722Y-52750000D01*
X88113762Y-52906818D01*
X88164056Y-53039431D01*
X88169780Y-53054523D01*
X88259517Y-53184530D01*
X88377760Y-53289283D01*
X88377762Y-53289284D01*
X88517634Y-53362696D01*
X88671014Y-53400500D01*
X88671015Y-53400500D01*
X88828985Y-53400500D01*
X88980567Y-53363139D01*
X89050367Y-53366208D01*
X89107429Y-53406528D01*
X89126182Y-53439565D01*
X89127554Y-53443182D01*
X89169780Y-53554523D01*
X89259517Y-53684530D01*
X89377760Y-53789283D01*
X89377762Y-53789284D01*
X89517634Y-53862696D01*
X89671014Y-53900500D01*
X89671015Y-53900500D01*
X89828985Y-53900500D01*
X89982365Y-53862696D01*
X89998200Y-53854385D01*
X90122240Y-53789283D01*
X90240483Y-53684530D01*
X90330220Y-53554523D01*
X90386237Y-53406818D01*
X90405278Y-53250000D01*
X90395015Y-53165471D01*
X90386237Y-53093181D01*
X90354961Y-53010715D01*
X90330220Y-52945477D01*
X90240483Y-52815470D01*
X90122240Y-52710717D01*
X90122238Y-52710716D01*
X90122237Y-52710715D01*
X89982365Y-52637303D01*
X89828986Y-52599500D01*
X89828985Y-52599500D01*
X89671015Y-52599500D01*
X89671014Y-52599500D01*
X89519433Y-52636860D01*
X89449631Y-52633790D01*
X89392569Y-52593470D01*
X89373817Y-52560434D01*
X89348293Y-52493132D01*
X89330220Y-52445477D01*
X89240483Y-52315470D01*
X89122240Y-52210717D01*
X89122238Y-52210716D01*
X89122237Y-52210715D01*
X88982365Y-52137303D01*
X88828986Y-52099500D01*
X88828985Y-52099500D01*
X88671015Y-52099500D01*
X88671014Y-52099500D01*
X88517634Y-52137303D01*
X88377762Y-52210715D01*
X88259516Y-52315471D01*
X88169781Y-52445475D01*
X88169780Y-52445476D01*
X88113762Y-52593181D01*
X88094722Y-52749999D01*
X65357335Y-52749999D01*
X65404652Y-52625233D01*
X65418698Y-52509554D01*
X65446320Y-52445376D01*
X65504254Y-52406319D01*
X65541794Y-52400500D01*
X65578985Y-52400500D01*
X65732365Y-52362696D01*
X65800836Y-52326759D01*
X65872240Y-52289283D01*
X65990483Y-52184530D01*
X66080220Y-52054523D01*
X66136237Y-51906818D01*
X66155278Y-51750000D01*
X66136237Y-51593182D01*
X66080220Y-51445477D01*
X65990483Y-51315470D01*
X65872240Y-51210717D01*
X65872238Y-51210716D01*
X65872237Y-51210715D01*
X65732365Y-51137303D01*
X65578986Y-51099500D01*
X65578985Y-51099500D01*
X65421015Y-51099500D01*
X65421014Y-51099500D01*
X65267634Y-51137303D01*
X65127762Y-51210715D01*
X65009516Y-51315471D01*
X64919781Y-51445475D01*
X64919780Y-51445476D01*
X64863762Y-51593181D01*
X64849717Y-51708861D01*
X64822095Y-51773039D01*
X64764161Y-51812096D01*
X64726621Y-51817915D01*
X64689429Y-51817915D01*
X64536049Y-51855718D01*
X64396177Y-51929130D01*
X64277931Y-52033886D01*
X64188196Y-52163890D01*
X64188195Y-52163891D01*
X64132177Y-52311596D01*
X64113137Y-52468414D01*
X64113137Y-52468415D01*
X64132177Y-52625233D01*
X64188196Y-52772940D01*
X64190249Y-52776852D01*
X64203971Y-52845361D01*
X64178476Y-52910413D01*
X64121858Y-52951355D01*
X64052094Y-52955187D01*
X64050778Y-52954871D01*
X64036511Y-52951355D01*
X64028985Y-52949500D01*
X63871015Y-52949500D01*
X63871014Y-52949500D01*
X63717634Y-52987303D01*
X63577762Y-53060715D01*
X63541115Y-53093181D01*
X63462966Y-53162415D01*
X63459516Y-53165471D01*
X63369781Y-53295475D01*
X63369780Y-53295476D01*
X63313762Y-53443181D01*
X63294722Y-53599999D01*
X63294722Y-53600000D01*
X63310953Y-53733676D01*
X63299493Y-53802599D01*
X63252589Y-53854385D01*
X63185133Y-53872592D01*
X63158184Y-53869019D01*
X63078988Y-53849500D01*
X63078985Y-53849500D01*
X62921015Y-53849500D01*
X62921014Y-53849500D01*
X62767634Y-53887303D01*
X62627762Y-53960715D01*
X62509516Y-54065471D01*
X62419781Y-54195475D01*
X62419780Y-54195476D01*
X62363762Y-54343181D01*
X62344722Y-54499999D01*
X59855278Y-54499999D01*
X59851086Y-54465471D01*
X59836237Y-54343181D01*
X59786750Y-54212696D01*
X59780220Y-54195477D01*
X59690483Y-54065470D01*
X59572240Y-53960717D01*
X59572238Y-53960716D01*
X59572237Y-53960715D01*
X59432365Y-53887303D01*
X59278986Y-53849500D01*
X59278985Y-53849500D01*
X59121015Y-53849500D01*
X59121014Y-53849500D01*
X58967634Y-53887303D01*
X58827762Y-53960715D01*
X58709516Y-54065471D01*
X58619781Y-54195475D01*
X58619780Y-54195476D01*
X58563762Y-54343181D01*
X58544722Y-54499999D01*
X54300500Y-54499999D01*
X54300499Y-53549999D01*
X59994722Y-53549999D01*
X59994722Y-53550000D01*
X60013762Y-53706818D01*
X60045038Y-53789284D01*
X60069780Y-53854523D01*
X60159517Y-53984530D01*
X60277760Y-54089283D01*
X60277762Y-54089284D01*
X60417634Y-54162696D01*
X60571014Y-54200500D01*
X60571015Y-54200500D01*
X60728985Y-54200500D01*
X60882365Y-54162696D01*
X60926974Y-54139283D01*
X61022240Y-54089283D01*
X61140483Y-53984530D01*
X61230220Y-53854523D01*
X61286237Y-53706818D01*
X61305278Y-53550000D01*
X61301304Y-53517266D01*
X61286237Y-53393181D01*
X61249182Y-53295476D01*
X61230220Y-53245477D01*
X61140483Y-53115470D01*
X61022240Y-53010717D01*
X61022238Y-53010716D01*
X61022237Y-53010715D01*
X60882365Y-52937303D01*
X60728986Y-52899500D01*
X60728985Y-52899500D01*
X60571015Y-52899500D01*
X60571014Y-52899500D01*
X60417634Y-52937303D01*
X60277762Y-53010715D01*
X60159516Y-53115471D01*
X60069781Y-53245475D01*
X60069780Y-53245476D01*
X60013762Y-53393181D01*
X59994722Y-53549999D01*
X54300499Y-53549999D01*
X54300499Y-53415136D01*
X54300497Y-53415117D01*
X54297586Y-53390012D01*
X54297585Y-53390010D01*
X54297585Y-53390009D01*
X54252206Y-53287235D01*
X54172765Y-53207794D01*
X54120077Y-53184530D01*
X54069992Y-53162415D01*
X54044865Y-53159500D01*
X51955143Y-53159500D01*
X51955117Y-53159502D01*
X51930012Y-53162413D01*
X51930008Y-53162415D01*
X51827235Y-53207793D01*
X51747794Y-53287234D01*
X51702415Y-53390006D01*
X51702415Y-53390008D01*
X51699500Y-53415131D01*
X51699500Y-55504856D01*
X51699502Y-55504882D01*
X51702413Y-55529987D01*
X51702415Y-55529991D01*
X51747793Y-55632764D01*
X51747794Y-55632765D01*
X51827235Y-55712206D01*
X51930009Y-55757585D01*
X51955135Y-55760500D01*
X52109558Y-55760499D01*
X52176596Y-55780183D01*
X52222351Y-55832987D01*
X52232295Y-55902145D01*
X52203270Y-55965701D01*
X52180684Y-55986072D01*
X52160857Y-55999955D01*
X51999954Y-56160858D01*
X51869432Y-56347265D01*
X51869431Y-56347267D01*
X51773261Y-56553502D01*
X51773258Y-56553511D01*
X51714366Y-56773302D01*
X51714364Y-56773313D01*
X51694532Y-56999998D01*
X49500500Y-56999998D01*
X49500500Y-52483577D01*
X61328300Y-52483577D01*
X61328300Y-52483578D01*
X61347340Y-52640396D01*
X61369753Y-52699492D01*
X61403358Y-52788101D01*
X61493095Y-52918108D01*
X61611338Y-53022861D01*
X61611340Y-53022862D01*
X61751212Y-53096274D01*
X61904592Y-53134078D01*
X61904593Y-53134078D01*
X62062563Y-53134078D01*
X62215943Y-53096274D01*
X62283694Y-53060715D01*
X62355818Y-53022861D01*
X62474061Y-52918108D01*
X62563798Y-52788101D01*
X62619815Y-52640396D01*
X62637696Y-52493132D01*
X62665318Y-52428954D01*
X62723252Y-52389897D01*
X62760792Y-52384078D01*
X62812563Y-52384078D01*
X62965943Y-52346274D01*
X63024634Y-52315470D01*
X63105818Y-52272861D01*
X63224061Y-52168108D01*
X63313798Y-52038101D01*
X63369815Y-51890396D01*
X63388856Y-51733578D01*
X63369815Y-51576760D01*
X63313798Y-51429055D01*
X63224061Y-51299048D01*
X63105818Y-51194295D01*
X63105816Y-51194294D01*
X63105815Y-51194293D01*
X62965943Y-51120881D01*
X62812564Y-51083078D01*
X62812563Y-51083078D01*
X62654593Y-51083078D01*
X62654592Y-51083078D01*
X62501212Y-51120881D01*
X62361340Y-51194293D01*
X62243094Y-51299049D01*
X62153359Y-51429053D01*
X62153358Y-51429054D01*
X62097340Y-51576759D01*
X62079460Y-51724024D01*
X62051838Y-51788202D01*
X61993904Y-51827259D01*
X61956364Y-51833078D01*
X61904592Y-51833078D01*
X61751212Y-51870881D01*
X61611340Y-51944293D01*
X61493094Y-52049049D01*
X61403359Y-52179053D01*
X61403358Y-52179054D01*
X61347340Y-52326759D01*
X61328300Y-52483577D01*
X49500500Y-52483577D01*
X49500500Y-49999999D01*
X68094722Y-49999999D01*
X68094722Y-50000000D01*
X68113762Y-50156818D01*
X68169780Y-50304523D01*
X68259517Y-50434530D01*
X68377760Y-50539283D01*
X68377762Y-50539284D01*
X68517634Y-50612696D01*
X68671014Y-50650500D01*
X68671015Y-50650500D01*
X68828985Y-50650500D01*
X68982365Y-50612696D01*
X69122240Y-50539283D01*
X69240483Y-50434530D01*
X69330220Y-50304523D01*
X69386237Y-50156818D01*
X69405278Y-50000000D01*
X69405278Y-49999999D01*
X72594722Y-49999999D01*
X72594722Y-50000000D01*
X72613762Y-50156818D01*
X72669780Y-50304523D01*
X72759517Y-50434530D01*
X72877760Y-50539283D01*
X72877762Y-50539284D01*
X73017634Y-50612696D01*
X73171014Y-50650500D01*
X73171015Y-50650500D01*
X73328985Y-50650500D01*
X73482365Y-50612696D01*
X73622240Y-50539283D01*
X73740483Y-50434530D01*
X73830220Y-50304523D01*
X73886237Y-50156818D01*
X73905278Y-50000000D01*
X73886237Y-49843182D01*
X73830220Y-49695477D01*
X73740483Y-49565470D01*
X73622240Y-49460717D01*
X73622238Y-49460716D01*
X73622237Y-49460715D01*
X73482365Y-49387303D01*
X73328986Y-49349500D01*
X73328985Y-49349500D01*
X73171015Y-49349500D01*
X73171014Y-49349500D01*
X73017634Y-49387303D01*
X72877762Y-49460715D01*
X72759516Y-49565471D01*
X72669781Y-49695475D01*
X72669780Y-49695476D01*
X72613762Y-49843181D01*
X72594722Y-49999999D01*
X69405278Y-49999999D01*
X69386237Y-49843182D01*
X69330220Y-49695477D01*
X69240483Y-49565470D01*
X69122240Y-49460717D01*
X69122238Y-49460716D01*
X69122237Y-49460715D01*
X68982365Y-49387303D01*
X68828986Y-49349500D01*
X68828985Y-49349500D01*
X68671015Y-49349500D01*
X68671014Y-49349500D01*
X68517634Y-49387303D01*
X68377762Y-49460715D01*
X68259516Y-49565471D01*
X68169781Y-49695475D01*
X68169780Y-49695476D01*
X68113762Y-49843181D01*
X68094722Y-49999999D01*
X49500500Y-49999999D01*
X49500500Y-42979998D01*
X51694532Y-42979998D01*
X51694532Y-42980001D01*
X51714364Y-43206686D01*
X51714366Y-43206697D01*
X51773258Y-43426488D01*
X51773261Y-43426497D01*
X51869431Y-43632732D01*
X51869432Y-43632734D01*
X51999954Y-43819141D01*
X52160858Y-43980045D01*
X52160861Y-43980047D01*
X52347266Y-44110568D01*
X52405275Y-44137618D01*
X52457714Y-44183791D01*
X52476866Y-44250984D01*
X52456650Y-44317865D01*
X52405275Y-44362382D01*
X52347267Y-44389431D01*
X52347265Y-44389432D01*
X52160858Y-44519954D01*
X51999954Y-44680858D01*
X51869432Y-44867265D01*
X51869431Y-44867267D01*
X51773261Y-45073502D01*
X51773258Y-45073511D01*
X51714366Y-45293302D01*
X51714364Y-45293313D01*
X51694532Y-45519998D01*
X51694532Y-45520001D01*
X51714364Y-45746686D01*
X51714366Y-45746697D01*
X51773258Y-45966488D01*
X51773261Y-45966497D01*
X51869431Y-46172732D01*
X51869432Y-46172734D01*
X51999954Y-46359141D01*
X52160858Y-46520045D01*
X52160861Y-46520047D01*
X52347266Y-46650568D01*
X52405275Y-46677618D01*
X52457714Y-46723791D01*
X52476866Y-46790984D01*
X52456650Y-46857865D01*
X52405275Y-46902382D01*
X52347267Y-46929431D01*
X52347265Y-46929432D01*
X52160858Y-47059954D01*
X51999954Y-47220858D01*
X51869432Y-47407265D01*
X51869431Y-47407267D01*
X51773261Y-47613502D01*
X51773258Y-47613511D01*
X51714366Y-47833302D01*
X51714364Y-47833313D01*
X51694532Y-48059998D01*
X51694532Y-48060001D01*
X51714364Y-48286686D01*
X51714366Y-48286697D01*
X51773258Y-48506488D01*
X51773261Y-48506497D01*
X51869431Y-48712732D01*
X51869432Y-48712734D01*
X51999954Y-48899141D01*
X52160858Y-49060045D01*
X52160861Y-49060047D01*
X52347266Y-49190568D01*
X52553504Y-49286739D01*
X52773308Y-49345635D01*
X52935230Y-49359801D01*
X52999998Y-49365468D01*
X53000000Y-49365468D01*
X53000002Y-49365468D01*
X53056673Y-49360509D01*
X53226692Y-49345635D01*
X53446496Y-49286739D01*
X53652734Y-49190568D01*
X53839139Y-49060047D01*
X54000047Y-48899139D01*
X54104475Y-48749999D01*
X84344722Y-48749999D01*
X84344722Y-48750000D01*
X84363762Y-48906818D01*
X84419780Y-49054523D01*
X84509517Y-49184530D01*
X84627760Y-49289283D01*
X84627762Y-49289284D01*
X84767634Y-49362696D01*
X84921014Y-49400500D01*
X84921015Y-49400500D01*
X85078985Y-49400500D01*
X85232365Y-49362696D01*
X85372240Y-49289283D01*
X85490483Y-49184530D01*
X85580220Y-49054523D01*
X85636237Y-48906818D01*
X85655278Y-48750000D01*
X85636237Y-48593182D01*
X85580220Y-48445477D01*
X85490483Y-48315470D01*
X85372240Y-48210717D01*
X85372238Y-48210716D01*
X85372237Y-48210715D01*
X85232365Y-48137303D01*
X85078986Y-48099500D01*
X85078985Y-48099500D01*
X84921015Y-48099500D01*
X84921014Y-48099500D01*
X84767634Y-48137303D01*
X84627762Y-48210715D01*
X84509516Y-48315471D01*
X84419781Y-48445475D01*
X84419780Y-48445476D01*
X84363762Y-48593181D01*
X84344722Y-48749999D01*
X54104475Y-48749999D01*
X54130568Y-48712734D01*
X54226739Y-48506496D01*
X54285635Y-48286692D01*
X54305468Y-48060000D01*
X54285635Y-47833308D01*
X54226739Y-47613504D01*
X54130568Y-47407266D01*
X54000047Y-47220861D01*
X54000045Y-47220858D01*
X53839141Y-47059954D01*
X53652734Y-46929432D01*
X53652728Y-46929429D01*
X53594725Y-46902382D01*
X53542285Y-46856210D01*
X53523133Y-46789017D01*
X53543348Y-46722135D01*
X53594725Y-46677618D01*
X53652734Y-46650568D01*
X53839139Y-46520047D01*
X54000047Y-46359139D01*
X54095117Y-46223363D01*
X54149691Y-46179740D01*
X54219189Y-46172546D01*
X54281544Y-46204068D01*
X54309250Y-46250328D01*
X54311846Y-46249253D01*
X54314955Y-46256760D01*
X54314956Y-46256762D01*
X54375464Y-46402841D01*
X54471718Y-46528282D01*
X54597159Y-46624536D01*
X54743238Y-46685044D01*
X54821619Y-46695363D01*
X54899999Y-46705682D01*
X54900000Y-46705682D01*
X54900001Y-46705682D01*
X54952254Y-46698802D01*
X55056762Y-46685044D01*
X55202841Y-46624536D01*
X55328282Y-46528282D01*
X55424536Y-46402841D01*
X55485044Y-46256762D01*
X55505682Y-46100000D01*
X55485044Y-45943238D01*
X55424536Y-45797159D01*
X55328282Y-45671718D01*
X55202841Y-45575464D01*
X55115492Y-45539283D01*
X55056762Y-45514956D01*
X55056760Y-45514955D01*
X54900001Y-45494318D01*
X54899999Y-45494318D01*
X54743239Y-45514955D01*
X54743237Y-45514956D01*
X54597157Y-45575464D01*
X54502850Y-45647829D01*
X54437681Y-45673023D01*
X54369236Y-45658984D01*
X54319246Y-45610170D01*
X54303583Y-45542079D01*
X54303830Y-45538721D01*
X54305468Y-45520000D01*
X54285635Y-45293308D01*
X54226739Y-45073504D01*
X54192463Y-44999999D01*
X64594722Y-44999999D01*
X64594722Y-45000000D01*
X64613762Y-45156818D01*
X64665524Y-45293302D01*
X64669780Y-45304523D01*
X64759517Y-45434530D01*
X64877760Y-45539283D01*
X64877762Y-45539284D01*
X65017634Y-45612696D01*
X65171014Y-45650500D01*
X65171015Y-45650500D01*
X65328985Y-45650500D01*
X65482365Y-45612696D01*
X65487178Y-45610170D01*
X65622240Y-45539283D01*
X65740483Y-45434530D01*
X65830220Y-45304523D01*
X65886237Y-45156818D01*
X65905278Y-45000000D01*
X65889162Y-44867267D01*
X65886237Y-44843181D01*
X65864992Y-44787164D01*
X65830220Y-44695477D01*
X65740483Y-44565470D01*
X65666581Y-44499999D01*
X78244722Y-44499999D01*
X78244722Y-44500000D01*
X78263762Y-44656818D01*
X78278424Y-44695477D01*
X78319780Y-44804523D01*
X78409517Y-44934530D01*
X78527760Y-45039283D01*
X78535429Y-45043308D01*
X78667634Y-45112696D01*
X78821014Y-45150500D01*
X78821015Y-45150500D01*
X78978985Y-45150500D01*
X79132365Y-45112696D01*
X79272240Y-45039283D01*
X79390483Y-44934530D01*
X79480220Y-44804523D01*
X79536237Y-44656818D01*
X79555278Y-44500000D01*
X79536237Y-44343182D01*
X79480220Y-44195477D01*
X79390483Y-44065470D01*
X79272240Y-43960717D01*
X79272238Y-43960716D01*
X79272237Y-43960715D01*
X79132365Y-43887303D01*
X78978986Y-43849500D01*
X78978985Y-43849500D01*
X78821015Y-43849500D01*
X78821014Y-43849500D01*
X78667634Y-43887303D01*
X78527762Y-43960715D01*
X78409516Y-44065471D01*
X78319781Y-44195475D01*
X78319780Y-44195476D01*
X78263762Y-44343181D01*
X78244722Y-44499999D01*
X65666581Y-44499999D01*
X65622240Y-44460717D01*
X65622238Y-44460716D01*
X65622237Y-44460715D01*
X65482365Y-44387303D01*
X65328986Y-44349500D01*
X65328985Y-44349500D01*
X65171015Y-44349500D01*
X65171014Y-44349500D01*
X65017634Y-44387303D01*
X64877762Y-44460715D01*
X64759516Y-44565471D01*
X64669781Y-44695475D01*
X64669780Y-44695476D01*
X64613762Y-44843181D01*
X64594722Y-44999999D01*
X54192463Y-44999999D01*
X54130568Y-44867266D01*
X54010281Y-44695477D01*
X54000045Y-44680858D01*
X53839141Y-44519954D01*
X53652734Y-44389432D01*
X53652728Y-44389429D01*
X53594725Y-44362382D01*
X53542285Y-44316210D01*
X53523133Y-44249017D01*
X53543348Y-44182135D01*
X53594725Y-44137618D01*
X53652734Y-44110568D01*
X53839139Y-43980047D01*
X54000047Y-43819139D01*
X54130568Y-43632734D01*
X54226739Y-43426496D01*
X54285635Y-43206692D01*
X54305468Y-42980000D01*
X54303857Y-42961591D01*
X54299801Y-42915230D01*
X54285635Y-42753308D01*
X54279388Y-42729994D01*
X92344859Y-42729994D01*
X92344859Y-42730005D01*
X92365385Y-42977729D01*
X92365387Y-42977738D01*
X92426412Y-43218717D01*
X92526266Y-43446364D01*
X92626564Y-43599882D01*
X93285387Y-42941059D01*
X93290889Y-42961591D01*
X93369881Y-43098408D01*
X93481592Y-43210119D01*
X93618409Y-43289111D01*
X93638940Y-43294612D01*
X92979942Y-43953609D01*
X93026768Y-43990055D01*
X93026770Y-43990056D01*
X93066766Y-44011701D01*
X93116357Y-44060920D01*
X93131465Y-44129137D01*
X93107295Y-44194693D01*
X93078872Y-44222331D01*
X93010859Y-44269953D01*
X92849954Y-44430858D01*
X92719432Y-44617265D01*
X92719431Y-44617267D01*
X92623261Y-44823502D01*
X92623258Y-44823511D01*
X92564366Y-45043302D01*
X92564364Y-45043313D01*
X92544532Y-45269998D01*
X92544532Y-45270001D01*
X92564364Y-45496686D01*
X92564366Y-45496697D01*
X92623258Y-45716488D01*
X92623261Y-45716497D01*
X92719431Y-45922732D01*
X92719432Y-45922734D01*
X92849954Y-46109141D01*
X93010857Y-46270044D01*
X93030680Y-46283924D01*
X93074306Y-46338500D01*
X93081500Y-46407999D01*
X93049978Y-46470354D01*
X92989749Y-46505768D01*
X92959559Y-46509500D01*
X92805144Y-46509500D01*
X92805117Y-46509502D01*
X92780012Y-46512413D01*
X92780008Y-46512415D01*
X92677235Y-46557793D01*
X92597794Y-46637234D01*
X92552415Y-46740006D01*
X92552415Y-46740008D01*
X92549500Y-46765131D01*
X92549500Y-48854856D01*
X92549502Y-48854882D01*
X92552413Y-48879987D01*
X92552415Y-48879991D01*
X92597793Y-48982764D01*
X92597794Y-48982765D01*
X92677235Y-49062206D01*
X92780009Y-49107585D01*
X92805135Y-49110500D01*
X94894864Y-49110499D01*
X94894879Y-49110497D01*
X94894882Y-49110497D01*
X94919987Y-49107586D01*
X94919988Y-49107585D01*
X94919991Y-49107585D01*
X95022765Y-49062206D01*
X95102206Y-48982765D01*
X95147585Y-48879991D01*
X95150500Y-48854865D01*
X95150499Y-46765136D01*
X95150497Y-46765117D01*
X95147586Y-46740012D01*
X95147585Y-46740010D01*
X95147585Y-46740009D01*
X95102206Y-46637235D01*
X95022765Y-46557794D01*
X95022763Y-46557793D01*
X94919992Y-46512415D01*
X94894868Y-46509500D01*
X94894865Y-46509500D01*
X94740442Y-46509500D01*
X94673403Y-46489815D01*
X94627648Y-46437011D01*
X94617704Y-46367853D01*
X94646729Y-46304297D01*
X94669320Y-46283924D01*
X94689139Y-46270047D01*
X94850047Y-46109139D01*
X94980568Y-45922734D01*
X95076739Y-45716496D01*
X95135635Y-45496692D01*
X95155468Y-45270000D01*
X95135635Y-45043308D01*
X95076739Y-44823504D01*
X94980568Y-44617266D01*
X94850047Y-44430861D01*
X94850045Y-44430858D01*
X94689141Y-44269954D01*
X94621127Y-44222331D01*
X94577502Y-44167755D01*
X94570308Y-44098257D01*
X94601830Y-44035902D01*
X94633234Y-44011701D01*
X94673224Y-43990060D01*
X94673231Y-43990055D01*
X94720056Y-43953609D01*
X94061059Y-43294612D01*
X94081591Y-43289111D01*
X94218408Y-43210119D01*
X94330119Y-43098408D01*
X94409111Y-42961591D01*
X94414612Y-42941060D01*
X95073434Y-43599882D01*
X95173731Y-43446369D01*
X95273587Y-43218717D01*
X95334612Y-42977738D01*
X95334614Y-42977729D01*
X95355141Y-42730005D01*
X95355141Y-42729994D01*
X95334614Y-42482270D01*
X95334612Y-42482261D01*
X95273587Y-42241282D01*
X95173731Y-42013630D01*
X95073434Y-41860116D01*
X94414612Y-42518939D01*
X94409111Y-42498409D01*
X94330119Y-42361592D01*
X94218408Y-42249881D01*
X94081591Y-42170889D01*
X94061060Y-42165387D01*
X94720057Y-41506390D01*
X94720056Y-41506389D01*
X94673229Y-41469943D01*
X94673225Y-41469940D01*
X94633232Y-41448297D01*
X94583642Y-41399078D01*
X94568534Y-41330861D01*
X94592705Y-41265306D01*
X94621122Y-41237671D01*
X94689139Y-41190047D01*
X94850047Y-41029139D01*
X94980568Y-40842734D01*
X95076739Y-40636496D01*
X95135635Y-40416692D01*
X95155468Y-40190000D01*
X95135635Y-39963308D01*
X95076739Y-39743504D01*
X94980568Y-39537266D01*
X94863457Y-39370012D01*
X94850045Y-39350858D01*
X94689141Y-39189954D01*
X94502734Y-39059432D01*
X94502732Y-39059431D01*
X94296497Y-38963261D01*
X94296488Y-38963258D01*
X94076697Y-38904366D01*
X94076693Y-38904365D01*
X94076692Y-38904365D01*
X94076691Y-38904364D01*
X94076686Y-38904364D01*
X93850002Y-38884532D01*
X93849998Y-38884532D01*
X93623313Y-38904364D01*
X93623302Y-38904366D01*
X93403511Y-38963258D01*
X93403502Y-38963261D01*
X93197267Y-39059431D01*
X93197265Y-39059432D01*
X93010858Y-39189954D01*
X92849954Y-39350858D01*
X92719432Y-39537265D01*
X92719431Y-39537267D01*
X92623261Y-39743502D01*
X92623258Y-39743511D01*
X92564366Y-39963302D01*
X92564364Y-39963313D01*
X92544532Y-40189998D01*
X92544532Y-40190001D01*
X92564364Y-40416686D01*
X92564366Y-40416697D01*
X92623258Y-40636488D01*
X92623261Y-40636497D01*
X92719431Y-40842732D01*
X92719432Y-40842734D01*
X92849954Y-41029141D01*
X93010859Y-41190046D01*
X93078872Y-41237669D01*
X93122497Y-41292246D01*
X93129691Y-41361744D01*
X93098168Y-41424099D01*
X93066767Y-41448298D01*
X93026765Y-41469945D01*
X92979942Y-41506388D01*
X92979942Y-41506390D01*
X93638940Y-42165387D01*
X93618409Y-42170889D01*
X93481592Y-42249881D01*
X93369881Y-42361592D01*
X93290889Y-42498409D01*
X93285387Y-42518939D01*
X92626564Y-41860116D01*
X92526267Y-42013632D01*
X92426412Y-42241282D01*
X92365387Y-42482261D01*
X92365385Y-42482270D01*
X92344859Y-42729994D01*
X54279388Y-42729994D01*
X54226739Y-42533504D01*
X54130568Y-42327266D01*
X54000047Y-42140861D01*
X54000045Y-42140858D01*
X53839141Y-41979954D01*
X53819318Y-41966074D01*
X53775693Y-41911498D01*
X53768499Y-41841999D01*
X53800021Y-41779644D01*
X53850439Y-41749999D01*
X74844722Y-41749999D01*
X74844722Y-41750000D01*
X74863762Y-41906818D01*
X74891500Y-41979955D01*
X74919780Y-42054523D01*
X75009517Y-42184530D01*
X75127760Y-42289283D01*
X75127762Y-42289284D01*
X75267634Y-42362696D01*
X75421014Y-42400500D01*
X75421015Y-42400500D01*
X75578985Y-42400500D01*
X75732365Y-42362696D01*
X75799872Y-42327265D01*
X75872240Y-42289283D01*
X75990483Y-42184530D01*
X76080220Y-42054523D01*
X76136237Y-41906818D01*
X76155278Y-41750000D01*
X76155278Y-41749999D01*
X78844722Y-41749999D01*
X78844722Y-41750000D01*
X78863762Y-41906818D01*
X78891500Y-41979955D01*
X78919780Y-42054523D01*
X79009517Y-42184530D01*
X79127760Y-42289283D01*
X79127762Y-42289284D01*
X79267634Y-42362696D01*
X79421014Y-42400500D01*
X79421015Y-42400500D01*
X79578985Y-42400500D01*
X79732365Y-42362696D01*
X79799872Y-42327265D01*
X79872240Y-42289283D01*
X79990483Y-42184530D01*
X80080220Y-42054523D01*
X80136237Y-41906818D01*
X80155278Y-41750000D01*
X80154578Y-41744230D01*
X80136237Y-41593181D01*
X80089499Y-41469945D01*
X80080220Y-41445477D01*
X79990483Y-41315470D01*
X79872240Y-41210717D01*
X79872238Y-41210716D01*
X79872237Y-41210715D01*
X79732365Y-41137303D01*
X79578986Y-41099500D01*
X79578985Y-41099500D01*
X79421015Y-41099500D01*
X79421014Y-41099500D01*
X79267634Y-41137303D01*
X79127762Y-41210715D01*
X79009516Y-41315471D01*
X78919781Y-41445475D01*
X78919780Y-41445476D01*
X78863762Y-41593181D01*
X78844722Y-41749999D01*
X76155278Y-41749999D01*
X76154578Y-41744230D01*
X76136237Y-41593181D01*
X76089499Y-41469945D01*
X76080220Y-41445477D01*
X75990483Y-41315470D01*
X75872240Y-41210717D01*
X75872238Y-41210716D01*
X75872237Y-41210715D01*
X75732365Y-41137303D01*
X75578986Y-41099500D01*
X75578985Y-41099500D01*
X75421015Y-41099500D01*
X75421014Y-41099500D01*
X75267634Y-41137303D01*
X75127762Y-41210715D01*
X75009516Y-41315471D01*
X74919781Y-41445475D01*
X74919780Y-41445476D01*
X74863762Y-41593181D01*
X74844722Y-41749999D01*
X53850439Y-41749999D01*
X53860251Y-41744230D01*
X53890441Y-41740499D01*
X54044856Y-41740499D01*
X54044864Y-41740499D01*
X54044879Y-41740497D01*
X54044882Y-41740497D01*
X54069987Y-41737586D01*
X54069988Y-41737585D01*
X54069991Y-41737585D01*
X54172765Y-41692206D01*
X54252206Y-41612765D01*
X54253177Y-41610565D01*
X54256010Y-41607210D01*
X54258699Y-41603286D01*
X54259095Y-41603557D01*
X54298258Y-41557189D01*
X54365043Y-41536658D01*
X54413450Y-41549323D01*
X54414651Y-41546426D01*
X54422158Y-41549535D01*
X54422159Y-41549536D01*
X54568238Y-41610044D01*
X54588914Y-41612766D01*
X54724999Y-41630682D01*
X54725000Y-41630682D01*
X54725001Y-41630682D01*
X54777254Y-41623802D01*
X54881762Y-41610044D01*
X55027841Y-41549536D01*
X55153282Y-41453282D01*
X55249536Y-41327841D01*
X55310044Y-41181762D01*
X55330682Y-41025000D01*
X55310044Y-40868238D01*
X55249536Y-40722159D01*
X55153282Y-40596718D01*
X55027841Y-40500464D01*
X54881762Y-40439956D01*
X54881760Y-40439955D01*
X54725001Y-40419318D01*
X54724999Y-40419318D01*
X54568239Y-40439955D01*
X54568234Y-40439957D01*
X54471951Y-40479839D01*
X54402482Y-40487308D01*
X54340003Y-40456033D01*
X54304351Y-40395944D01*
X54300499Y-40365278D01*
X54300499Y-39999999D01*
X66944722Y-39999999D01*
X66944722Y-40000000D01*
X66963762Y-40156818D01*
X67019780Y-40304523D01*
X67109517Y-40434530D01*
X67227760Y-40539283D01*
X67227762Y-40539284D01*
X67367634Y-40612696D01*
X67521014Y-40650500D01*
X67521015Y-40650500D01*
X67678985Y-40650500D01*
X67832365Y-40612696D01*
X67868337Y-40593816D01*
X67972240Y-40539283D01*
X68090483Y-40434530D01*
X68180220Y-40304523D01*
X68236237Y-40156818D01*
X68255278Y-40000000D01*
X68250824Y-39963313D01*
X68236237Y-39843181D01*
X68198433Y-39743502D01*
X68180220Y-39695477D01*
X68090483Y-39565470D01*
X67972240Y-39460717D01*
X67972238Y-39460716D01*
X67972237Y-39460715D01*
X67832365Y-39387303D01*
X67678986Y-39349500D01*
X67678985Y-39349500D01*
X67521015Y-39349500D01*
X67521014Y-39349500D01*
X67367634Y-39387303D01*
X67227762Y-39460715D01*
X67109516Y-39565471D01*
X67019781Y-39695475D01*
X67019780Y-39695476D01*
X66963762Y-39843181D01*
X66944722Y-39999999D01*
X54300499Y-39999999D01*
X54300499Y-39395143D01*
X54300499Y-39395136D01*
X54299591Y-39387303D01*
X54297586Y-39370012D01*
X54297585Y-39370010D01*
X54297585Y-39370009D01*
X54252206Y-39267235D01*
X54172765Y-39187794D01*
X54102611Y-39156818D01*
X54069992Y-39142415D01*
X54044865Y-39139500D01*
X51955143Y-39139500D01*
X51955117Y-39139502D01*
X51930012Y-39142413D01*
X51930008Y-39142415D01*
X51827235Y-39187793D01*
X51747794Y-39267234D01*
X51702415Y-39370006D01*
X51702415Y-39370008D01*
X51699500Y-39395131D01*
X51699500Y-41484856D01*
X51699502Y-41484882D01*
X51702413Y-41509987D01*
X51702415Y-41509991D01*
X51747793Y-41612764D01*
X51747794Y-41612765D01*
X51827235Y-41692206D01*
X51930009Y-41737585D01*
X51955135Y-41740500D01*
X52109558Y-41740499D01*
X52176596Y-41760183D01*
X52222351Y-41812987D01*
X52232295Y-41882145D01*
X52203270Y-41945701D01*
X52180684Y-41966072D01*
X52160857Y-41979955D01*
X51999954Y-42140858D01*
X51869432Y-42327265D01*
X51869431Y-42327267D01*
X51773261Y-42533502D01*
X51773258Y-42533511D01*
X51714366Y-42753302D01*
X51714364Y-42753313D01*
X51694532Y-42979998D01*
X49500500Y-42979998D01*
X49500500Y-38999999D01*
X76594722Y-38999999D01*
X76594722Y-39000000D01*
X76613762Y-39156818D01*
X76669780Y-39304523D01*
X76759517Y-39434530D01*
X76877760Y-39539283D01*
X76877762Y-39539284D01*
X77017634Y-39612696D01*
X77171014Y-39650500D01*
X77171015Y-39650500D01*
X77328985Y-39650500D01*
X77482365Y-39612696D01*
X77622240Y-39539283D01*
X77740483Y-39434530D01*
X77830220Y-39304523D01*
X77886237Y-39156818D01*
X77905278Y-39000000D01*
X77905278Y-38999999D01*
X79344722Y-38999999D01*
X79344722Y-39000000D01*
X79363762Y-39156818D01*
X79419780Y-39304523D01*
X79509517Y-39434530D01*
X79627760Y-39539283D01*
X79627762Y-39539284D01*
X79767634Y-39612696D01*
X79921014Y-39650500D01*
X79921015Y-39650500D01*
X80078985Y-39650500D01*
X80232365Y-39612696D01*
X80372240Y-39539283D01*
X80490483Y-39434530D01*
X80580220Y-39304523D01*
X80636237Y-39156818D01*
X80655278Y-39000000D01*
X80636237Y-38843182D01*
X80580220Y-38695477D01*
X80490483Y-38565470D01*
X80372240Y-38460717D01*
X80372238Y-38460716D01*
X80372237Y-38460715D01*
X80232365Y-38387303D01*
X80078986Y-38349500D01*
X80078985Y-38349500D01*
X79921015Y-38349500D01*
X79921014Y-38349500D01*
X79767634Y-38387303D01*
X79627762Y-38460715D01*
X79509516Y-38565471D01*
X79419781Y-38695475D01*
X79419780Y-38695476D01*
X79363762Y-38843181D01*
X79344722Y-38999999D01*
X77905278Y-38999999D01*
X77886237Y-38843182D01*
X77830220Y-38695477D01*
X77740483Y-38565470D01*
X77622240Y-38460717D01*
X77622238Y-38460716D01*
X77622237Y-38460715D01*
X77482365Y-38387303D01*
X77328986Y-38349500D01*
X77328985Y-38349500D01*
X77171015Y-38349500D01*
X77171014Y-38349500D01*
X77017634Y-38387303D01*
X76877762Y-38460715D01*
X76759516Y-38565471D01*
X76669781Y-38695475D01*
X76669780Y-38695476D01*
X76613762Y-38843181D01*
X76594722Y-38999999D01*
X49500500Y-38999999D01*
X49500500Y-37899999D01*
X69944722Y-37899999D01*
X69944722Y-37900000D01*
X69963762Y-38056818D01*
X70019780Y-38204523D01*
X70109517Y-38334530D01*
X70227760Y-38439283D01*
X70227762Y-38439284D01*
X70367634Y-38512696D01*
X70521014Y-38550500D01*
X70521015Y-38550500D01*
X70678985Y-38550500D01*
X70832365Y-38512696D01*
X70931401Y-38460717D01*
X70972240Y-38439283D01*
X71090483Y-38334530D01*
X71180220Y-38204523D01*
X71236237Y-38056818D01*
X71255278Y-37900000D01*
X71236237Y-37743182D01*
X71180220Y-37595477D01*
X71090483Y-37465470D01*
X70972240Y-37360717D01*
X70972238Y-37360716D01*
X70972237Y-37360715D01*
X70832365Y-37287303D01*
X70678986Y-37249500D01*
X70678985Y-37249500D01*
X70521015Y-37249500D01*
X70521014Y-37249500D01*
X70367634Y-37287303D01*
X70227762Y-37360715D01*
X70109516Y-37465471D01*
X70019781Y-37595475D01*
X70019780Y-37595476D01*
X69963762Y-37743181D01*
X69944722Y-37899999D01*
X49500500Y-37899999D01*
X49500500Y-34003750D01*
X49500726Y-33996263D01*
X49507167Y-33889778D01*
X50599500Y-33889778D01*
X50599500Y-34110221D01*
X50633985Y-34327952D01*
X50702103Y-34537603D01*
X50702104Y-34537606D01*
X50802187Y-34734025D01*
X50931752Y-34912358D01*
X50931756Y-34912363D01*
X51087636Y-35068243D01*
X51087641Y-35068247D01*
X51243192Y-35181260D01*
X51265978Y-35197815D01*
X51394375Y-35263237D01*
X51462393Y-35297895D01*
X51462396Y-35297896D01*
X51567221Y-35331955D01*
X51672049Y-35366015D01*
X51889778Y-35400500D01*
X51889779Y-35400500D01*
X52110221Y-35400500D01*
X52110222Y-35400500D01*
X52327951Y-35366015D01*
X52537606Y-35297895D01*
X52734022Y-35197815D01*
X52912365Y-35068242D01*
X53068242Y-34912365D01*
X53197815Y-34734022D01*
X53297895Y-34537606D01*
X53366015Y-34327951D01*
X53400500Y-34110222D01*
X53400500Y-34099999D01*
X55813472Y-34099999D01*
X55813472Y-34100000D01*
X55832512Y-34256818D01*
X55879057Y-34379544D01*
X55888530Y-34404523D01*
X55978267Y-34534530D01*
X56096510Y-34639283D01*
X56096512Y-34639284D01*
X56236384Y-34712696D01*
X56389764Y-34750500D01*
X56389765Y-34750500D01*
X56547735Y-34750500D01*
X56701115Y-34712696D01*
X56840990Y-34639283D01*
X56959233Y-34534530D01*
X57048970Y-34404523D01*
X57052808Y-34394400D01*
X57094986Y-34338700D01*
X57160583Y-34314642D01*
X57228773Y-34329869D01*
X57277907Y-34379544D01*
X57284692Y-34394402D01*
X57288530Y-34404524D01*
X57309242Y-34434530D01*
X57378267Y-34534530D01*
X57496510Y-34639283D01*
X57496512Y-34639284D01*
X57636384Y-34712696D01*
X57789764Y-34750500D01*
X57789765Y-34750500D01*
X57947735Y-34750500D01*
X58101115Y-34712696D01*
X58240990Y-34639283D01*
X58359233Y-34534530D01*
X58448970Y-34404523D01*
X58452808Y-34394400D01*
X58494986Y-34338700D01*
X58560583Y-34314642D01*
X58628773Y-34329869D01*
X58677907Y-34379544D01*
X58684692Y-34394402D01*
X58688530Y-34404524D01*
X58709242Y-34434530D01*
X58778267Y-34534530D01*
X58896510Y-34639283D01*
X58896512Y-34639284D01*
X59036384Y-34712696D01*
X59189764Y-34750500D01*
X59189765Y-34750500D01*
X59347735Y-34750500D01*
X59501115Y-34712696D01*
X59640990Y-34639283D01*
X59759233Y-34534530D01*
X59848970Y-34404523D01*
X59904987Y-34256818D01*
X59924028Y-34100000D01*
X59915442Y-34029283D01*
X59904987Y-33943181D01*
X59873934Y-33861301D01*
X59848970Y-33795477D01*
X59759233Y-33665470D01*
X59640990Y-33560717D01*
X59640988Y-33560716D01*
X59640987Y-33560715D01*
X59506252Y-33489999D01*
X67494722Y-33489999D01*
X67494722Y-33490000D01*
X67513762Y-33646818D01*
X67569780Y-33794523D01*
X67659517Y-33924530D01*
X67777760Y-34029283D01*
X67777762Y-34029284D01*
X67917634Y-34102696D01*
X68071014Y-34140500D01*
X68071015Y-34140500D01*
X68228985Y-34140500D01*
X68382365Y-34102696D01*
X68392593Y-34097327D01*
X68461100Y-34083600D01*
X68526154Y-34109090D01*
X68566164Y-34163150D01*
X68619781Y-34304525D01*
X68658983Y-34361319D01*
X68709517Y-34434530D01*
X68827760Y-34539283D01*
X68827762Y-34539284D01*
X68967634Y-34612696D01*
X69121014Y-34650500D01*
X69121015Y-34650500D01*
X69278985Y-34650500D01*
X69432365Y-34612696D01*
X69456557Y-34599999D01*
X69572240Y-34539283D01*
X69690483Y-34434530D01*
X69780220Y-34304523D01*
X69836237Y-34156818D01*
X69855278Y-34000000D01*
X69836237Y-33843182D01*
X69817783Y-33794524D01*
X69800898Y-33750000D01*
X69780220Y-33695477D01*
X69690483Y-33565470D01*
X69572240Y-33460717D01*
X69572238Y-33460716D01*
X69572237Y-33460715D01*
X69432365Y-33387303D01*
X69278986Y-33349500D01*
X69278985Y-33349500D01*
X69121015Y-33349500D01*
X69121014Y-33349500D01*
X68967634Y-33387303D01*
X68967631Y-33387304D01*
X68957399Y-33392675D01*
X68888891Y-33406398D01*
X68823838Y-33380904D01*
X68783835Y-33326848D01*
X68754690Y-33249999D01*
X68730220Y-33185477D01*
X68640483Y-33055470D01*
X68522240Y-32950717D01*
X68522238Y-32950716D01*
X68522237Y-32950715D01*
X68382365Y-32877303D01*
X68228986Y-32839500D01*
X68228985Y-32839500D01*
X68071015Y-32839500D01*
X68071014Y-32839500D01*
X67917634Y-32877303D01*
X67777762Y-32950715D01*
X67659516Y-33055471D01*
X67569781Y-33185475D01*
X67569780Y-33185476D01*
X67513762Y-33333181D01*
X67494722Y-33489999D01*
X59506252Y-33489999D01*
X59501115Y-33487303D01*
X59347736Y-33449500D01*
X59347735Y-33449500D01*
X59189765Y-33449500D01*
X59189764Y-33449500D01*
X59036384Y-33487303D01*
X58896512Y-33560715D01*
X58896510Y-33560717D01*
X58795618Y-33650099D01*
X58778266Y-33665471D01*
X58688531Y-33795475D01*
X58688529Y-33795478D01*
X58684691Y-33805599D01*
X58642513Y-33861301D01*
X58576915Y-33885357D01*
X58508725Y-33870129D01*
X58459592Y-33820453D01*
X58452809Y-33805599D01*
X58448970Y-33795478D01*
X58448970Y-33795477D01*
X58359233Y-33665470D01*
X58240990Y-33560717D01*
X58240988Y-33560716D01*
X58240987Y-33560715D01*
X58101115Y-33487303D01*
X57947736Y-33449500D01*
X57947735Y-33449500D01*
X57789765Y-33449500D01*
X57789764Y-33449500D01*
X57636384Y-33487303D01*
X57496512Y-33560715D01*
X57496510Y-33560717D01*
X57395618Y-33650099D01*
X57378266Y-33665471D01*
X57288531Y-33795475D01*
X57288529Y-33795478D01*
X57284691Y-33805599D01*
X57242513Y-33861301D01*
X57176915Y-33885357D01*
X57108725Y-33870129D01*
X57059592Y-33820453D01*
X57052809Y-33805599D01*
X57048970Y-33795478D01*
X57048970Y-33795477D01*
X56959233Y-33665470D01*
X56840990Y-33560717D01*
X56840988Y-33560716D01*
X56840987Y-33560715D01*
X56701115Y-33487303D01*
X56547736Y-33449500D01*
X56547735Y-33449500D01*
X56389765Y-33449500D01*
X56389764Y-33449500D01*
X56236384Y-33487303D01*
X56096512Y-33560715D01*
X56096510Y-33560717D01*
X55995618Y-33650099D01*
X55978266Y-33665471D01*
X55888531Y-33795475D01*
X55888530Y-33795476D01*
X55832512Y-33943181D01*
X55813472Y-34099999D01*
X53400500Y-34099999D01*
X53400500Y-33889778D01*
X53366015Y-33672049D01*
X53306865Y-33490000D01*
X53297896Y-33462396D01*
X53297895Y-33462393D01*
X53238613Y-33346048D01*
X53197815Y-33265978D01*
X53139327Y-33185476D01*
X53068247Y-33087641D01*
X53068243Y-33087636D01*
X52912363Y-32931756D01*
X52912358Y-32931752D01*
X52734025Y-32802187D01*
X52734024Y-32802186D01*
X52734022Y-32802185D01*
X52671096Y-32770122D01*
X52537606Y-32702104D01*
X52537603Y-32702103D01*
X52327952Y-32633985D01*
X52219086Y-32616742D01*
X52110222Y-32599500D01*
X51889778Y-32599500D01*
X51817201Y-32610995D01*
X51672047Y-32633985D01*
X51462396Y-32702103D01*
X51462393Y-32702104D01*
X51265974Y-32802187D01*
X51087641Y-32931752D01*
X51087636Y-32931756D01*
X50931756Y-33087636D01*
X50931752Y-33087641D01*
X50802187Y-33265974D01*
X50702104Y-33462393D01*
X50702103Y-33462396D01*
X50633985Y-33672047D01*
X50599500Y-33889778D01*
X49507167Y-33889778D01*
X49507382Y-33886229D01*
X49518271Y-33706201D01*
X49520076Y-33691340D01*
X49524465Y-33667394D01*
X49571780Y-33409197D01*
X49575364Y-33394663D01*
X49660696Y-33120822D01*
X49665998Y-33106841D01*
X49783731Y-32845249D01*
X49790676Y-32832016D01*
X49939080Y-32586526D01*
X49947567Y-32574230D01*
X50121551Y-32352155D01*
X78070000Y-32352155D01*
X78070000Y-33000000D01*
X78986988Y-33000000D01*
X78954075Y-33057007D01*
X78920000Y-33184174D01*
X78920000Y-33315826D01*
X78954075Y-33442993D01*
X78986988Y-33500000D01*
X78070000Y-33500000D01*
X78070000Y-34147844D01*
X78076401Y-34207372D01*
X78076403Y-34207379D01*
X78126645Y-34342086D01*
X78126649Y-34342093D01*
X78212809Y-34457187D01*
X78212812Y-34457190D01*
X78327906Y-34543350D01*
X78327913Y-34543354D01*
X78462620Y-34593596D01*
X78462627Y-34593598D01*
X78522155Y-34599999D01*
X78522172Y-34600000D01*
X79170000Y-34600000D01*
X79170000Y-33683012D01*
X79227007Y-33715925D01*
X79354174Y-33750000D01*
X79485826Y-33750000D01*
X79612993Y-33715925D01*
X79670000Y-33683012D01*
X79670000Y-34600000D01*
X80317828Y-34600000D01*
X80317844Y-34599999D01*
X80377372Y-34593598D01*
X80377379Y-34593596D01*
X80512086Y-34543354D01*
X80512093Y-34543350D01*
X80627187Y-34457190D01*
X80627190Y-34457187D01*
X80713350Y-34342093D01*
X80713354Y-34342086D01*
X80763596Y-34207379D01*
X80763598Y-34207372D01*
X80769999Y-34147844D01*
X80770000Y-34147827D01*
X80770000Y-33953268D01*
X80789685Y-33886229D01*
X80842489Y-33840474D01*
X80911647Y-33830530D01*
X80975203Y-33859555D01*
X80992950Y-33878537D01*
X81049385Y-33953268D01*
X81091061Y-34008456D01*
X81106128Y-34028407D01*
X81263698Y-34172052D01*
X81444981Y-34284298D01*
X81643802Y-34361321D01*
X81853390Y-34400500D01*
X81853392Y-34400500D01*
X82066608Y-34400500D01*
X82066610Y-34400500D01*
X82276198Y-34361321D01*
X82475019Y-34284298D01*
X82656302Y-34172052D01*
X82813872Y-34028407D01*
X82942366Y-33858255D01*
X82973625Y-33795478D01*
X83037403Y-33667394D01*
X83037403Y-33667393D01*
X83037405Y-33667389D01*
X83095756Y-33462310D01*
X83106529Y-33346047D01*
X83132315Y-33281111D01*
X83174622Y-33250804D01*
X83283130Y-33250804D01*
X83319503Y-33271668D01*
X83351693Y-33333681D01*
X83353470Y-33346047D01*
X83364244Y-33462310D01*
X83417675Y-33650099D01*
X83422596Y-33667392D01*
X83422596Y-33667394D01*
X83517632Y-33858253D01*
X83646127Y-34028406D01*
X83646128Y-34028407D01*
X83803698Y-34172052D01*
X83984981Y-34284298D01*
X84183802Y-34361321D01*
X84393390Y-34400500D01*
X84393392Y-34400500D01*
X84606608Y-34400500D01*
X84606610Y-34400500D01*
X84816198Y-34361321D01*
X85015019Y-34284298D01*
X85196302Y-34172052D01*
X85353872Y-34028407D01*
X85482366Y-33858255D01*
X85513625Y-33795478D01*
X85577403Y-33667394D01*
X85577403Y-33667393D01*
X85577405Y-33667389D01*
X85635756Y-33462310D01*
X85646529Y-33346047D01*
X85672315Y-33281111D01*
X85714622Y-33250804D01*
X85823130Y-33250804D01*
X85859503Y-33271668D01*
X85891693Y-33333681D01*
X85893470Y-33346047D01*
X85904244Y-33462310D01*
X85957675Y-33650099D01*
X85962596Y-33667392D01*
X85962596Y-33667394D01*
X86057632Y-33858253D01*
X86186127Y-34028406D01*
X86186128Y-34028407D01*
X86343698Y-34172052D01*
X86524981Y-34284298D01*
X86723802Y-34361321D01*
X86933390Y-34400500D01*
X86933392Y-34400500D01*
X87146608Y-34400500D01*
X87146610Y-34400500D01*
X87356198Y-34361321D01*
X87555019Y-34284298D01*
X87736302Y-34172052D01*
X87893872Y-34028407D01*
X87998561Y-33889778D01*
X93599500Y-33889778D01*
X93599500Y-34110221D01*
X93633985Y-34327952D01*
X93702103Y-34537603D01*
X93702104Y-34537606D01*
X93802187Y-34734025D01*
X93931752Y-34912358D01*
X93931756Y-34912363D01*
X94087636Y-35068243D01*
X94087641Y-35068247D01*
X94243192Y-35181260D01*
X94265978Y-35197815D01*
X94394375Y-35263237D01*
X94462393Y-35297895D01*
X94462396Y-35297896D01*
X94567221Y-35331955D01*
X94672049Y-35366015D01*
X94889778Y-35400500D01*
X94889779Y-35400500D01*
X95110221Y-35400500D01*
X95110222Y-35400500D01*
X95327951Y-35366015D01*
X95537606Y-35297895D01*
X95734022Y-35197815D01*
X95912365Y-35068242D01*
X96068242Y-34912365D01*
X96197815Y-34734022D01*
X96297895Y-34537606D01*
X96366015Y-34327951D01*
X96400500Y-34110222D01*
X96400500Y-33889778D01*
X96366015Y-33672049D01*
X96306865Y-33490000D01*
X96297896Y-33462396D01*
X96297895Y-33462393D01*
X96238613Y-33346048D01*
X96197815Y-33265978D01*
X96139327Y-33185476D01*
X96068247Y-33087641D01*
X96068243Y-33087636D01*
X95912363Y-32931756D01*
X95912358Y-32931752D01*
X95734025Y-32802187D01*
X95734024Y-32802186D01*
X95734022Y-32802185D01*
X95671096Y-32770122D01*
X95537606Y-32702104D01*
X95537603Y-32702103D01*
X95327952Y-32633985D01*
X95219086Y-32616742D01*
X95110222Y-32599500D01*
X94889778Y-32599500D01*
X94817201Y-32610995D01*
X94672047Y-32633985D01*
X94462396Y-32702103D01*
X94462393Y-32702104D01*
X94265974Y-32802187D01*
X94087641Y-32931752D01*
X94087636Y-32931756D01*
X93931756Y-33087636D01*
X93931752Y-33087641D01*
X93802187Y-33265974D01*
X93702104Y-33462393D01*
X93702103Y-33462396D01*
X93633985Y-33672047D01*
X93599500Y-33889778D01*
X87998561Y-33889778D01*
X88022366Y-33858255D01*
X88053625Y-33795478D01*
X88117403Y-33667394D01*
X88117403Y-33667393D01*
X88117405Y-33667389D01*
X88175756Y-33462310D01*
X88195429Y-33250000D01*
X88175756Y-33037690D01*
X88117405Y-32832611D01*
X88117403Y-32832606D01*
X88117403Y-32832605D01*
X88022367Y-32641746D01*
X87893872Y-32471593D01*
X87762874Y-32352172D01*
X87736302Y-32327948D01*
X87555019Y-32215702D01*
X87555017Y-32215701D01*
X87405829Y-32157906D01*
X87356198Y-32138679D01*
X87146610Y-32099500D01*
X86933390Y-32099500D01*
X86723802Y-32138679D01*
X86723799Y-32138679D01*
X86723799Y-32138680D01*
X86524982Y-32215701D01*
X86524980Y-32215702D01*
X86343699Y-32327947D01*
X86186127Y-32471593D01*
X86057632Y-32641746D01*
X85962596Y-32832605D01*
X85962596Y-32832607D01*
X85904244Y-33037689D01*
X85893471Y-33153951D01*
X85867685Y-33218888D01*
X85823130Y-33250804D01*
X85714622Y-33250804D01*
X85716869Y-33249194D01*
X85680497Y-33228331D01*
X85648307Y-33166318D01*
X85646529Y-33153951D01*
X85642796Y-33113665D01*
X85635756Y-33037690D01*
X85577405Y-32832611D01*
X85577403Y-32832606D01*
X85577403Y-32832605D01*
X85482367Y-32641746D01*
X85353872Y-32471593D01*
X85222874Y-32352172D01*
X85196302Y-32327948D01*
X85015019Y-32215702D01*
X85015017Y-32215701D01*
X84865829Y-32157906D01*
X84816198Y-32138679D01*
X84606610Y-32099500D01*
X84393390Y-32099500D01*
X84183802Y-32138679D01*
X84183799Y-32138679D01*
X84183799Y-32138680D01*
X83984982Y-32215701D01*
X83984980Y-32215702D01*
X83803699Y-32327947D01*
X83646127Y-32471593D01*
X83517632Y-32641746D01*
X83422596Y-32832605D01*
X83422596Y-32832607D01*
X83364244Y-33037689D01*
X83353471Y-33153951D01*
X83327685Y-33218888D01*
X83283130Y-33250804D01*
X83174622Y-33250804D01*
X83176869Y-33249194D01*
X83140497Y-33228331D01*
X83108307Y-33166318D01*
X83106529Y-33153951D01*
X83102796Y-33113665D01*
X83095756Y-33037690D01*
X83037405Y-32832611D01*
X83037403Y-32832606D01*
X83037403Y-32832605D01*
X82942367Y-32641746D01*
X82813872Y-32471593D01*
X82682874Y-32352172D01*
X82656302Y-32327948D01*
X82475019Y-32215702D01*
X82475017Y-32215701D01*
X82325829Y-32157906D01*
X82276198Y-32138679D01*
X82066610Y-32099500D01*
X81853390Y-32099500D01*
X81643802Y-32138679D01*
X81643799Y-32138679D01*
X81643799Y-32138680D01*
X81444982Y-32215701D01*
X81444980Y-32215702D01*
X81263699Y-32327947D01*
X81106127Y-32471593D01*
X80992954Y-32621458D01*
X80936845Y-32663094D01*
X80867133Y-32667785D01*
X80805951Y-32634043D01*
X80772724Y-32572579D01*
X80770000Y-32546731D01*
X80770000Y-32352172D01*
X80769999Y-32352155D01*
X80763598Y-32292627D01*
X80763596Y-32292620D01*
X80713354Y-32157913D01*
X80713350Y-32157906D01*
X80627190Y-32042812D01*
X80627187Y-32042809D01*
X80512093Y-31956649D01*
X80512086Y-31956645D01*
X80377379Y-31906403D01*
X80377372Y-31906401D01*
X80317844Y-31900000D01*
X79670000Y-31900000D01*
X79670000Y-32816988D01*
X79612993Y-32784075D01*
X79485826Y-32750000D01*
X79354174Y-32750000D01*
X79227007Y-32784075D01*
X79170000Y-32816988D01*
X79170000Y-31900000D01*
X78522155Y-31900000D01*
X78462627Y-31906401D01*
X78462620Y-31906403D01*
X78327913Y-31956645D01*
X78327906Y-31956649D01*
X78212812Y-32042809D01*
X78212809Y-32042812D01*
X78126649Y-32157906D01*
X78126645Y-32157913D01*
X78076403Y-32292620D01*
X78076401Y-32292627D01*
X78070000Y-32352155D01*
X50121551Y-32352155D01*
X50124480Y-32348417D01*
X50134395Y-32337226D01*
X50337226Y-32134395D01*
X50348417Y-32124480D01*
X50574230Y-31947567D01*
X50586526Y-31939080D01*
X50832016Y-31790676D01*
X50845249Y-31783731D01*
X51106841Y-31665998D01*
X51120822Y-31660696D01*
X51394668Y-31575362D01*
X51409197Y-31571780D01*
X51691344Y-31520075D01*
X51706201Y-31518271D01*
X51996264Y-31500726D01*
X52003751Y-31500500D01*
X52065892Y-31500500D01*
X94934108Y-31500500D01*
X94996249Y-31500500D01*
X95003736Y-31500726D01*
G37*
%TD.AperFunction*%
M02*
