M48
; DRILL file {KiCad 8.0.3-8.0.3-0~ubuntu22.04.1} date 2024-06-18T13:07:57+0300
; FORMAT={-:-/ absolute / metric / decimal}
; #@! TF.CreationDate,2024-06-18T13:07:57+03:00
; #@! TF.GenerationSoftware,Kicad,Pcbnew,8.0.3-8.0.3-0~ubuntu22.04.1
; #@! TF.FileFunction,Plated,1,4,PTH
FMAT,2
METRIC
; #@! TA.AperFunction,Plated,PTH,ViaDrill
T1C0.300
; #@! TA.AperFunction,Plated,PTH,ComponentDrill
T2C1.000
; #@! TA.AperFunction,Plated,PTH,ComponentDrill
T3C1.200
%
G90
G05
T1
X54.725Y-41.025
X54.9Y-46.1
X56.469Y-34.1
X57.8Y-63.0
X57.869Y-34.1
X57.91Y-64.66
X58.0Y-59.125
X58.1Y-57.6
X58.5Y-65.75
X58.58Y-60.15
X58.75Y-67.0
X59.132Y-63.632
X59.2Y-54.5
X59.269Y-34.1
X59.95Y-41.1
X60.5Y-61.25
X60.65Y-53.55
X61.2Y-35.1
X61.45Y-41.1
X61.984Y-52.484
X62.0Y-34.4
X62.25Y-61.75
X62.734Y-51.734
X62.95Y-41.1
X63.0Y-54.5
X63.7Y-43.6
X63.95Y-53.6
X64.768Y-52.468
X65.25Y-45.0
X65.5Y-51.75
X67.6Y-40.0
X68.15Y-33.49
X68.75Y-48.75
X68.75Y-50.0
X68.9Y-40.0
X68.9Y-54.9
X69.2Y-34.0
X69.2Y-60.9
X69.25Y-37.79
X69.25Y-62.5
X69.3Y-67.8
X69.5Y-55.7
X69.787Y-35.5
X70.6Y-37.9
X70.975Y-55.725
X71.2Y-54.5
X71.4Y-56.7
X72.0Y-50.75
X73.25Y-50.0
X73.4Y-57.1
X73.75Y-64.0
X74.5Y-63.25
X75.25Y-56.75
X75.5Y-41.75
X75.5Y-63.75
X76.0Y-36.5
X77.25Y-33.25
X77.25Y-39.0
X78.9Y-44.5
X79.1Y-45.9
X79.5Y-41.75
X80.0Y-39.0
X80.75Y-37.75
X82.5Y-55.5
X82.75Y-62.75
X83.0Y-56.25
X84.5Y-56.0
X85.0Y-46.75
X85.0Y-48.75
X85.5Y-56.0
X85.9Y-44.3
X87.0Y-41.75
X88.75Y-52.75
X88.75Y-56.0
X89.75Y-53.25
X89.75Y-59.5
X91.0Y-42.2
X91.0Y-43.3
X92.1Y-42.2
X92.1Y-43.3
T2
X79.42Y-33.25
X79.45Y-67.5
X81.96Y-33.25
X81.99Y-67.5
X84.5Y-33.25
X84.53Y-67.5
X87.04Y-33.25
X87.07Y-67.5
T3
X53.0Y-40.44
X53.0Y-42.98
X53.0Y-45.52
X53.0Y-48.06
X53.0Y-54.46
X53.0Y-57.0
X53.0Y-59.54
X53.0Y-62.08
X93.85Y-40.19
X93.85Y-42.73
X93.85Y-45.27
X93.85Y-47.81
X93.85Y-54.17
X93.85Y-56.71
X93.85Y-59.25
X93.85Y-61.79
M30
