%TF.GenerationSoftware,KiCad,Pcbnew,8.0.3-8.0.3-0~ubuntu22.04.1*%
%TF.CreationDate,2024-06-18T13:07:19+03:00*%
%TF.ProjectId,DoserDriver,446f7365-7244-4726-9976-65722e6b6963,rev?*%
%TF.SameCoordinates,Original*%
%TF.FileFunction,Legend,Bot*%
%TF.FilePolarity,Positive*%
%FSLAX46Y46*%
G04 Gerber Fmt 4.6, Leading zero omitted, Abs format (unit mm)*
G04 Created by KiCad (PCBNEW 8.0.3-8.0.3-0~ubuntu22.04.1) date 2024-06-18 13:07:19*
%MOMM*%
%LPD*%
G01*
G04 APERTURE LIST*
%ADD10C,0.100000*%
%ADD11C,0.200000*%
%ADD12R,2.000000X2.000000*%
%ADD13C,2.000000*%
%ADD14C,2.200000*%
%ADD15R,1.700000X1.700000*%
%ADD16O,1.700000X1.700000*%
G04 APERTURE END LIST*
D10*
X59556265Y-68953071D02*
X60032455Y-68953071D01*
X59461027Y-68667356D02*
X59794360Y-69667356D01*
X59794360Y-69667356D02*
X60127693Y-68667356D01*
X60889598Y-69334023D02*
X60889598Y-68667356D01*
X60461027Y-69334023D02*
X60461027Y-68810214D01*
X60461027Y-68810214D02*
X60508646Y-68714976D01*
X60508646Y-68714976D02*
X60603884Y-68667356D01*
X60603884Y-68667356D02*
X60746741Y-68667356D01*
X60746741Y-68667356D02*
X60841979Y-68714976D01*
X60841979Y-68714976D02*
X60889598Y-68762595D01*
X61222932Y-69334023D02*
X61603884Y-69334023D01*
X61365789Y-69667356D02*
X61365789Y-68810214D01*
X61365789Y-68810214D02*
X61413408Y-68714976D01*
X61413408Y-68714976D02*
X61508646Y-68667356D01*
X61508646Y-68667356D02*
X61603884Y-68667356D01*
X62080075Y-68667356D02*
X61984837Y-68714976D01*
X61984837Y-68714976D02*
X61937218Y-68762595D01*
X61937218Y-68762595D02*
X61889599Y-68857833D01*
X61889599Y-68857833D02*
X61889599Y-69143547D01*
X61889599Y-69143547D02*
X61937218Y-69238785D01*
X61937218Y-69238785D02*
X61984837Y-69286404D01*
X61984837Y-69286404D02*
X62080075Y-69334023D01*
X62080075Y-69334023D02*
X62222932Y-69334023D01*
X62222932Y-69334023D02*
X62318170Y-69286404D01*
X62318170Y-69286404D02*
X62365789Y-69238785D01*
X62365789Y-69238785D02*
X62413408Y-69143547D01*
X62413408Y-69143547D02*
X62413408Y-68857833D01*
X62413408Y-68857833D02*
X62365789Y-68762595D01*
X62365789Y-68762595D02*
X62318170Y-68714976D01*
X62318170Y-68714976D02*
X62222932Y-68667356D01*
X62222932Y-68667356D02*
X62080075Y-68667356D01*
X62841980Y-68667356D02*
X62841980Y-69667356D01*
X62841980Y-69667356D02*
X63080075Y-69667356D01*
X63080075Y-69667356D02*
X63222932Y-69619737D01*
X63222932Y-69619737D02*
X63318170Y-69524499D01*
X63318170Y-69524499D02*
X63365789Y-69429261D01*
X63365789Y-69429261D02*
X63413408Y-69238785D01*
X63413408Y-69238785D02*
X63413408Y-69095928D01*
X63413408Y-69095928D02*
X63365789Y-68905452D01*
X63365789Y-68905452D02*
X63318170Y-68810214D01*
X63318170Y-68810214D02*
X63222932Y-68714976D01*
X63222932Y-68714976D02*
X63080075Y-68667356D01*
X63080075Y-68667356D02*
X62841980Y-68667356D01*
X63984837Y-68667356D02*
X63889599Y-68714976D01*
X63889599Y-68714976D02*
X63841980Y-68762595D01*
X63841980Y-68762595D02*
X63794361Y-68857833D01*
X63794361Y-68857833D02*
X63794361Y-69143547D01*
X63794361Y-69143547D02*
X63841980Y-69238785D01*
X63841980Y-69238785D02*
X63889599Y-69286404D01*
X63889599Y-69286404D02*
X63984837Y-69334023D01*
X63984837Y-69334023D02*
X64127694Y-69334023D01*
X64127694Y-69334023D02*
X64222932Y-69286404D01*
X64222932Y-69286404D02*
X64270551Y-69238785D01*
X64270551Y-69238785D02*
X64318170Y-69143547D01*
X64318170Y-69143547D02*
X64318170Y-68857833D01*
X64318170Y-68857833D02*
X64270551Y-68762595D01*
X64270551Y-68762595D02*
X64222932Y-68714976D01*
X64222932Y-68714976D02*
X64127694Y-68667356D01*
X64127694Y-68667356D02*
X63984837Y-68667356D01*
X64699123Y-68714976D02*
X64794361Y-68667356D01*
X64794361Y-68667356D02*
X64984837Y-68667356D01*
X64984837Y-68667356D02*
X65080075Y-68714976D01*
X65080075Y-68714976D02*
X65127694Y-68810214D01*
X65127694Y-68810214D02*
X65127694Y-68857833D01*
X65127694Y-68857833D02*
X65080075Y-68953071D01*
X65080075Y-68953071D02*
X64984837Y-69000690D01*
X64984837Y-69000690D02*
X64841980Y-69000690D01*
X64841980Y-69000690D02*
X64746742Y-69048309D01*
X64746742Y-69048309D02*
X64699123Y-69143547D01*
X64699123Y-69143547D02*
X64699123Y-69191166D01*
X64699123Y-69191166D02*
X64746742Y-69286404D01*
X64746742Y-69286404D02*
X64841980Y-69334023D01*
X64841980Y-69334023D02*
X64984837Y-69334023D01*
X64984837Y-69334023D02*
X65080075Y-69286404D01*
X65937218Y-68714976D02*
X65841980Y-68667356D01*
X65841980Y-68667356D02*
X65651504Y-68667356D01*
X65651504Y-68667356D02*
X65556266Y-68714976D01*
X65556266Y-68714976D02*
X65508647Y-68810214D01*
X65508647Y-68810214D02*
X65508647Y-69191166D01*
X65508647Y-69191166D02*
X65556266Y-69286404D01*
X65556266Y-69286404D02*
X65651504Y-69334023D01*
X65651504Y-69334023D02*
X65841980Y-69334023D01*
X65841980Y-69334023D02*
X65937218Y-69286404D01*
X65937218Y-69286404D02*
X65984837Y-69191166D01*
X65984837Y-69191166D02*
X65984837Y-69095928D01*
X65984837Y-69095928D02*
X65508647Y-69000690D01*
X66413409Y-68667356D02*
X66413409Y-69334023D01*
X66413409Y-69143547D02*
X66461028Y-69238785D01*
X66461028Y-69238785D02*
X66508647Y-69286404D01*
X66508647Y-69286404D02*
X66603885Y-69334023D01*
X66603885Y-69334023D02*
X66699123Y-69334023D01*
X67032457Y-68667356D02*
X67032457Y-69667356D01*
X67032457Y-69667356D02*
X67270552Y-69667356D01*
X67270552Y-69667356D02*
X67413409Y-69619737D01*
X67413409Y-69619737D02*
X67508647Y-69524499D01*
X67508647Y-69524499D02*
X67556266Y-69429261D01*
X67556266Y-69429261D02*
X67603885Y-69238785D01*
X67603885Y-69238785D02*
X67603885Y-69095928D01*
X67603885Y-69095928D02*
X67556266Y-68905452D01*
X67556266Y-68905452D02*
X67508647Y-68810214D01*
X67508647Y-68810214D02*
X67413409Y-68714976D01*
X67413409Y-68714976D02*
X67270552Y-68667356D01*
X67270552Y-68667356D02*
X67032457Y-68667356D01*
X68032457Y-68667356D02*
X68032457Y-69334023D01*
X68032457Y-69143547D02*
X68080076Y-69238785D01*
X68080076Y-69238785D02*
X68127695Y-69286404D01*
X68127695Y-69286404D02*
X68222933Y-69334023D01*
X68222933Y-69334023D02*
X68318171Y-69334023D01*
X68651505Y-68667356D02*
X68651505Y-69334023D01*
X68651505Y-69667356D02*
X68603886Y-69619737D01*
X68603886Y-69619737D02*
X68651505Y-69572118D01*
X68651505Y-69572118D02*
X68699124Y-69619737D01*
X68699124Y-69619737D02*
X68651505Y-69667356D01*
X68651505Y-69667356D02*
X68651505Y-69572118D01*
X69032457Y-69334023D02*
X69270552Y-68667356D01*
X69270552Y-68667356D02*
X69508647Y-69334023D01*
X70270552Y-68714976D02*
X70175314Y-68667356D01*
X70175314Y-68667356D02*
X69984838Y-68667356D01*
X69984838Y-68667356D02*
X69889600Y-68714976D01*
X69889600Y-68714976D02*
X69841981Y-68810214D01*
X69841981Y-68810214D02*
X69841981Y-69191166D01*
X69841981Y-69191166D02*
X69889600Y-69286404D01*
X69889600Y-69286404D02*
X69984838Y-69334023D01*
X69984838Y-69334023D02*
X70175314Y-69334023D01*
X70175314Y-69334023D02*
X70270552Y-69286404D01*
X70270552Y-69286404D02*
X70318171Y-69191166D01*
X70318171Y-69191166D02*
X70318171Y-69095928D01*
X70318171Y-69095928D02*
X69841981Y-69000690D01*
X70746743Y-68667356D02*
X70746743Y-69334023D01*
X70746743Y-69143547D02*
X70794362Y-69238785D01*
X70794362Y-69238785D02*
X70841981Y-69286404D01*
X70841981Y-69286404D02*
X70937219Y-69334023D01*
X70937219Y-69334023D02*
X71032457Y-69334023D01*
X59461027Y-68057412D02*
X59794360Y-67057412D01*
X59794360Y-67057412D02*
X60127693Y-68057412D01*
X60889598Y-67057412D02*
X60889598Y-67581222D01*
X60889598Y-67581222D02*
X60841979Y-67676460D01*
X60841979Y-67676460D02*
X60746741Y-67724079D01*
X60746741Y-67724079D02*
X60556265Y-67724079D01*
X60556265Y-67724079D02*
X60461027Y-67676460D01*
X60889598Y-67105032D02*
X60794360Y-67057412D01*
X60794360Y-67057412D02*
X60556265Y-67057412D01*
X60556265Y-67057412D02*
X60461027Y-67105032D01*
X60461027Y-67105032D02*
X60413408Y-67200270D01*
X60413408Y-67200270D02*
X60413408Y-67295508D01*
X60413408Y-67295508D02*
X60461027Y-67390746D01*
X60461027Y-67390746D02*
X60556265Y-67438365D01*
X60556265Y-67438365D02*
X60794360Y-67438365D01*
X60794360Y-67438365D02*
X60889598Y-67485984D01*
X60461027Y-68057412D02*
X60508646Y-68009793D01*
X60508646Y-68009793D02*
X60461027Y-67962174D01*
X60461027Y-67962174D02*
X60413408Y-68009793D01*
X60413408Y-68009793D02*
X60461027Y-68057412D01*
X60461027Y-68057412D02*
X60461027Y-67962174D01*
X60841979Y-68057412D02*
X60889598Y-68009793D01*
X60889598Y-68009793D02*
X60841979Y-67962174D01*
X60841979Y-67962174D02*
X60794360Y-68009793D01*
X60794360Y-68009793D02*
X60841979Y-68057412D01*
X60841979Y-68057412D02*
X60841979Y-67962174D01*
X61365789Y-67057412D02*
X61365789Y-67724079D01*
X61365789Y-68057412D02*
X61318170Y-68009793D01*
X61318170Y-68009793D02*
X61365789Y-67962174D01*
X61365789Y-67962174D02*
X61413408Y-68009793D01*
X61413408Y-68009793D02*
X61365789Y-68057412D01*
X61365789Y-68057412D02*
X61365789Y-67962174D01*
X61841979Y-67724079D02*
X61841979Y-67057412D01*
X61841979Y-67628841D02*
X61889598Y-67676460D01*
X61889598Y-67676460D02*
X61984836Y-67724079D01*
X61984836Y-67724079D02*
X62127693Y-67724079D01*
X62127693Y-67724079D02*
X62222931Y-67676460D01*
X62222931Y-67676460D02*
X62270550Y-67581222D01*
X62270550Y-67581222D02*
X62270550Y-67057412D01*
X62889598Y-67057412D02*
X62794360Y-67105032D01*
X62794360Y-67105032D02*
X62746741Y-67152651D01*
X62746741Y-67152651D02*
X62699122Y-67247889D01*
X62699122Y-67247889D02*
X62699122Y-67533603D01*
X62699122Y-67533603D02*
X62746741Y-67628841D01*
X62746741Y-67628841D02*
X62794360Y-67676460D01*
X62794360Y-67676460D02*
X62889598Y-67724079D01*
X62889598Y-67724079D02*
X63032455Y-67724079D01*
X63032455Y-67724079D02*
X63127693Y-67676460D01*
X63127693Y-67676460D02*
X63175312Y-67628841D01*
X63175312Y-67628841D02*
X63222931Y-67533603D01*
X63222931Y-67533603D02*
X63222931Y-67247889D01*
X63222931Y-67247889D02*
X63175312Y-67152651D01*
X63175312Y-67152651D02*
X63127693Y-67105032D01*
X63127693Y-67105032D02*
X63032455Y-67057412D01*
X63032455Y-67057412D02*
X62889598Y-67057412D01*
X62794360Y-68057412D02*
X62841979Y-68009793D01*
X62841979Y-68009793D02*
X62794360Y-67962174D01*
X62794360Y-67962174D02*
X62746741Y-68009793D01*
X62746741Y-68009793D02*
X62794360Y-68057412D01*
X62794360Y-68057412D02*
X62794360Y-67962174D01*
X63175312Y-68057412D02*
X63222931Y-68009793D01*
X63222931Y-68009793D02*
X63175312Y-67962174D01*
X63175312Y-67962174D02*
X63127693Y-68009793D01*
X63127693Y-68009793D02*
X63175312Y-68057412D01*
X63175312Y-68057412D02*
X63175312Y-67962174D01*
X64413408Y-67057412D02*
X64413408Y-68057412D01*
X64413408Y-67581222D02*
X64984836Y-67581222D01*
X64984836Y-67057412D02*
X64984836Y-68057412D01*
X65841979Y-67105032D02*
X65746741Y-67057412D01*
X65746741Y-67057412D02*
X65556265Y-67057412D01*
X65556265Y-67057412D02*
X65461027Y-67105032D01*
X65461027Y-67105032D02*
X65413408Y-67200270D01*
X65413408Y-67200270D02*
X65413408Y-67581222D01*
X65413408Y-67581222D02*
X65461027Y-67676460D01*
X65461027Y-67676460D02*
X65556265Y-67724079D01*
X65556265Y-67724079D02*
X65746741Y-67724079D01*
X65746741Y-67724079D02*
X65841979Y-67676460D01*
X65841979Y-67676460D02*
X65889598Y-67581222D01*
X65889598Y-67581222D02*
X65889598Y-67485984D01*
X65889598Y-67485984D02*
X65413408Y-67390746D01*
X66318170Y-67057412D02*
X66318170Y-67724079D01*
X66318170Y-68057412D02*
X66270551Y-68009793D01*
X66270551Y-68009793D02*
X66318170Y-67962174D01*
X66318170Y-67962174D02*
X66365789Y-68009793D01*
X66365789Y-68009793D02*
X66318170Y-68057412D01*
X66318170Y-68057412D02*
X66318170Y-67962174D01*
X66794360Y-67724079D02*
X66794360Y-66866936D01*
X66794360Y-66866936D02*
X66746741Y-66771698D01*
X66746741Y-66771698D02*
X66651503Y-66724079D01*
X66651503Y-66724079D02*
X66603884Y-66724079D01*
X66794360Y-68057412D02*
X66746741Y-68009793D01*
X66746741Y-68009793D02*
X66794360Y-67962174D01*
X66794360Y-67962174D02*
X66841979Y-68009793D01*
X66841979Y-68009793D02*
X66794360Y-68057412D01*
X66794360Y-68057412D02*
X66794360Y-67962174D01*
X67699121Y-67057412D02*
X67699121Y-67581222D01*
X67699121Y-67581222D02*
X67651502Y-67676460D01*
X67651502Y-67676460D02*
X67556264Y-67724079D01*
X67556264Y-67724079D02*
X67365788Y-67724079D01*
X67365788Y-67724079D02*
X67270550Y-67676460D01*
X67699121Y-67105032D02*
X67603883Y-67057412D01*
X67603883Y-67057412D02*
X67365788Y-67057412D01*
X67365788Y-67057412D02*
X67270550Y-67105032D01*
X67270550Y-67105032D02*
X67222931Y-67200270D01*
X67222931Y-67200270D02*
X67222931Y-67295508D01*
X67222931Y-67295508D02*
X67270550Y-67390746D01*
X67270550Y-67390746D02*
X67365788Y-67438365D01*
X67365788Y-67438365D02*
X67603883Y-67438365D01*
X67603883Y-67438365D02*
X67699121Y-67485984D01*
X68175312Y-67057412D02*
X68175312Y-67724079D01*
X68175312Y-67533603D02*
X68222931Y-67628841D01*
X68222931Y-67628841D02*
X68270550Y-67676460D01*
X68270550Y-67676460D02*
X68365788Y-67724079D01*
X68365788Y-67724079D02*
X68461026Y-67724079D01*
X68794360Y-67057412D02*
X68794360Y-67724079D01*
X68794360Y-68057412D02*
X68746741Y-68009793D01*
X68746741Y-68009793D02*
X68794360Y-67962174D01*
X68794360Y-67962174D02*
X68841979Y-68009793D01*
X68841979Y-68009793D02*
X68794360Y-68057412D01*
X68794360Y-68057412D02*
X68794360Y-67962174D01*
X60175312Y-65542707D02*
X60127693Y-65495088D01*
X60127693Y-65495088D02*
X59984836Y-65447468D01*
X59984836Y-65447468D02*
X59889598Y-65447468D01*
X59889598Y-65447468D02*
X59746741Y-65495088D01*
X59746741Y-65495088D02*
X59651503Y-65590326D01*
X59651503Y-65590326D02*
X59603884Y-65685564D01*
X59603884Y-65685564D02*
X59556265Y-65876040D01*
X59556265Y-65876040D02*
X59556265Y-66018897D01*
X59556265Y-66018897D02*
X59603884Y-66209373D01*
X59603884Y-66209373D02*
X59651503Y-66304611D01*
X59651503Y-66304611D02*
X59746741Y-66399849D01*
X59746741Y-66399849D02*
X59889598Y-66447468D01*
X59889598Y-66447468D02*
X59984836Y-66447468D01*
X59984836Y-66447468D02*
X60127693Y-66399849D01*
X60127693Y-66399849D02*
X60175312Y-66352230D01*
X61032455Y-66114135D02*
X61032455Y-65447468D01*
X60603884Y-66114135D02*
X60603884Y-65590326D01*
X60603884Y-65590326D02*
X60651503Y-65495088D01*
X60651503Y-65495088D02*
X60746741Y-65447468D01*
X60746741Y-65447468D02*
X60889598Y-65447468D01*
X60889598Y-65447468D02*
X60984836Y-65495088D01*
X60984836Y-65495088D02*
X61032455Y-65542707D01*
X61651503Y-65447468D02*
X61556265Y-65495088D01*
X61556265Y-65495088D02*
X61508646Y-65590326D01*
X61508646Y-65590326D02*
X61508646Y-66447468D01*
X61889599Y-66114135D02*
X62270551Y-66114135D01*
X62032456Y-66447468D02*
X62032456Y-65590326D01*
X62032456Y-65590326D02*
X62080075Y-65495088D01*
X62080075Y-65495088D02*
X62175313Y-65447468D01*
X62175313Y-65447468D02*
X62270551Y-65447468D01*
X62603885Y-65447468D02*
X62603885Y-66114135D01*
X62603885Y-66447468D02*
X62556266Y-66399849D01*
X62556266Y-66399849D02*
X62603885Y-66352230D01*
X62603885Y-66352230D02*
X62651504Y-66399849D01*
X62651504Y-66399849D02*
X62603885Y-66447468D01*
X62603885Y-66447468D02*
X62603885Y-66352230D01*
X63080075Y-65447468D02*
X63080075Y-66114135D01*
X63080075Y-66018897D02*
X63127694Y-66066516D01*
X63127694Y-66066516D02*
X63222932Y-66114135D01*
X63222932Y-66114135D02*
X63365789Y-66114135D01*
X63365789Y-66114135D02*
X63461027Y-66066516D01*
X63461027Y-66066516D02*
X63508646Y-65971278D01*
X63508646Y-65971278D02*
X63508646Y-65447468D01*
X63508646Y-65971278D02*
X63556265Y-66066516D01*
X63556265Y-66066516D02*
X63651503Y-66114135D01*
X63651503Y-66114135D02*
X63794360Y-66114135D01*
X63794360Y-66114135D02*
X63889599Y-66066516D01*
X63889599Y-66066516D02*
X63937218Y-65971278D01*
X63937218Y-65971278D02*
X63937218Y-65447468D01*
X64841979Y-65447468D02*
X64841979Y-65971278D01*
X64841979Y-65971278D02*
X64794360Y-66066516D01*
X64794360Y-66066516D02*
X64699122Y-66114135D01*
X64699122Y-66114135D02*
X64508646Y-66114135D01*
X64508646Y-66114135D02*
X64413408Y-66066516D01*
X64841979Y-65495088D02*
X64746741Y-65447468D01*
X64746741Y-65447468D02*
X64508646Y-65447468D01*
X64508646Y-65447468D02*
X64413408Y-65495088D01*
X64413408Y-65495088D02*
X64365789Y-65590326D01*
X64365789Y-65590326D02*
X64365789Y-65685564D01*
X64365789Y-65685564D02*
X64413408Y-65780802D01*
X64413408Y-65780802D02*
X64508646Y-65828421D01*
X64508646Y-65828421D02*
X64746741Y-65828421D01*
X64746741Y-65828421D02*
X64841979Y-65876040D01*
X65175313Y-66114135D02*
X65556265Y-66114135D01*
X65318170Y-66447468D02*
X65318170Y-65590326D01*
X65318170Y-65590326D02*
X65365789Y-65495088D01*
X65365789Y-65495088D02*
X65461027Y-65447468D01*
X65461027Y-65447468D02*
X65556265Y-65447468D01*
X65889599Y-65447468D02*
X65889599Y-66114135D01*
X65889599Y-66447468D02*
X65841980Y-66399849D01*
X65841980Y-66399849D02*
X65889599Y-66352230D01*
X65889599Y-66352230D02*
X65937218Y-66399849D01*
X65937218Y-66399849D02*
X65889599Y-66447468D01*
X65889599Y-66447468D02*
X65889599Y-66352230D01*
X66794360Y-65495088D02*
X66699122Y-65447468D01*
X66699122Y-65447468D02*
X66508646Y-65447468D01*
X66508646Y-65447468D02*
X66413408Y-65495088D01*
X66413408Y-65495088D02*
X66365789Y-65542707D01*
X66365789Y-65542707D02*
X66318170Y-65637945D01*
X66318170Y-65637945D02*
X66318170Y-65923659D01*
X66318170Y-65923659D02*
X66365789Y-66018897D01*
X66365789Y-66018897D02*
X66413408Y-66066516D01*
X66413408Y-66066516D02*
X66508646Y-66114135D01*
X66508646Y-66114135D02*
X66699122Y-66114135D01*
X66699122Y-66114135D02*
X66794360Y-66066516D01*
X67175313Y-65495088D02*
X67270551Y-65447468D01*
X67270551Y-65447468D02*
X67461027Y-65447468D01*
X67461027Y-65447468D02*
X67556265Y-65495088D01*
X67556265Y-65495088D02*
X67603884Y-65590326D01*
X67603884Y-65590326D02*
X67603884Y-65637945D01*
X67603884Y-65637945D02*
X67556265Y-65733183D01*
X67556265Y-65733183D02*
X67461027Y-65780802D01*
X67461027Y-65780802D02*
X67318170Y-65780802D01*
X67318170Y-65780802D02*
X67222932Y-65828421D01*
X67222932Y-65828421D02*
X67175313Y-65923659D01*
X67175313Y-65923659D02*
X67175313Y-65971278D01*
X67175313Y-65971278D02*
X67222932Y-66066516D01*
X67222932Y-66066516D02*
X67318170Y-66114135D01*
X67318170Y-66114135D02*
X67461027Y-66114135D01*
X67461027Y-66114135D02*
X67556265Y-66066516D01*
X60127693Y-63837524D02*
X59556265Y-63837524D01*
X59841979Y-63837524D02*
X59841979Y-64837524D01*
X59841979Y-64837524D02*
X59746741Y-64694667D01*
X59746741Y-64694667D02*
X59651503Y-64599429D01*
X59651503Y-64599429D02*
X59556265Y-64551810D01*
X60984836Y-64837524D02*
X60794360Y-64837524D01*
X60794360Y-64837524D02*
X60699122Y-64789905D01*
X60699122Y-64789905D02*
X60651503Y-64742286D01*
X60651503Y-64742286D02*
X60556265Y-64599429D01*
X60556265Y-64599429D02*
X60508646Y-64408953D01*
X60508646Y-64408953D02*
X60508646Y-64028001D01*
X60508646Y-64028001D02*
X60556265Y-63932763D01*
X60556265Y-63932763D02*
X60603884Y-63885144D01*
X60603884Y-63885144D02*
X60699122Y-63837524D01*
X60699122Y-63837524D02*
X60889598Y-63837524D01*
X60889598Y-63837524D02*
X60984836Y-63885144D01*
X60984836Y-63885144D02*
X61032455Y-63932763D01*
X61032455Y-63932763D02*
X61080074Y-64028001D01*
X61080074Y-64028001D02*
X61080074Y-64266096D01*
X61080074Y-64266096D02*
X61032455Y-64361334D01*
X61032455Y-64361334D02*
X60984836Y-64408953D01*
X60984836Y-64408953D02*
X60889598Y-64456572D01*
X60889598Y-64456572D02*
X60699122Y-64456572D01*
X60699122Y-64456572D02*
X60603884Y-64408953D01*
X60603884Y-64408953D02*
X60556265Y-64361334D01*
X60556265Y-64361334D02*
X60508646Y-64266096D01*
X62222931Y-64885144D02*
X61365789Y-63599429D01*
X62984836Y-64837524D02*
X62794360Y-64837524D01*
X62794360Y-64837524D02*
X62699122Y-64789905D01*
X62699122Y-64789905D02*
X62651503Y-64742286D01*
X62651503Y-64742286D02*
X62556265Y-64599429D01*
X62556265Y-64599429D02*
X62508646Y-64408953D01*
X62508646Y-64408953D02*
X62508646Y-64028001D01*
X62508646Y-64028001D02*
X62556265Y-63932763D01*
X62556265Y-63932763D02*
X62603884Y-63885144D01*
X62603884Y-63885144D02*
X62699122Y-63837524D01*
X62699122Y-63837524D02*
X62889598Y-63837524D01*
X62889598Y-63837524D02*
X62984836Y-63885144D01*
X62984836Y-63885144D02*
X63032455Y-63932763D01*
X63032455Y-63932763D02*
X63080074Y-64028001D01*
X63080074Y-64028001D02*
X63080074Y-64266096D01*
X63080074Y-64266096D02*
X63032455Y-64361334D01*
X63032455Y-64361334D02*
X62984836Y-64408953D01*
X62984836Y-64408953D02*
X62889598Y-64456572D01*
X62889598Y-64456572D02*
X62699122Y-64456572D01*
X62699122Y-64456572D02*
X62603884Y-64408953D01*
X62603884Y-64408953D02*
X62556265Y-64361334D01*
X62556265Y-64361334D02*
X62508646Y-64266096D01*
X64222931Y-64885144D02*
X63365789Y-63599429D01*
X64508646Y-64742286D02*
X64556265Y-64789905D01*
X64556265Y-64789905D02*
X64651503Y-64837524D01*
X64651503Y-64837524D02*
X64889598Y-64837524D01*
X64889598Y-64837524D02*
X64984836Y-64789905D01*
X64984836Y-64789905D02*
X65032455Y-64742286D01*
X65032455Y-64742286D02*
X65080074Y-64647048D01*
X65080074Y-64647048D02*
X65080074Y-64551810D01*
X65080074Y-64551810D02*
X65032455Y-64408953D01*
X65032455Y-64408953D02*
X64461027Y-63837524D01*
X64461027Y-63837524D02*
X65080074Y-63837524D01*
X65699122Y-64837524D02*
X65794360Y-64837524D01*
X65794360Y-64837524D02*
X65889598Y-64789905D01*
X65889598Y-64789905D02*
X65937217Y-64742286D01*
X65937217Y-64742286D02*
X65984836Y-64647048D01*
X65984836Y-64647048D02*
X66032455Y-64456572D01*
X66032455Y-64456572D02*
X66032455Y-64218477D01*
X66032455Y-64218477D02*
X65984836Y-64028001D01*
X65984836Y-64028001D02*
X65937217Y-63932763D01*
X65937217Y-63932763D02*
X65889598Y-63885144D01*
X65889598Y-63885144D02*
X65794360Y-63837524D01*
X65794360Y-63837524D02*
X65699122Y-63837524D01*
X65699122Y-63837524D02*
X65603884Y-63885144D01*
X65603884Y-63885144D02*
X65556265Y-63932763D01*
X65556265Y-63932763D02*
X65508646Y-64028001D01*
X65508646Y-64028001D02*
X65461027Y-64218477D01*
X65461027Y-64218477D02*
X65461027Y-64456572D01*
X65461027Y-64456572D02*
X65508646Y-64647048D01*
X65508646Y-64647048D02*
X65556265Y-64742286D01*
X65556265Y-64742286D02*
X65603884Y-64789905D01*
X65603884Y-64789905D02*
X65699122Y-64837524D01*
X66413408Y-64742286D02*
X66461027Y-64789905D01*
X66461027Y-64789905D02*
X66556265Y-64837524D01*
X66556265Y-64837524D02*
X66794360Y-64837524D01*
X66794360Y-64837524D02*
X66889598Y-64789905D01*
X66889598Y-64789905D02*
X66937217Y-64742286D01*
X66937217Y-64742286D02*
X66984836Y-64647048D01*
X66984836Y-64647048D02*
X66984836Y-64551810D01*
X66984836Y-64551810D02*
X66937217Y-64408953D01*
X66937217Y-64408953D02*
X66365789Y-63837524D01*
X66365789Y-63837524D02*
X66984836Y-63837524D01*
X67841979Y-64504191D02*
X67841979Y-63837524D01*
X67603884Y-64885144D02*
X67365789Y-64170858D01*
X67365789Y-64170858D02*
X67984836Y-64170858D01*
X59461027Y-63227580D02*
X59794360Y-62227580D01*
X59794360Y-62227580D02*
X60127693Y-63227580D01*
X60651503Y-63227580D02*
X60746741Y-63227580D01*
X60746741Y-63227580D02*
X60841979Y-63179961D01*
X60841979Y-63179961D02*
X60889598Y-63132342D01*
X60889598Y-63132342D02*
X60937217Y-63037104D01*
X60937217Y-63037104D02*
X60984836Y-62846628D01*
X60984836Y-62846628D02*
X60984836Y-62608533D01*
X60984836Y-62608533D02*
X60937217Y-62418057D01*
X60937217Y-62418057D02*
X60889598Y-62322819D01*
X60889598Y-62322819D02*
X60841979Y-62275200D01*
X60841979Y-62275200D02*
X60746741Y-62227580D01*
X60746741Y-62227580D02*
X60651503Y-62227580D01*
X60651503Y-62227580D02*
X60556265Y-62275200D01*
X60556265Y-62275200D02*
X60508646Y-62322819D01*
X60508646Y-62322819D02*
X60461027Y-62418057D01*
X60461027Y-62418057D02*
X60413408Y-62608533D01*
X60413408Y-62608533D02*
X60413408Y-62846628D01*
X60413408Y-62846628D02*
X60461027Y-63037104D01*
X60461027Y-63037104D02*
X60508646Y-63132342D01*
X60508646Y-63132342D02*
X60556265Y-63179961D01*
X60556265Y-63179961D02*
X60651503Y-63227580D01*
X61413408Y-62322819D02*
X61461027Y-62275200D01*
X61461027Y-62275200D02*
X61413408Y-62227580D01*
X61413408Y-62227580D02*
X61365789Y-62275200D01*
X61365789Y-62275200D02*
X61413408Y-62322819D01*
X61413408Y-62322819D02*
X61413408Y-62227580D01*
X62413407Y-62227580D02*
X61841979Y-62227580D01*
X62127693Y-62227580D02*
X62127693Y-63227580D01*
X62127693Y-63227580D02*
X62032455Y-63084723D01*
X62032455Y-63084723D02*
X61937217Y-62989485D01*
X61937217Y-62989485D02*
X61841979Y-62941866D01*
D11*
X95908304Y-48196993D02*
X95908304Y-48577945D01*
X95908304Y-48577945D02*
X96708304Y-48577945D01*
X96708304Y-47777945D02*
X96708304Y-47625564D01*
X96708304Y-47625564D02*
X96670209Y-47549374D01*
X96670209Y-47549374D02*
X96594019Y-47473183D01*
X96594019Y-47473183D02*
X96441638Y-47435088D01*
X96441638Y-47435088D02*
X96174971Y-47435088D01*
X96174971Y-47435088D02*
X96022590Y-47473183D01*
X96022590Y-47473183D02*
X95946400Y-47549374D01*
X95946400Y-47549374D02*
X95908304Y-47625564D01*
X95908304Y-47625564D02*
X95908304Y-47777945D01*
X95908304Y-47777945D02*
X95946400Y-47854136D01*
X95946400Y-47854136D02*
X96022590Y-47930326D01*
X96022590Y-47930326D02*
X96174971Y-47968422D01*
X96174971Y-47968422D02*
X96441638Y-47968422D01*
X96441638Y-47968422D02*
X96594019Y-47930326D01*
X96594019Y-47930326D02*
X96670209Y-47854136D01*
X96670209Y-47854136D02*
X96708304Y-47777945D01*
X95908304Y-46482707D02*
X96708304Y-46482707D01*
X96327352Y-46482707D02*
X96327352Y-46025564D01*
X95908304Y-46025564D02*
X96708304Y-46025564D01*
X95908304Y-45644612D02*
X96708304Y-45644612D01*
X96670209Y-44235089D02*
X96708304Y-44311279D01*
X96708304Y-44311279D02*
X96708304Y-44425565D01*
X96708304Y-44425565D02*
X96670209Y-44539851D01*
X96670209Y-44539851D02*
X96594019Y-44616041D01*
X96594019Y-44616041D02*
X96517828Y-44654136D01*
X96517828Y-44654136D02*
X96365447Y-44692232D01*
X96365447Y-44692232D02*
X96251161Y-44692232D01*
X96251161Y-44692232D02*
X96098780Y-44654136D01*
X96098780Y-44654136D02*
X96022590Y-44616041D01*
X96022590Y-44616041D02*
X95946400Y-44539851D01*
X95946400Y-44539851D02*
X95908304Y-44425565D01*
X95908304Y-44425565D02*
X95908304Y-44349374D01*
X95908304Y-44349374D02*
X95946400Y-44235089D01*
X95946400Y-44235089D02*
X95984495Y-44196993D01*
X95984495Y-44196993D02*
X96251161Y-44196993D01*
X96251161Y-44196993D02*
X96251161Y-44349374D01*
X95908304Y-43854136D02*
X96708304Y-43854136D01*
X96708304Y-43854136D02*
X95908304Y-43396993D01*
X95908304Y-43396993D02*
X96708304Y-43396993D01*
X95908304Y-43016041D02*
X96708304Y-43016041D01*
X96708304Y-43016041D02*
X96708304Y-42825565D01*
X96708304Y-42825565D02*
X96670209Y-42711279D01*
X96670209Y-42711279D02*
X96594019Y-42635089D01*
X96594019Y-42635089D02*
X96517828Y-42596994D01*
X96517828Y-42596994D02*
X96365447Y-42558898D01*
X96365447Y-42558898D02*
X96251161Y-42558898D01*
X96251161Y-42558898D02*
X96098780Y-42596994D01*
X96098780Y-42596994D02*
X96022590Y-42635089D01*
X96022590Y-42635089D02*
X95946400Y-42711279D01*
X95946400Y-42711279D02*
X95908304Y-42825565D01*
X95908304Y-42825565D02*
X95908304Y-43016041D01*
X96213066Y-41606517D02*
X96213066Y-40996994D01*
X95908304Y-41301755D02*
X96517828Y-41301755D01*
X95908304Y-40196994D02*
X95908304Y-40654137D01*
X95908304Y-40425565D02*
X96708304Y-40425565D01*
X96708304Y-40425565D02*
X96594019Y-40501756D01*
X96594019Y-40501756D02*
X96517828Y-40577946D01*
X96517828Y-40577946D02*
X96479733Y-40654137D01*
X96632114Y-39892232D02*
X96670209Y-39854136D01*
X96670209Y-39854136D02*
X96708304Y-39777946D01*
X96708304Y-39777946D02*
X96708304Y-39587470D01*
X96708304Y-39587470D02*
X96670209Y-39511279D01*
X96670209Y-39511279D02*
X96632114Y-39473184D01*
X96632114Y-39473184D02*
X96555923Y-39435089D01*
X96555923Y-39435089D02*
X96479733Y-39435089D01*
X96479733Y-39435089D02*
X96365447Y-39473184D01*
X96365447Y-39473184D02*
X95908304Y-39930327D01*
X95908304Y-39930327D02*
X95908304Y-39435089D01*
X88477945Y-35686933D02*
X87868422Y-35686933D01*
X88173183Y-35991695D02*
X88173183Y-35382171D01*
X87563660Y-35191695D02*
X87068422Y-35191695D01*
X87068422Y-35191695D02*
X87335088Y-35496457D01*
X87335088Y-35496457D02*
X87220803Y-35496457D01*
X87220803Y-35496457D02*
X87144612Y-35534552D01*
X87144612Y-35534552D02*
X87106517Y-35572647D01*
X87106517Y-35572647D02*
X87068422Y-35648838D01*
X87068422Y-35648838D02*
X87068422Y-35839314D01*
X87068422Y-35839314D02*
X87106517Y-35915504D01*
X87106517Y-35915504D02*
X87144612Y-35953600D01*
X87144612Y-35953600D02*
X87220803Y-35991695D01*
X87220803Y-35991695D02*
X87449374Y-35991695D01*
X87449374Y-35991695D02*
X87525565Y-35953600D01*
X87525565Y-35953600D02*
X87563660Y-35915504D01*
X86725564Y-35915504D02*
X86687469Y-35953600D01*
X86687469Y-35953600D02*
X86725564Y-35991695D01*
X86725564Y-35991695D02*
X86763660Y-35953600D01*
X86763660Y-35953600D02*
X86725564Y-35915504D01*
X86725564Y-35915504D02*
X86725564Y-35991695D01*
X86420803Y-35191695D02*
X85925565Y-35191695D01*
X85925565Y-35191695D02*
X86192231Y-35496457D01*
X86192231Y-35496457D02*
X86077946Y-35496457D01*
X86077946Y-35496457D02*
X86001755Y-35534552D01*
X86001755Y-35534552D02*
X85963660Y-35572647D01*
X85963660Y-35572647D02*
X85925565Y-35648838D01*
X85925565Y-35648838D02*
X85925565Y-35839314D01*
X85925565Y-35839314D02*
X85963660Y-35915504D01*
X85963660Y-35915504D02*
X86001755Y-35953600D01*
X86001755Y-35953600D02*
X86077946Y-35991695D01*
X86077946Y-35991695D02*
X86306517Y-35991695D01*
X86306517Y-35991695D02*
X86382708Y-35953600D01*
X86382708Y-35953600D02*
X86420803Y-35915504D01*
X84973183Y-35991695D02*
X84973183Y-35191695D01*
X84439850Y-35191695D02*
X84287469Y-35191695D01*
X84287469Y-35191695D02*
X84211279Y-35229790D01*
X84211279Y-35229790D02*
X84135088Y-35305980D01*
X84135088Y-35305980D02*
X84096993Y-35458361D01*
X84096993Y-35458361D02*
X84096993Y-35725028D01*
X84096993Y-35725028D02*
X84135088Y-35877409D01*
X84135088Y-35877409D02*
X84211279Y-35953600D01*
X84211279Y-35953600D02*
X84287469Y-35991695D01*
X84287469Y-35991695D02*
X84439850Y-35991695D01*
X84439850Y-35991695D02*
X84516041Y-35953600D01*
X84516041Y-35953600D02*
X84592231Y-35877409D01*
X84592231Y-35877409D02*
X84630327Y-35725028D01*
X84630327Y-35725028D02*
X84630327Y-35458361D01*
X84630327Y-35458361D02*
X84592231Y-35305980D01*
X84592231Y-35305980D02*
X84516041Y-35229790D01*
X84516041Y-35229790D02*
X84439850Y-35191695D01*
X82687469Y-35915504D02*
X82725565Y-35953600D01*
X82725565Y-35953600D02*
X82839850Y-35991695D01*
X82839850Y-35991695D02*
X82916041Y-35991695D01*
X82916041Y-35991695D02*
X83030327Y-35953600D01*
X83030327Y-35953600D02*
X83106517Y-35877409D01*
X83106517Y-35877409D02*
X83144612Y-35801219D01*
X83144612Y-35801219D02*
X83182708Y-35648838D01*
X83182708Y-35648838D02*
X83182708Y-35534552D01*
X83182708Y-35534552D02*
X83144612Y-35382171D01*
X83144612Y-35382171D02*
X83106517Y-35305980D01*
X83106517Y-35305980D02*
X83030327Y-35229790D01*
X83030327Y-35229790D02*
X82916041Y-35191695D01*
X82916041Y-35191695D02*
X82839850Y-35191695D01*
X82839850Y-35191695D02*
X82725565Y-35229790D01*
X82725565Y-35229790D02*
X82687469Y-35267885D01*
X81963660Y-35991695D02*
X82344612Y-35991695D01*
X82344612Y-35991695D02*
X82344612Y-35191695D01*
X81696993Y-35991695D02*
X81696993Y-35191695D01*
X81239850Y-35991695D02*
X81582708Y-35534552D01*
X81239850Y-35191695D02*
X81696993Y-35648838D01*
X79868422Y-35229790D02*
X79944612Y-35191695D01*
X79944612Y-35191695D02*
X80058898Y-35191695D01*
X80058898Y-35191695D02*
X80173184Y-35229790D01*
X80173184Y-35229790D02*
X80249374Y-35305980D01*
X80249374Y-35305980D02*
X80287469Y-35382171D01*
X80287469Y-35382171D02*
X80325565Y-35534552D01*
X80325565Y-35534552D02*
X80325565Y-35648838D01*
X80325565Y-35648838D02*
X80287469Y-35801219D01*
X80287469Y-35801219D02*
X80249374Y-35877409D01*
X80249374Y-35877409D02*
X80173184Y-35953600D01*
X80173184Y-35953600D02*
X80058898Y-35991695D01*
X80058898Y-35991695D02*
X79982707Y-35991695D01*
X79982707Y-35991695D02*
X79868422Y-35953600D01*
X79868422Y-35953600D02*
X79830326Y-35915504D01*
X79830326Y-35915504D02*
X79830326Y-35648838D01*
X79830326Y-35648838D02*
X79982707Y-35648838D01*
X79487469Y-35991695D02*
X79487469Y-35191695D01*
X79487469Y-35191695D02*
X79030326Y-35991695D01*
X79030326Y-35991695D02*
X79030326Y-35191695D01*
X78649374Y-35991695D02*
X78649374Y-35191695D01*
X78649374Y-35191695D02*
X78458898Y-35191695D01*
X78458898Y-35191695D02*
X78344612Y-35229790D01*
X78344612Y-35229790D02*
X78268422Y-35305980D01*
X78268422Y-35305980D02*
X78230327Y-35382171D01*
X78230327Y-35382171D02*
X78192231Y-35534552D01*
X78192231Y-35534552D02*
X78192231Y-35648838D01*
X78192231Y-35648838D02*
X78230327Y-35801219D01*
X78230327Y-35801219D02*
X78268422Y-35877409D01*
X78268422Y-35877409D02*
X78344612Y-35953600D01*
X78344612Y-35953600D02*
X78458898Y-35991695D01*
X78458898Y-35991695D02*
X78649374Y-35991695D01*
X50691695Y-53322054D02*
X49891695Y-53322054D01*
X49891695Y-53322054D02*
X50463123Y-53588720D01*
X50463123Y-53588720D02*
X49891695Y-53855387D01*
X49891695Y-53855387D02*
X50691695Y-53855387D01*
X49891695Y-54388721D02*
X49891695Y-54541102D01*
X49891695Y-54541102D02*
X49929790Y-54617292D01*
X49929790Y-54617292D02*
X50005980Y-54693483D01*
X50005980Y-54693483D02*
X50158361Y-54731578D01*
X50158361Y-54731578D02*
X50425028Y-54731578D01*
X50425028Y-54731578D02*
X50577409Y-54693483D01*
X50577409Y-54693483D02*
X50653600Y-54617292D01*
X50653600Y-54617292D02*
X50691695Y-54541102D01*
X50691695Y-54541102D02*
X50691695Y-54388721D01*
X50691695Y-54388721D02*
X50653600Y-54312530D01*
X50653600Y-54312530D02*
X50577409Y-54236340D01*
X50577409Y-54236340D02*
X50425028Y-54198244D01*
X50425028Y-54198244D02*
X50158361Y-54198244D01*
X50158361Y-54198244D02*
X50005980Y-54236340D01*
X50005980Y-54236340D02*
X49929790Y-54312530D01*
X49929790Y-54312530D02*
X49891695Y-54388721D01*
X49891695Y-54960149D02*
X49891695Y-55417292D01*
X50691695Y-55188720D02*
X49891695Y-55188720D01*
X49891695Y-55836340D02*
X49891695Y-55988721D01*
X49891695Y-55988721D02*
X49929790Y-56064911D01*
X49929790Y-56064911D02*
X50005980Y-56141102D01*
X50005980Y-56141102D02*
X50158361Y-56179197D01*
X50158361Y-56179197D02*
X50425028Y-56179197D01*
X50425028Y-56179197D02*
X50577409Y-56141102D01*
X50577409Y-56141102D02*
X50653600Y-56064911D01*
X50653600Y-56064911D02*
X50691695Y-55988721D01*
X50691695Y-55988721D02*
X50691695Y-55836340D01*
X50691695Y-55836340D02*
X50653600Y-55760149D01*
X50653600Y-55760149D02*
X50577409Y-55683959D01*
X50577409Y-55683959D02*
X50425028Y-55645863D01*
X50425028Y-55645863D02*
X50158361Y-55645863D01*
X50158361Y-55645863D02*
X50005980Y-55683959D01*
X50005980Y-55683959D02*
X49929790Y-55760149D01*
X49929790Y-55760149D02*
X49891695Y-55836340D01*
X50691695Y-56979197D02*
X50310742Y-56712530D01*
X50691695Y-56522054D02*
X49891695Y-56522054D01*
X49891695Y-56522054D02*
X49891695Y-56826816D01*
X49891695Y-56826816D02*
X49929790Y-56903006D01*
X49929790Y-56903006D02*
X49967885Y-56941101D01*
X49967885Y-56941101D02*
X50044076Y-56979197D01*
X50044076Y-56979197D02*
X50158361Y-56979197D01*
X50158361Y-56979197D02*
X50234552Y-56941101D01*
X50234552Y-56941101D02*
X50272647Y-56903006D01*
X50272647Y-56903006D02*
X50310742Y-56826816D01*
X50310742Y-56826816D02*
X50310742Y-56522054D01*
X49891695Y-57245863D02*
X49891695Y-57741101D01*
X49891695Y-57741101D02*
X50196457Y-57474435D01*
X50196457Y-57474435D02*
X50196457Y-57588720D01*
X50196457Y-57588720D02*
X50234552Y-57664911D01*
X50234552Y-57664911D02*
X50272647Y-57703006D01*
X50272647Y-57703006D02*
X50348838Y-57741101D01*
X50348838Y-57741101D02*
X50539314Y-57741101D01*
X50539314Y-57741101D02*
X50615504Y-57703006D01*
X50615504Y-57703006D02*
X50653600Y-57664911D01*
X50653600Y-57664911D02*
X50691695Y-57588720D01*
X50691695Y-57588720D02*
X50691695Y-57360149D01*
X50691695Y-57360149D02*
X50653600Y-57283958D01*
X50653600Y-57283958D02*
X50615504Y-57245863D01*
X50691695Y-58693483D02*
X49891695Y-58693483D01*
X49891695Y-58693483D02*
X50463123Y-58960149D01*
X50463123Y-58960149D02*
X49891695Y-59226816D01*
X49891695Y-59226816D02*
X50691695Y-59226816D01*
X49891695Y-59760150D02*
X49891695Y-59912531D01*
X49891695Y-59912531D02*
X49929790Y-59988721D01*
X49929790Y-59988721D02*
X50005980Y-60064912D01*
X50005980Y-60064912D02*
X50158361Y-60103007D01*
X50158361Y-60103007D02*
X50425028Y-60103007D01*
X50425028Y-60103007D02*
X50577409Y-60064912D01*
X50577409Y-60064912D02*
X50653600Y-59988721D01*
X50653600Y-59988721D02*
X50691695Y-59912531D01*
X50691695Y-59912531D02*
X50691695Y-59760150D01*
X50691695Y-59760150D02*
X50653600Y-59683959D01*
X50653600Y-59683959D02*
X50577409Y-59607769D01*
X50577409Y-59607769D02*
X50425028Y-59569673D01*
X50425028Y-59569673D02*
X50158361Y-59569673D01*
X50158361Y-59569673D02*
X50005980Y-59607769D01*
X50005980Y-59607769D02*
X49929790Y-59683959D01*
X49929790Y-59683959D02*
X49891695Y-59760150D01*
X49891695Y-60331578D02*
X49891695Y-60788721D01*
X50691695Y-60560149D02*
X49891695Y-60560149D01*
X49891695Y-61207769D02*
X49891695Y-61360150D01*
X49891695Y-61360150D02*
X49929790Y-61436340D01*
X49929790Y-61436340D02*
X50005980Y-61512531D01*
X50005980Y-61512531D02*
X50158361Y-61550626D01*
X50158361Y-61550626D02*
X50425028Y-61550626D01*
X50425028Y-61550626D02*
X50577409Y-61512531D01*
X50577409Y-61512531D02*
X50653600Y-61436340D01*
X50653600Y-61436340D02*
X50691695Y-61360150D01*
X50691695Y-61360150D02*
X50691695Y-61207769D01*
X50691695Y-61207769D02*
X50653600Y-61131578D01*
X50653600Y-61131578D02*
X50577409Y-61055388D01*
X50577409Y-61055388D02*
X50425028Y-61017292D01*
X50425028Y-61017292D02*
X50158361Y-61017292D01*
X50158361Y-61017292D02*
X50005980Y-61055388D01*
X50005980Y-61055388D02*
X49929790Y-61131578D01*
X49929790Y-61131578D02*
X49891695Y-61207769D01*
X50691695Y-62350626D02*
X50310742Y-62083959D01*
X50691695Y-61893483D02*
X49891695Y-61893483D01*
X49891695Y-61893483D02*
X49891695Y-62198245D01*
X49891695Y-62198245D02*
X49929790Y-62274435D01*
X49929790Y-62274435D02*
X49967885Y-62312530D01*
X49967885Y-62312530D02*
X50044076Y-62350626D01*
X50044076Y-62350626D02*
X50158361Y-62350626D01*
X50158361Y-62350626D02*
X50234552Y-62312530D01*
X50234552Y-62312530D02*
X50272647Y-62274435D01*
X50272647Y-62274435D02*
X50310742Y-62198245D01*
X50310742Y-62198245D02*
X50310742Y-61893483D01*
X50158361Y-63036340D02*
X50691695Y-63036340D01*
X49853600Y-62845864D02*
X50425028Y-62655387D01*
X50425028Y-62655387D02*
X50425028Y-63150626D01*
X50691695Y-39222054D02*
X49891695Y-39222054D01*
X49891695Y-39222054D02*
X50463123Y-39488720D01*
X50463123Y-39488720D02*
X49891695Y-39755387D01*
X49891695Y-39755387D02*
X50691695Y-39755387D01*
X49891695Y-40288721D02*
X49891695Y-40441102D01*
X49891695Y-40441102D02*
X49929790Y-40517292D01*
X49929790Y-40517292D02*
X50005980Y-40593483D01*
X50005980Y-40593483D02*
X50158361Y-40631578D01*
X50158361Y-40631578D02*
X50425028Y-40631578D01*
X50425028Y-40631578D02*
X50577409Y-40593483D01*
X50577409Y-40593483D02*
X50653600Y-40517292D01*
X50653600Y-40517292D02*
X50691695Y-40441102D01*
X50691695Y-40441102D02*
X50691695Y-40288721D01*
X50691695Y-40288721D02*
X50653600Y-40212530D01*
X50653600Y-40212530D02*
X50577409Y-40136340D01*
X50577409Y-40136340D02*
X50425028Y-40098244D01*
X50425028Y-40098244D02*
X50158361Y-40098244D01*
X50158361Y-40098244D02*
X50005980Y-40136340D01*
X50005980Y-40136340D02*
X49929790Y-40212530D01*
X49929790Y-40212530D02*
X49891695Y-40288721D01*
X49891695Y-40860149D02*
X49891695Y-41317292D01*
X50691695Y-41088720D02*
X49891695Y-41088720D01*
X49891695Y-41736340D02*
X49891695Y-41888721D01*
X49891695Y-41888721D02*
X49929790Y-41964911D01*
X49929790Y-41964911D02*
X50005980Y-42041102D01*
X50005980Y-42041102D02*
X50158361Y-42079197D01*
X50158361Y-42079197D02*
X50425028Y-42079197D01*
X50425028Y-42079197D02*
X50577409Y-42041102D01*
X50577409Y-42041102D02*
X50653600Y-41964911D01*
X50653600Y-41964911D02*
X50691695Y-41888721D01*
X50691695Y-41888721D02*
X50691695Y-41736340D01*
X50691695Y-41736340D02*
X50653600Y-41660149D01*
X50653600Y-41660149D02*
X50577409Y-41583959D01*
X50577409Y-41583959D02*
X50425028Y-41545863D01*
X50425028Y-41545863D02*
X50158361Y-41545863D01*
X50158361Y-41545863D02*
X50005980Y-41583959D01*
X50005980Y-41583959D02*
X49929790Y-41660149D01*
X49929790Y-41660149D02*
X49891695Y-41736340D01*
X50691695Y-42879197D02*
X50310742Y-42612530D01*
X50691695Y-42422054D02*
X49891695Y-42422054D01*
X49891695Y-42422054D02*
X49891695Y-42726816D01*
X49891695Y-42726816D02*
X49929790Y-42803006D01*
X49929790Y-42803006D02*
X49967885Y-42841101D01*
X49967885Y-42841101D02*
X50044076Y-42879197D01*
X50044076Y-42879197D02*
X50158361Y-42879197D01*
X50158361Y-42879197D02*
X50234552Y-42841101D01*
X50234552Y-42841101D02*
X50272647Y-42803006D01*
X50272647Y-42803006D02*
X50310742Y-42726816D01*
X50310742Y-42726816D02*
X50310742Y-42422054D01*
X50691695Y-43641101D02*
X50691695Y-43183958D01*
X50691695Y-43412530D02*
X49891695Y-43412530D01*
X49891695Y-43412530D02*
X50005980Y-43336339D01*
X50005980Y-43336339D02*
X50082171Y-43260149D01*
X50082171Y-43260149D02*
X50120266Y-43183958D01*
X50691695Y-44593483D02*
X49891695Y-44593483D01*
X49891695Y-44593483D02*
X50463123Y-44860149D01*
X50463123Y-44860149D02*
X49891695Y-45126816D01*
X49891695Y-45126816D02*
X50691695Y-45126816D01*
X49891695Y-45660150D02*
X49891695Y-45812531D01*
X49891695Y-45812531D02*
X49929790Y-45888721D01*
X49929790Y-45888721D02*
X50005980Y-45964912D01*
X50005980Y-45964912D02*
X50158361Y-46003007D01*
X50158361Y-46003007D02*
X50425028Y-46003007D01*
X50425028Y-46003007D02*
X50577409Y-45964912D01*
X50577409Y-45964912D02*
X50653600Y-45888721D01*
X50653600Y-45888721D02*
X50691695Y-45812531D01*
X50691695Y-45812531D02*
X50691695Y-45660150D01*
X50691695Y-45660150D02*
X50653600Y-45583959D01*
X50653600Y-45583959D02*
X50577409Y-45507769D01*
X50577409Y-45507769D02*
X50425028Y-45469673D01*
X50425028Y-45469673D02*
X50158361Y-45469673D01*
X50158361Y-45469673D02*
X50005980Y-45507769D01*
X50005980Y-45507769D02*
X49929790Y-45583959D01*
X49929790Y-45583959D02*
X49891695Y-45660150D01*
X49891695Y-46231578D02*
X49891695Y-46688721D01*
X50691695Y-46460149D02*
X49891695Y-46460149D01*
X49891695Y-47107769D02*
X49891695Y-47260150D01*
X49891695Y-47260150D02*
X49929790Y-47336340D01*
X49929790Y-47336340D02*
X50005980Y-47412531D01*
X50005980Y-47412531D02*
X50158361Y-47450626D01*
X50158361Y-47450626D02*
X50425028Y-47450626D01*
X50425028Y-47450626D02*
X50577409Y-47412531D01*
X50577409Y-47412531D02*
X50653600Y-47336340D01*
X50653600Y-47336340D02*
X50691695Y-47260150D01*
X50691695Y-47260150D02*
X50691695Y-47107769D01*
X50691695Y-47107769D02*
X50653600Y-47031578D01*
X50653600Y-47031578D02*
X50577409Y-46955388D01*
X50577409Y-46955388D02*
X50425028Y-46917292D01*
X50425028Y-46917292D02*
X50158361Y-46917292D01*
X50158361Y-46917292D02*
X50005980Y-46955388D01*
X50005980Y-46955388D02*
X49929790Y-47031578D01*
X49929790Y-47031578D02*
X49891695Y-47107769D01*
X50691695Y-48250626D02*
X50310742Y-47983959D01*
X50691695Y-47793483D02*
X49891695Y-47793483D01*
X49891695Y-47793483D02*
X49891695Y-48098245D01*
X49891695Y-48098245D02*
X49929790Y-48174435D01*
X49929790Y-48174435D02*
X49967885Y-48212530D01*
X49967885Y-48212530D02*
X50044076Y-48250626D01*
X50044076Y-48250626D02*
X50158361Y-48250626D01*
X50158361Y-48250626D02*
X50234552Y-48212530D01*
X50234552Y-48212530D02*
X50272647Y-48174435D01*
X50272647Y-48174435D02*
X50310742Y-48098245D01*
X50310742Y-48098245D02*
X50310742Y-47793483D01*
X49967885Y-48555387D02*
X49929790Y-48593483D01*
X49929790Y-48593483D02*
X49891695Y-48669673D01*
X49891695Y-48669673D02*
X49891695Y-48860149D01*
X49891695Y-48860149D02*
X49929790Y-48936340D01*
X49929790Y-48936340D02*
X49967885Y-48974435D01*
X49967885Y-48974435D02*
X50044076Y-49012530D01*
X50044076Y-49012530D02*
X50120266Y-49012530D01*
X50120266Y-49012530D02*
X50234552Y-48974435D01*
X50234552Y-48974435D02*
X50691695Y-48517292D01*
X50691695Y-48517292D02*
X50691695Y-49012530D01*
X78722054Y-64608304D02*
X78722054Y-65408304D01*
X78722054Y-65408304D02*
X79026816Y-65408304D01*
X79026816Y-65408304D02*
X79103006Y-65370209D01*
X79103006Y-65370209D02*
X79141101Y-65332114D01*
X79141101Y-65332114D02*
X79179197Y-65255923D01*
X79179197Y-65255923D02*
X79179197Y-65141638D01*
X79179197Y-65141638D02*
X79141101Y-65065447D01*
X79141101Y-65065447D02*
X79103006Y-65027352D01*
X79103006Y-65027352D02*
X79026816Y-64989257D01*
X79026816Y-64989257D02*
X78722054Y-64989257D01*
X79788720Y-65027352D02*
X79903006Y-64989257D01*
X79903006Y-64989257D02*
X79941101Y-64951161D01*
X79941101Y-64951161D02*
X79979197Y-64874971D01*
X79979197Y-64874971D02*
X79979197Y-64760685D01*
X79979197Y-64760685D02*
X79941101Y-64684495D01*
X79941101Y-64684495D02*
X79903006Y-64646400D01*
X79903006Y-64646400D02*
X79826816Y-64608304D01*
X79826816Y-64608304D02*
X79522054Y-64608304D01*
X79522054Y-64608304D02*
X79522054Y-65408304D01*
X79522054Y-65408304D02*
X79788720Y-65408304D01*
X79788720Y-65408304D02*
X79864911Y-65370209D01*
X79864911Y-65370209D02*
X79903006Y-65332114D01*
X79903006Y-65332114D02*
X79941101Y-65255923D01*
X79941101Y-65255923D02*
X79941101Y-65179733D01*
X79941101Y-65179733D02*
X79903006Y-65103542D01*
X79903006Y-65103542D02*
X79864911Y-65065447D01*
X79864911Y-65065447D02*
X79788720Y-65027352D01*
X79788720Y-65027352D02*
X79522054Y-65027352D01*
X81160149Y-64303542D02*
X81122054Y-64341638D01*
X81122054Y-64341638D02*
X81045863Y-64455923D01*
X81045863Y-64455923D02*
X81007768Y-64532114D01*
X81007768Y-64532114D02*
X80969673Y-64646400D01*
X80969673Y-64646400D02*
X80931578Y-64836876D01*
X80931578Y-64836876D02*
X80931578Y-64989257D01*
X80931578Y-64989257D02*
X80969673Y-65179733D01*
X80969673Y-65179733D02*
X81007768Y-65294019D01*
X81007768Y-65294019D02*
X81045863Y-65370209D01*
X81045863Y-65370209D02*
X81122054Y-65484495D01*
X81122054Y-65484495D02*
X81160149Y-65522590D01*
X81883958Y-64608304D02*
X81426815Y-64608304D01*
X81655387Y-64608304D02*
X81655387Y-65408304D01*
X81655387Y-65408304D02*
X81579196Y-65294019D01*
X81579196Y-65294019D02*
X81503006Y-65217828D01*
X81503006Y-65217828D02*
X81426815Y-65179733D01*
X82188720Y-65332114D02*
X82226816Y-65370209D01*
X82226816Y-65370209D02*
X82303006Y-65408304D01*
X82303006Y-65408304D02*
X82493482Y-65408304D01*
X82493482Y-65408304D02*
X82569673Y-65370209D01*
X82569673Y-65370209D02*
X82607768Y-65332114D01*
X82607768Y-65332114D02*
X82645863Y-65255923D01*
X82645863Y-65255923D02*
X82645863Y-65179733D01*
X82645863Y-65179733D02*
X82607768Y-65065447D01*
X82607768Y-65065447D02*
X82150625Y-64608304D01*
X82150625Y-64608304D02*
X82645863Y-64608304D01*
X82988721Y-64913066D02*
X83598245Y-64913066D01*
X84398244Y-64608304D02*
X83941101Y-64608304D01*
X84169673Y-64608304D02*
X84169673Y-65408304D01*
X84169673Y-65408304D02*
X84093482Y-65294019D01*
X84093482Y-65294019D02*
X84017292Y-65217828D01*
X84017292Y-65217828D02*
X83941101Y-65179733D01*
X85122054Y-65408304D02*
X84741102Y-65408304D01*
X84741102Y-65408304D02*
X84703006Y-65027352D01*
X84703006Y-65027352D02*
X84741102Y-65065447D01*
X84741102Y-65065447D02*
X84817292Y-65103542D01*
X84817292Y-65103542D02*
X85007768Y-65103542D01*
X85007768Y-65103542D02*
X85083959Y-65065447D01*
X85083959Y-65065447D02*
X85122054Y-65027352D01*
X85122054Y-65027352D02*
X85160149Y-64951161D01*
X85160149Y-64951161D02*
X85160149Y-64760685D01*
X85160149Y-64760685D02*
X85122054Y-64684495D01*
X85122054Y-64684495D02*
X85083959Y-64646400D01*
X85083959Y-64646400D02*
X85007768Y-64608304D01*
X85007768Y-64608304D02*
X84817292Y-64608304D01*
X84817292Y-64608304D02*
X84741102Y-64646400D01*
X84741102Y-64646400D02*
X84703006Y-64684495D01*
X85426816Y-64303542D02*
X85464911Y-64341638D01*
X85464911Y-64341638D02*
X85541102Y-64455923D01*
X85541102Y-64455923D02*
X85579197Y-64532114D01*
X85579197Y-64532114D02*
X85617292Y-64646400D01*
X85617292Y-64646400D02*
X85655388Y-64836876D01*
X85655388Y-64836876D02*
X85655388Y-64989257D01*
X85655388Y-64989257D02*
X85617292Y-65179733D01*
X85617292Y-65179733D02*
X85579197Y-65294019D01*
X85579197Y-65294019D02*
X85541102Y-65370209D01*
X85541102Y-65370209D02*
X85464911Y-65484495D01*
X85464911Y-65484495D02*
X85426816Y-65522590D01*
X95908304Y-61996993D02*
X95908304Y-62377945D01*
X95908304Y-62377945D02*
X96708304Y-62377945D01*
X96708304Y-61577945D02*
X96708304Y-61425564D01*
X96708304Y-61425564D02*
X96670209Y-61349374D01*
X96670209Y-61349374D02*
X96594019Y-61273183D01*
X96594019Y-61273183D02*
X96441638Y-61235088D01*
X96441638Y-61235088D02*
X96174971Y-61235088D01*
X96174971Y-61235088D02*
X96022590Y-61273183D01*
X96022590Y-61273183D02*
X95946400Y-61349374D01*
X95946400Y-61349374D02*
X95908304Y-61425564D01*
X95908304Y-61425564D02*
X95908304Y-61577945D01*
X95908304Y-61577945D02*
X95946400Y-61654136D01*
X95946400Y-61654136D02*
X96022590Y-61730326D01*
X96022590Y-61730326D02*
X96174971Y-61768422D01*
X96174971Y-61768422D02*
X96441638Y-61768422D01*
X96441638Y-61768422D02*
X96594019Y-61730326D01*
X96594019Y-61730326D02*
X96670209Y-61654136D01*
X96670209Y-61654136D02*
X96708304Y-61577945D01*
X95908304Y-60282707D02*
X96708304Y-60282707D01*
X96327352Y-60282707D02*
X96327352Y-59825564D01*
X95908304Y-59825564D02*
X96708304Y-59825564D01*
X95908304Y-59444612D02*
X96708304Y-59444612D01*
X96670209Y-58035089D02*
X96708304Y-58111279D01*
X96708304Y-58111279D02*
X96708304Y-58225565D01*
X96708304Y-58225565D02*
X96670209Y-58339851D01*
X96670209Y-58339851D02*
X96594019Y-58416041D01*
X96594019Y-58416041D02*
X96517828Y-58454136D01*
X96517828Y-58454136D02*
X96365447Y-58492232D01*
X96365447Y-58492232D02*
X96251161Y-58492232D01*
X96251161Y-58492232D02*
X96098780Y-58454136D01*
X96098780Y-58454136D02*
X96022590Y-58416041D01*
X96022590Y-58416041D02*
X95946400Y-58339851D01*
X95946400Y-58339851D02*
X95908304Y-58225565D01*
X95908304Y-58225565D02*
X95908304Y-58149374D01*
X95908304Y-58149374D02*
X95946400Y-58035089D01*
X95946400Y-58035089D02*
X95984495Y-57996993D01*
X95984495Y-57996993D02*
X96251161Y-57996993D01*
X96251161Y-57996993D02*
X96251161Y-58149374D01*
X95908304Y-57654136D02*
X96708304Y-57654136D01*
X96708304Y-57654136D02*
X95908304Y-57196993D01*
X95908304Y-57196993D02*
X96708304Y-57196993D01*
X95908304Y-56816041D02*
X96708304Y-56816041D01*
X96708304Y-56816041D02*
X96708304Y-56625565D01*
X96708304Y-56625565D02*
X96670209Y-56511279D01*
X96670209Y-56511279D02*
X96594019Y-56435089D01*
X96594019Y-56435089D02*
X96517828Y-56396994D01*
X96517828Y-56396994D02*
X96365447Y-56358898D01*
X96365447Y-56358898D02*
X96251161Y-56358898D01*
X96251161Y-56358898D02*
X96098780Y-56396994D01*
X96098780Y-56396994D02*
X96022590Y-56435089D01*
X96022590Y-56435089D02*
X95946400Y-56511279D01*
X95946400Y-56511279D02*
X95908304Y-56625565D01*
X95908304Y-56625565D02*
X95908304Y-56816041D01*
X96213066Y-55406517D02*
X96213066Y-54796994D01*
X95908304Y-55101755D02*
X96517828Y-55101755D01*
X95908304Y-53996994D02*
X95908304Y-54454137D01*
X95908304Y-54225565D02*
X96708304Y-54225565D01*
X96708304Y-54225565D02*
X96594019Y-54301756D01*
X96594019Y-54301756D02*
X96517828Y-54377946D01*
X96517828Y-54377946D02*
X96479733Y-54454137D01*
X96632114Y-53692232D02*
X96670209Y-53654136D01*
X96670209Y-53654136D02*
X96708304Y-53577946D01*
X96708304Y-53577946D02*
X96708304Y-53387470D01*
X96708304Y-53387470D02*
X96670209Y-53311279D01*
X96670209Y-53311279D02*
X96632114Y-53273184D01*
X96632114Y-53273184D02*
X96555923Y-53235089D01*
X96555923Y-53235089D02*
X96479733Y-53235089D01*
X96479733Y-53235089D02*
X96365447Y-53273184D01*
X96365447Y-53273184D02*
X95908304Y-53730327D01*
X95908304Y-53730327D02*
X95908304Y-53235089D01*
%LPC*%
D12*
X93850000Y-47810000D03*
D13*
X93850000Y-45270000D03*
X93850000Y-42730000D03*
X93850000Y-40190000D03*
D12*
X93850000Y-61790000D03*
D13*
X93850000Y-59250000D03*
X93850000Y-56710000D03*
X93850000Y-54170000D03*
D14*
X95000000Y-67750000D03*
X95000000Y-34000000D03*
D12*
X53000000Y-54460000D03*
D13*
X53000000Y-57000000D03*
X53000000Y-59540000D03*
X53000000Y-62080000D03*
D14*
X52000000Y-67750000D03*
D15*
X79450000Y-67500000D03*
D16*
X81990000Y-67500000D03*
X84530000Y-67500000D03*
X87070000Y-67500000D03*
D12*
X53000000Y-40440000D03*
D13*
X53000000Y-42980000D03*
X53000000Y-45520000D03*
X53000000Y-48060000D03*
D14*
X52000000Y-34000000D03*
D15*
X79420000Y-33250000D03*
D16*
X81960000Y-33250000D03*
X84500000Y-33250000D03*
X87040000Y-33250000D03*
%LPD*%
M02*
